<svg xmlns="http://www.w3.org/2000/svg" width="430" height="372" viewBox="0 0 430 372"><title>experience-fg</title><path d="M292.38,41.72a109.79,109.79,0,0,1,49.29-18.94c7.2-.89,14.49-1.06,21.64-2.3A73.57,73.57,0,0,0,400.19,2.34c14.13,24.18,14.68,54.07,26.44,79.48a4.09,4.09,0,0,1,.53,1.93,3.91,3.91,0,0,1-.85,1.89c-7.14,10.08-17.83,17.36-29.44,21.6s-24.11,5.61-36.47,5.38c-7.58-.15-15.24-.87-22.68.6a39.54,39.54,0,0,0-25.9,18.22" fill="#fff"/><path d="M293.13,43c17.72-12.19,37.22-17.86,58.48-19.67,18.7-1.6,35.47-7.25,49.64-19.94l-2.36-.3c7.2,12.6,10.93,26.56,14.37,40.56,1.67,6.83,3.3,13.68,5.29,20.44.94,3.22,2,6.43,3.13,9.58.91,2.5,3.8,6.88,3.89,9.48.1,2.75-4.45,6.61-6.3,8.45a58,58,0,0,1-8.67,7,70,70,0,0,1-20.3,9.11A99.39,99.39,0,0,1,366,111.11c-7.85.18-15.74-.76-23.57,0a41.72,41.72,0,0,0-31.87,19.62c-1,1.64,1.57,3.15,2.59,1.51a38.8,38.8,0,0,1,15.58-14.32c7.88-3.92,16.42-4.23,25.06-4,15.81.49,31.57-.22,46.39-6.34a68.49,68.49,0,0,0,15.42-8.8c4.29-3.27,10.59-8.25,12.67-13.45.65-1.62.25-2.66-.32-4.26-1.37-3.82-3.16-7.48-4.46-11.34-2.43-7.2-4.3-14.56-6.11-21.93-3.9-15.88-7.69-31.88-15.87-46.2a1.51,1.51,0,0,0-2.35-.31,73.36,73.36,0,0,1-25.73,15.1c-10,3.35-20.41,3.58-30.82,4.8a113,113,0,0,0-51,19.24c-1.58,1.09-.08,3.69,1.51,2.59Z" fill="#263135"/><rect x="301.61" y="20.31" width="7.21" height="197.05" transform="translate(-17.92 65.34) rotate(-11.87)" stroke-width="3" stroke="#263135" stroke-linecap="round" stroke-linejoin="round" fill="#e2e2e2"/><path d="M292.27,20.88A7.49,7.49,0,1,1,277.62,24C276.77,19.91,282,8.58,282,8.58S291.42,16.83,292.27,20.88Z" fill="#e2e2e2" stroke="#263135" stroke-linecap="round" stroke-linejoin="round" stroke-width="3"/><path d="M371.07,66.19c-2.44,6.35-4.6,13.14-10,17.7-3.58,3-8.69,4.45-11.74,0-5.74-8.37,6.27-17,9.84-23.77,2.42-4.6,3.25-12.07-1.88-15.21-7.88-4.8-19.2,1.42-16.26,11,1.95,6.39,9.14,10.74,14.51,14,7.67,4.66,16,8.26,23,14,3,2.43,7.23-1.79,4.24-4.24-6.15-5-13.06-8.62-20-12.48-3.72-2.08-19.09-9.63-16.16-15.8.84-1.77,3.72-2.18,5.48-1.83,3.82.74,3.36,4.43,1.87,7.51-3.34,6.92-10.4,11.59-12,19.49-1.93,9.3,6.69,18.33,16,15.68,11-3.15,15.31-15,19-24.48,1.38-3.6-4.41-5.17-5.78-1.59Z" fill="#ed078a"/><rect x="249.3" y="196.85" width="162.28" height="110.24" rx="4" fill="#263135" opacity="0.25" stroke-linecap="round" stroke-linejoin="round" stroke-width="3" stroke="#263135"/><path d="M423.5,194.36v-6.9a4,4,0,0,0-4-4H265.22a4,4,0,0,0-4,4v6.9Z" fill="#fff"/><path d="M261.16,193.66v96a4,4,0,0,0,4,4H419.43a4,4,0,0,0,4-4v-96Z" fill="#0d0914"/><rect x="276.7" y="221.02" width="40.39" height="2.09" fill="#fff"/><rect x="276.7" y="226.25" width="34.33" height="2.09" fill="#fff"/><rect x="276.7" y="248.43" width="40.39" height="2.09" fill="#fff"/><rect x="276.7" y="253.66" width="34.33" height="2.09" fill="#fff"/><rect x="276.7" y="231.38" width="37.78" height="2.09" fill="#fff"/><rect x="276.7" y="236.49" width="25.42" height="2.09" fill="#fff"/><path d="M376.11,252.1,351.8,226.18l13.88,33.16L354.8,244.78l.53,11.64-21.52-18.57,16.22,31-22.09-4.78L352,276.05l34.08,3.71L414,264.64,402.28,266l6.37-26-14.33,18V227.72c0-1.54-7.69,30.27-7.69,30.27l-4-24.11Z" fill="#f2ebae" opacity="0.6"/><path d="M373,264.08l-9.05-35.31,1.23,35.31-7.6-19.3-.21,20.33-16-28.17,12.24,32.71-18.82-12.77,28.37,25.35,23-2.47,25.52-6.84-19.33-.82,7.81-15.63-8.63,7.81s-3.09-26.21-3.09-27.75S384.27,268,384.27,268l-1.85-21.11Z" fill="#f2ebae" opacity="0.6"/><path d="M378.91,263.1,375.27,234,371.1,263.1l-21.39-19.79,13.57,20.82L345.36,260l31,23.27,21.88-12.12,11.94-13.66-12.76,5.85s1.78-15.94,1.78-17.47-9,21.17-9,21.17l-4.29-27Z" fill="#fffad4" opacity="0.8"/><rect x="261.16" y="183.46" width="162.28" height="110.24" rx="4" stroke-width="3" stroke="#263135" stroke-linecap="round" stroke-linejoin="round" fill="none"/><line x1="261.16" y1="194.11" x2="423.43" y2="194.11" fill="none" stroke="#263135" stroke-linecap="round" stroke-linejoin="round" stroke-width="3"/><circle cx="267.46" cy="188.93" r="1.44" fill="#263135"/><circle cx="271.56" cy="188.93" r="1.44" fill="#263135"/><circle cx="275.62" cy="188.93" r="1.44" fill="#263135"/><polygon points="14.67 162.56 23.46 210.93 139.97 163.65 14.67 162.56" fill="#b7b7b7" stroke="#b7b7b7" stroke-linecap="round" stroke-linejoin="round" stroke-width="3" opacity="0.39"/><polygon points="18.28 156.33 27.08 204.7 143.58 157.42 18.28 156.33" fill="#2bbecb" stroke="#2bbecb" stroke-linecap="round" stroke-linejoin="round" stroke-width="2"/><path d="M110.76,165.12c-.3-1.25-1.83-2.37-1.94-3-.14-.82.41-1.24-.81-1.67-.63-.22-1.28.07-1.07.94a1.88,1.88,0,0,0,.66.95,29.25,29.25,0,0,1-2.13,3.94,1.1,1.1,0,0,0-1,1.38,1.69,1.69,0,0,0,.1.27,3,3,0,0,1-1.26,1.11c-.39.13-.61-.05-.7-.43-.26-1.07.36-3.63.93-5.74,1.94-.51,2.41-.85,2.36-1s-.79,0-2.14.21a3.4,3.4,0,0,0,.22-1.44c-.12-.47-.61-.67-1.3-.58-.52.07-1,.25-1,.51-.21.65-.26,1.14-.43,1.86-.43.06-.87.14-1.28.21a.46.46,0,0,0-.37.56.46.46,0,0,0,.56.33l.88-.13c-.26,1.48-.5,3-.58,4.14a.05.05,0,0,0,0,0c-.94,2-1.58,3.16-2.17,3.35a.36.36,0,0,1-.49-.3c-.2-.83.33-3,.58-5.29a.57.57,0,0,0,0-.26c-.15-.62-1.09-.8-1.81-.65l-.17,0a2,2,0,0,0-2.24-.94c-2.87.49-4.34,4.2-4.22,7.15-.8,1.67-1.92,3.71-4.16,4.45-1.92.63-3-.53-3.48-2.43-1-4,1-11.06,4.1-11.1.27,0,.3.34.37.66.26,1.19-.33,1.87-.69,3.42-.12.52,2.5.16,2.7-1.1.4-2.41-.89-3.21-2-3.5a4.33,4.33,0,0,0-1.55-.12c-4.53.41-6.72,7.37-5.53,12.27.71,2.89,2.51,4.73,5.52,3.65A8.6,8.6,0,0,0,90,171.93a.13.13,0,0,1,0,.06c.38,1.54,1.3,2.47,2.79,1.94a5.11,5.11,0,0,0,2.36-3,2.52,2.52,0,0,0,.06.35c.33,1.36,1.43,1.31,2.29,1,1.4-.49,2.36-2.07,2.92-3.29a1.55,1.55,0,0,0,0,.21c.28,1.16,1.25,1.29,2.27.93a5.29,5.29,0,0,0,2.24-1.72c.75.42,2.1,0,3-.31C110.14,167.48,111.08,166.43,110.76,165.12Zm-15.39,2.6c-.22,2.18-1,4.29-2.06,4.63-.33.11-.56-.2-.7-.77-.48-2,.19-6.76,2.12-7.13.69-.13.86.22.94.52Zm12.26.08c-.63.21-1,0-.92-.43.13-.69-.17-.92-.49-1l.1-.22a23.8,23.8,0,0,0,1.59-2.86c.27.76.59,1.6.69,2C109,166.92,108.49,167.5,107.63,167.8Z" fill="#fff"/><path d="M75.77,173.08a.76.76,0,0,0-.41.54,11.06,11.06,0,0,1-2,3.81c0-4,.44-8.17.3-8.81s-1-.83-1.7-.75c-.48.06-.9.31-.92.74,0,0-.09,1.2-.13,3.14-.2,3.19-.09,7.64-1.66,8.09-.41.12-.65-.2-.79-.83a37.28,37.28,0,0,1-.13-6.06,12.79,12.79,0,0,0,0-3c-.14-.64-1.09-1-1.83-1-.51.06-.89.32-.86.86.08,2.73-.18,5.7,0,8.21-.54,2.18-1.55,4.8-2.88,5.24-.78.26-1.21.1-1.53-1.21-.23-1-.47-3.51-.47-3.51,1.49-4,3.35-8.65,2.39-12.53-.46-1.89-.65-2.18-1.53-2.57a1.94,1.94,0,0,0-1.33-.52c-2.72.1-2.88,6.66-2.42,13,.1,1.45.24,2.87.45,4.16l0,.07A3.58,3.58,0,0,1,55.84,183a18,18,0,0,0-.15-7.3C55,173,53.45,170.93,51,171.24c-1.94.25-2.79,2-2.83,4.32a.91.91,0,0,0-.63.24s-.07,0-.14.17a1.81,1.81,0,0,0-.2.33,6.7,6.7,0,0,1-2.8,3c-.35-6,0-16.78-.16-17.5s-1.11-1-1.91-1-1.23.3-1.25.87c-.14,5,.33,18.66.33,18.66-.94.82-3.74.35-3.91-.91s-.18-16.78-.35-17.48a2.12,2.12,0,0,0-2-1.19A1.07,1.07,0,0,0,34,161.83c-.31,5,1.44,30.67,2,32.82a1.37,1.37,0,0,0,1.81,1,1.28,1.28,0,0,0,.8-1.4c-.18-1.4-.77-8.41-1-12.66a5.63,5.63,0,0,0,3.95.48c.22,2.85.92,9.24,1.15,10.17a1.34,1.34,0,0,0,1.71,1,1.12,1.12,0,0,0,.81-1.15L44.43,181a6.32,6.32,0,0,0,2.41-2.8,20.49,20.49,0,0,0,.56,6.38c.82,3.3,2.31,5.84,4.65,5,1.67-.58,3-2.95,3.55-5.57a4.93,4.93,0,0,0,2.93-2.52l.18.8c.7,2.84,1.69,3.85,3.57,3.18s3-3.13,3.62-5.55c.39,1.58,1,2.33,2.57,1.83.93-.29,2.33-2.27,2.58-3.27,0,0,.08.09-.06.81-.23,1.73-3.68,3.39-3.22,5.5.33,1.53,1.51,1.25,2.79.63s2.7-2.41,2.86-6.06A11.64,11.64,0,0,0,76,173.72a1.15,1.15,0,0,0,0-.44C76,173.11,75.88,173.06,75.77,173.08Zm-14.49-9a8.54,8.54,0,0,1,.39,1.23c.83,3.37.11,8.62-1.09,11.79C60.11,171.37,60.29,164.42,61.28,164ZM52.6,187.65a1.72,1.72,0,0,1-.43.16c-1,.31-1.55-1.15-2-3a19.15,19.15,0,0,1-.49-3.35,5.1,5.1,0,0,0,3.87,2.85C53.4,186,53.14,187.37,52.6,187.65Zm1-4.6c-1.63-.56-2.67-2.43-3.18-4.43-.74-3-.34-6,.7-6.09.74-.11,1.33,1.1,1.76,2.8A31.71,31.71,0,0,1,53.59,183.05ZM69.48,185c-.77.15-.72-.39-.37-1,.51-.89,1.6-2.16,2-2.85C71.25,182.82,70.72,184.73,69.48,185Z" fill="#fff"/><rect x="86.92" y="252.72" width="76.28" height="110.24" rx="4" transform="translate(-14.62 6.35) rotate(-2.75)" opacity="0.25" stroke="#263135" stroke-linecap="round" stroke-linejoin="round" stroke-width="3" fill="#263135"/><rect x="91.42" y="247.72" width="76.28" height="110.24" rx="4" transform="translate(-14.37 6.56) rotate(-2.75)" fill="#fff" stroke="#212010" stroke-miterlimit="10"/><rect x="91.42" y="247.72" width="76.28" height="110.24" rx="4" transform="translate(-14.37 6.56) rotate(-2.75)" stroke-width="3" stroke="#263135" stroke-linecap="round" stroke-linejoin="round" fill="none"/><rect x="97.26" y="254.82" width="64.1" height="87.04" fill="none" stroke="#263135" stroke-linecap="round" stroke-linejoin="round" transform="translate(-14.16 6.54) rotate(-2.75)"/><rect x="99.88" y="258.53" width="56.82" height="39.53" rx="4.33" transform="matrix(1, -0.05, 0.05, 1, -13.2, 6.47)" fill="#8cc63f"/><circle cx="131.77" cy="349.7" r="2.8" fill="none" stroke="#263135" stroke-linecap="round" stroke-linejoin="round" stroke-width="3"/><path d="M109.85,299l1.58-.08,1.21-.69s-.22.26-.52.65c11.43-.61,22.84-1.43,34.28-1.73l-.32-.33.58.32,2.23,0c-1.49-3.84-6.28-6.81-6.28-6.81l2.45.38c-1.82-3.26-5.27-3.67-7-3.66h0a4.85,4.85,0,0,0,.48-2.28l2.32.54c1.31-2.45-.65-6.49-.65-6.49l2.45.29a10.37,10.37,0,0,0-3.12-7.32l2.3-.1c-.48-1.64-4.65-4.33-4.65-4.33l1.83-.91c-2.29-2.08-5.69-1.28-5.69-1.28l1.67-1.73c-1.82-.78-5.78.51-5.78.51l-.33-2.48c-1.41.06-3.11,2.52-3.11,2.52s-4.06-.63-5.08.05l1.81,1.58s-3.46-.51-5.56,1.76l1.89.75s-3.92,3-4.26,4.71l2.29-.1a10.4,10.4,0,0,0-2.48,7.56l2.42-.49s-1.62,4.18-.11,6.52l2.27-.74a4.81,4.81,0,0,0,.71,2.3h0a10.56,10.56,0,0,0-6.8,4l2.69-.45S110.29,295.46,109.85,299Z" fill="#263135"/><path d="M117.62,325.76a3.94,3.94,0,0,0-2.56-1.43,5.21,5.21,0,0,0-1.4-.18h0a5.82,5.82,0,0,0-4.42.89,6.16,6.16,0,0,0-1.86,5.6,4.6,4.6,0,0,0,3.18,4.49,6.81,6.81,0,0,0,7.08-1.71A5.85,5.85,0,0,0,117.62,325.76Z" fill="#e2e252"/><path d="M110.56,332.17a3.78,3.78,0,0,0,5.21-.1c.24-.3-.18-.73-.42-.43a3.2,3.2,0,0,1-4.36.1c-.26-.29-.68.14-.43.43Z" fill="#212010"/><path d="M118.5,307.39a2.93,2.93,0,0,0-3.79-1.1c-1.63.7-2.1,2.1-2.66,3.56a4.39,4.39,0,0,0-1.51-1.93c-1.37-1-3.49-1.21-4.61.29a3.26,3.26,0,0,0,.79,4.43c1.57,1.36,3.35,2.29,4.83,3.8a2,2,0,0,0,2.76,0,24.82,24.82,0,0,0,3.2-4.61C118.19,310.55,119.25,308.84,118.5,307.39Z" fill="#e8254b"/><path d="M136,306a2.93,2.93,0,0,0-3.79-1.1c-1.63.7-2.1,2.1-2.66,3.56a4.25,4.25,0,0,0-1.51-1.93c-1.37-1-3.48-1.21-4.61.3a3.26,3.26,0,0,0,.8,4.42c1.57,1.36,3.35,2.29,4.82,3.8a2,2,0,0,0,2.76,0,25.35,25.35,0,0,0,3.21-4.61C135.71,309.21,136.78,307.49,136,306Z" fill="#9542c1"/><path d="M154.18,305.21a2.94,2.94,0,0,0-3.8-1.1c-1.62.7-2.09,2.1-2.65,3.56a4.39,4.39,0,0,0-1.51-1.93c-1.37-1-3.49-1.21-4.61.29a3.26,3.26,0,0,0,.79,4.43c1.57,1.36,3.35,2.29,4.83,3.8a2,2,0,0,0,2.76,0,24.82,24.82,0,0,0,3.2-4.61C153.87,308.37,154.93,306.66,154.18,305.21Z" fill="#58bf43"/><path d="M152.82,263a3.09,3.09,0,0,0-3.85-1.14,5.7,5.7,0,0,0-2.73,2.71,4.14,4.14,0,0,0-1-2.08c-1.05-1.21-2.92-1.94-4.37-.94a3.15,3.15,0,0,0-.75,4.23,11.75,11.75,0,0,0,1.84,2,21,21,0,0,1,2.4,3.08,2,2,0,0,0,2.66.7,24.78,24.78,0,0,0,4.19-3.93C152.27,266.34,153.8,264.68,152.82,263Z" fill="#e8254b"/><path d="M114.78,328.48a.6.6,0,0,0,0-1.2.6.6,0,0,0,0,1.2Z" fill="#212010"/><path d="M110.91,328.86a.6.6,0,0,0,0-1.2.6.6,0,0,0,0,1.2Z" fill="#212010"/><path d="M135.77,324.49a3.91,3.91,0,0,0-2.56-1.43,4.93,4.93,0,0,0-1.4-.19h-.05a5.74,5.74,0,0,0-4.41.88,6.17,6.17,0,0,0-1.86,5.61,4.58,4.58,0,0,0,3.18,4.48,6.78,6.78,0,0,0,7.08-1.7A5.85,5.85,0,0,0,135.77,324.49Z" fill="#e2e252"/><path d="M128.71,330.89a3.77,3.77,0,0,0,5.21-.1c.24-.29-.18-.72-.43-.42a3.18,3.18,0,0,1-4.35.1c-.26-.29-.68.13-.43.42Z" fill="#212010"/><path d="M130,325.46a.61.61,0,0,0-.61,0,1.74,1.74,0,0,0-.58.65c-.51-.43-1.26-.74-1.66-.15-.52.77.56,1.5,1,1.94.29.26.43.63.86.66s.63-.35.81-.71C130.14,327.25,130.84,325.93,130,325.46Z" fill="#e8254b"/><path d="M134.2,325.2a.59.59,0,0,0-.6,0,1.7,1.7,0,0,0-.59.63c-.5-.43-1.25-.74-1.66-.15-.53.76.54,1.5,1,1.94.28.26.41.64.84.67s.64-.35.82-.7C134.34,327,135.05,325.68,134.2,325.2Z" fill="#e8254b"/><path d="M114.6,284.75a4,4,0,0,0-3-.89,5.14,5.14,0,0,0-1.58.19,5.18,5.18,0,0,0-4.33,7.89,4.5,4.5,0,0,0,3.68,3.44,6.81,6.81,0,0,0,6.84-3.2A5.83,5.83,0,0,0,114.6,284.75Z" fill="#e2e252"/><path d="M109.22,292.59a3.78,3.78,0,0,0,5-1.44c.15-.35-.37-.66-.52-.31a3.21,3.21,0,0,1-4.19,1.23c-.32-.21-.62.31-.3.52Z" fill="#212010"/><path d="M109.06,287a.59.59,0,0,0-.58.15,1.73,1.73,0,0,0-.4.77c-.6-.28-1.4-.4-1.65.28-.31.87.91,1.31,1.48,1.61.34.19.58.52,1,.44s.52-.51.61-.9C109.66,288.71,110,287.26,109.06,287Z" fill="#e8254b"/><path d="M113.05,285.67a.59.59,0,0,0-.58.15,1.75,1.75,0,0,0-.41.77c-.59-.29-1.4-.4-1.64.28-.32.87.91,1.31,1.48,1.61.34.18.58.51,1,.43s.52-.5.61-.89C113.65,287.36,114,285.91,113.05,285.67Z" fill="#e8254b"/><path d="M153.79,324a4,4,0,0,0-2.56-1.43,5.34,5.34,0,0,0-1.41-.18h0c-1.54-.14-3.16-.15-4.41.89a6.14,6.14,0,0,0-1.87,5.6,4.61,4.61,0,0,0,3.19,4.49,6.81,6.81,0,0,0,7.08-1.7A5.88,5.88,0,0,0,153.79,324Z" fill="#e2e252"/><path d="M150.3,329.86l0,0a.57.57,0,0,0-.16-.11l0,0a.39.39,0,0,0-.14,0h0a1,1,0,0,0-.18,0,.24.24,0,0,0-.15,0,.86.86,0,0,0-.42,0,1,1,0,0,0-.41,1.53s0,.05,0,.08a.64.64,0,0,0,.78.47.58.58,0,0,0,.14,0,1.25,1.25,0,0,0,.91-.69A1,1,0,0,0,150.3,329.86Z" fill="#212010"/><path d="M147,326.88a.41.41,0,0,0-.4.2.31.31,0,0,0-.52.21c0,1.55-.06,3.11.06,4.66.07,1,.17,1.21,1.13,1.48a.31.31,0,0,0,.38-.29C147.71,332.29,148.21,327,147,326.88Z" fill="#6ec1ea"/><path d="M152.73,326.73a.32.32,0,0,0-.54-.2.44.44,0,0,0-.39-.16c-1.18.12-.26,5.41-.17,6.27a.31.31,0,0,0,.38.29c.93-.34,1-.56,1-1.55C153,329.83,152.88,328.28,152.73,326.73Z" fill="#6ec1ea"/><path d="M145.23,327.22a14.12,14.12,0,0,0,3.11-.35c.38-.08.22-.66-.15-.58a13.36,13.36,0,0,1-3,.33c-.38,0-.38.59,0,.6Z" fill="#212010"/><path d="M150.24,326.88a15,15,0,0,0,2.77-.4.3.3,0,0,0-.16-.58,14.16,14.16,0,0,1-2.61.38c-.38,0-.38.64,0,.6Z" fill="#212010"/></svg>