<svg xmlns="http://www.w3.org/2000/svg" viewBox="0 0 430 600"><title>intro-bg</title><path d="M296.52,0a479,479,0,0,0-53.77,50.74C195.42,103,158.66,166.4,133.48,239.16c-31.33,90.52-44.69,195.89-39.71,313.18l21-.89c-4.85-114.26,8-216.73,38.27-304.55,24.1-70,59.24-130.91,104.44-181.07A443.57,443.57,0,0,1,331.36.07Q313.95,0,296.52,0Z" fill="#ee33a7"/><path d="M317.2.05a477.54,477.54,0,0,0-53,50.15c-47.34,52.24-84.1,115.62-109.28,188.39-31.33,90.52-45.69,195.89-40.71,313.18l22-.9c-4.85-114.25,8-216.72,38.27-304.54,24.1-70,59.24-130.92,104.44-181.08A444.38,444.38,0,0,1,351.92.1Z" fill="#fbb03b"/><path d="M338.5.08a477.69,477.69,0,0,0-53,50.12c-47.34,52.24-84.1,115.62-109.28,188.39C144.9,329.11,131,434.48,136,551.77l21.48-.9c-4.85-114.25,8-216.72,38.27-304.54,24.1-70,59.24-130.92,104.44-181.08A444,444,0,0,1,373.26.1Q355.88.12,338.5.08Z" fill="#fcee21"/><path d="M359.71.1a477.29,477.29,0,0,0-53,50.1c-47.33,52.24-84.1,115.62-109.28,188.39-31.32,90.52-45.18,195.89-40.21,313.18l21.48-.9c-4.84-114.25,8-216.72,38.28-304.54,24.1-70,59.24-130.92,104.43-181.08A444.48,444.48,0,0,1,394.56.06Q377.13.11,359.71.1Z" fill="#8cc63f"/><path d="M381.24.1a478.19,478.19,0,0,0-53,50.1C280.94,102.44,244.17,165.82,219,238.59c-31.32,90.52-45.18,195.89-40.21,313.18l21-.9c-4.84-114.25,8.53-216.72,38.78-304.54,24.1-70,54.74-130.92,99.93-181.08,25-27.69,45.3-49,68.19-65.25C404.12,0,390.34.09,381.24.1Z" fill="#12acef"/><path d="M99.53,541.24c-4.06-3.46-8.23-7-13.22-8.9s-11-2-15.28,1.28-5.63,10.21-1.91,14c-3.67.5-7.43,1-10.68,2.82s-5.91,5.11-5.81,8.81,3,6.89,6.32,8.48,7.15,1.9,10.84,2.19c-.76,3.73-1.85,7.48-1.48,11.27A15.24,15.24,0,0,0,82.16,594.5a15.24,15.24,0,0,0,15.23-11.65c3.1,5.2,8.45,9.54,14.51,9.55s12-5.76,10.68-11.67c5.45,5.49,14.68,6.1,21.52,2.49,4.1-2.16,7.62-6,8.24-10.54s-2.5-9.73-7.1-10.26c7.2-6,9.55-17.74,4-25.31s-18.94-8.05-24-.13c-.46-6.11-1.66-13.36-7.24-15.91-4.88-2.23-10.88.69-13.89,5.14s-3.78,10-4.46,15.31" fill="#fff" stroke="#263135" stroke-linecap="round" stroke-linejoin="round" stroke-width="3"/><path d="M191.18,543.82a19.35,19.35,0,0,1,4.86-3.91c6.71-3.94,15.94-4.64,21.88.38s5.69,16.38-1.44,19.49c4.65.78,9.31,2.37,12.83,5.51S235,573.36,234,578c-1.58,6.9-9.76,10.55-16.78,9.59s-13-5.25-18.76-9.42c-2.38,6.58-7.9,12.63-14.89,13.15S169.43,584.49,172,578c-6.28,1-12.69,2-19,1.11s-12.59-4.13-15.66-9.71a15.56,15.56,0,0,1,19.58-21.87c-1.21-5.5-.76-11.53,2.14-16.36s8.5-8.18,14.1-7.55,10.58,5.79,10.21,11.41a8.91,8.91,0,0,1,8-4.11c5.43.36,1.34,10.24-.21,12.93" fill="#fff" stroke="#263135" stroke-linecap="round" stroke-linejoin="round" stroke-width="3"/></svg>