<svg xmlns="http://www.w3.org/2000/svg" viewBox="0 0 431.57 350"><title>intro-fg</title><path d="M82.08,197.75a15,15,0,0,0-3.84-3.08C73,191.55,65.66,191,61,195s-4.5,12.92,1.14,15.38A20,20,0,0,0,52,214.7c-2.78,2.48-4.5,6.37-3.67,10,1.25,5.45,7.71,8.33,13.25,7.58s10.29-4.15,14.81-7.44c1.88,5.19,6.24,10,11.75,10.38s11.13-5.36,9.1-10.51c5,.81,10,1.61,15,.88s9.94-3.26,12.36-7.67a12.27,12.27,0,0,0-15.45-17.26,17.86,17.86,0,0,0-1.69-12.92c-2.3-3.81-6.72-6.46-11.14-6s-8.35,4.57-8.05,9a7,7,0,0,0-6.33-3.24c-4.28.28-1.06,8.08.17,10.2" fill="#263135" stroke="#263135" stroke-linecap="round" stroke-linejoin="round" stroke-width="3" opacity="0.15"/><path d="M263.7,24.65A30.18,30.18,0,0,0,257,17.81c-2.7-1.76-6.19-2.61-9.17-1.41s-5,4.85-3.73,7.8c-5.26-.58-18.94,5.05-12.91,12.33a16.82,16.82,0,0,0,14.72,3.59c-.56,4.26-.68,8.9,1.64,12.53A10.48,10.48,0,0,0,266.63,49a19.23,19.23,0,0,0,10.09,5.36c3.83.56,8.08-.79,10.28-4s1.62-8.2-1.66-10.25c7.12-.71,14.8-3.72,17.73-10.25,1.61-3,.18-7.07-2.63-8a21.08,21.08,0,0,0-15.89-.78c1.05-5.74-5.56-10.92-11.24-9.56s-9.28,7.55-9,13.38" fill="#263135" stroke="#263135" stroke-linecap="round" stroke-linejoin="round" stroke-width="3" opacity="0.15"/><path d="M357.35,153.47c-3.47-3-7-6-11.29-7.6s-9.41-1.66-13,1.09-4.81,8.71-1.64,12c-3.13.42-6.34.88-9.11,2.4s-5,4.36-5,7.52,2.53,5.89,5.39,7.25,6.1,1.62,9.26,1.86c-.65,3.19-1.58,6.39-1.26,9.63A12.58,12.58,0,0,0,355.52,189c2.65,4.44,7.21,8.15,12.39,8.15s10.27-4.92,9.12-10c4.65,4.69,12.53,5.2,18.37,2.12,3.5-1.84,6.51-5.07,7-9s-2.13-8.31-6.06-8.77c6.15-5.16,8.16-15.14,3.39-21.6s-16.16-6.87-20.5-.11c-.39-5.22-1.41-11.41-6.17-13.58-4.18-1.91-9.29.58-11.87,4.38s-3.22,8.53-3.81,13.08" fill="#263135" stroke="#263135" stroke-linecap="round" stroke-linejoin="round" stroke-width="3" opacity="0.15"/><rect x="149.09" y="250.76" width="134.62" height="92.9" rx="4" stroke-width="3" stroke="#263135" stroke-linecap="round" stroke-linejoin="round" fill="#dcebef"/><circle cx="215.36" cy="300.16" r="6.95" fill="#fff"/><path d="M360.83,148.27c-3.47-3-7-6-11.28-7.6s-9.42-1.66-13.05,1.09-4.81,8.71-1.63,12c-3.13.43-6.35.89-9.12,2.41s-5.05,4.36-5,7.52,2.53,5.89,5.4,7.24,6.1,1.63,9.26,1.87c-.65,3.19-1.59,6.39-1.27,9.62A12.58,12.58,0,0,0,359,183.79c2.64,4.44,7.21,8.15,12.38,8.15s10.27-4.92,9.12-10c4.65,4.69,12.53,5.2,18.37,2.12,3.5-1.84,6.51-5.07,7-9s-2.14-8.31-6.07-8.77c6.15-5.16,8.16-15.14,3.39-21.6s-16.16-6.87-20.5-.11c-.38-5.22-1.41-11.41-6.17-13.58-4.17-1.91-9.29.58-11.86,4.38s-3.23,8.53-3.81,13.08" fill="#fff" stroke="#263135" stroke-linecap="round" stroke-linejoin="round" stroke-width="3"/><path d="M266.55,19.69a30.18,30.18,0,0,0-6.74-6.84c-2.7-1.76-6.19-2.61-9.17-1.41s-5,4.85-3.73,7.8C241.66,18.66,228,24.29,234,31.57a16.83,16.83,0,0,0,14.72,3.59c-.56,4.26-.68,8.9,1.64,12.53a10.48,10.48,0,0,0,19.12-3.63c2.84,2.63,6.26,4.8,10.09,5.35s8.08-.79,10.28-4,1.62-8.2-1.66-10.25c7.12-.71,14.8-3.72,17.73-10.25,1.61-3.05.18-7.07-2.63-8a21,21,0,0,0-15.89-.79c1.05-5.74-5.56-10.92-11.24-9.56s-9.28,7.55-9,13.38" fill="#fff" stroke="#263135" stroke-linecap="round" stroke-linejoin="round" stroke-width="3"/><path d="M85.08,193.75a15,15,0,0,0-3.84-3.08C76,187.55,68.66,187,64,191s-4.5,12.92,1.14,15.38A20,20,0,0,0,55,210.7c-2.78,2.48-4.5,6.37-3.67,10,1.25,5.45,7.71,8.33,13.25,7.58s10.29-4.15,14.81-7.44c1.88,5.19,6.24,10,11.75,10.38s11.13-5.36,9.1-10.51c5,.81,10,1.61,15,.88s9.94-3.26,12.36-7.67a12.27,12.27,0,0,0-15.45-17.26,17.86,17.86,0,0,0-1.69-12.92c-2.3-3.81-6.72-6.46-11.14-6s-8.35,4.57-8.05,9a7,7,0,0,0-6.33-3.24c-4.28.28-1.06,8.08.17,10.2" fill="#fff" stroke="#263135" stroke-linecap="round" stroke-linejoin="round" stroke-width="3"/><path d="M90.07,132.1a1.42,1.42,0,0,1-1.4-1.14L86.4,120l-11-2.27a1.43,1.43,0,0,1,0-2.8l11-2.27,2.27-11a1.43,1.43,0,0,1,1.4-1.13h0a1.41,1.41,0,0,1,1.39,1.13l2.28,11,11,2.27a1.43,1.43,0,0,1,0,2.8l-11,2.27-2.28,11A1.41,1.41,0,0,1,90.07,132.1Z" fill="#fcee21"/><path d="M90.07,101.92l2.46,11.91,11.91,2.47-11.91,2.46-2.46,11.92L87.6,118.76,75.69,116.3l11.91-2.47,2.47-11.91m0-2.85a2.86,2.86,0,0,0-2.8,2.27l-2.08,10.08L75.11,113.5a2.86,2.86,0,0,0,0,5.59l10.08,2.09,2.08,10.07a2.85,2.85,0,0,0,5.59,0L95,121.18,105,119.09a2.85,2.85,0,0,0,0-5.59L95,111.42l-2.09-10.08a2.85,2.85,0,0,0-2.79-2.27Z" fill="#fbb03b"/><path d="M339.53,270.72a1.42,1.42,0,0,1-1.4-1.14l-2.27-11-11-2.28a1.42,1.42,0,0,1,0-2.79l11-2.28,2.27-11a1.43,1.43,0,0,1,2.8,0l2.27,11,11,2.28a1.43,1.43,0,0,1,0,2.79l-11,2.28-2.27,11a1.42,1.42,0,0,1-1.4,1.14Z" fill="#fcee21"/><path d="M339.53,240.54,342,252.45l11.91,2.47L342,257.38l-2.47,11.91-2.46-11.91-11.91-2.46,11.91-2.47,2.46-11.91m0-2.85a2.85,2.85,0,0,0-2.79,2.27L334.65,250l-10.07,2.08a2.85,2.85,0,0,0,0,5.59l10.07,2.09,2.09,10.07a2.85,2.85,0,0,0,5.59,0l2.08-10.07,10.08-2.09a2.86,2.86,0,0,0,0-5.59L344.41,250,342.33,240a2.87,2.87,0,0,0-2.8-2.27Z" fill="#fbb03b"/></svg>