<svg xmlns="http://www.w3.org/2000/svg" viewBox="0 0 430 440"><title>money-fg</title><path d="M136,71.81a98.54,98.54,0,0,1,14.82-13.25,40.72,40.72,0,0,1,18.29-7.34c5.39-.61,10.84.19,16.26-.07a41.51,41.51,0,0,0,19.2-5.79,20,20,0,0,1-23.83,17.85,18.14,18.14,0,0,0,7.46,8.25,14.71,14.71,0,0,1-13.84,0c-3.18-1.74-5.8-4.72-9.38-5.36A27.49,27.49,0,0,0,167.62,72c-4.62,1.25-9.26-1.45-13.88-2.73a23.84,23.84,0,0,0-18,2.29" fill="#fff" stroke="#263135" stroke-linecap="round" stroke-linejoin="round" stroke-width="3"/><path d="M138.25,74.77a87.85,87.85,0,0,0,4.35-14.84,29.16,29.16,0,0,0-1.1-15.26c-2.52-6.51-8.06-11.44-14.11-14.92S114.68,24,108.3,21.22c-3.45-1.52-7-3.35-9.07-6.49a33.94,33.94,0,0,0,22.35,26.82,23.16,23.16,0,0,1-10.24,1.72A23.59,23.59,0,0,0,126.9,51l-4.62,3c2.51,3.92,8,4.77,11.17,8.2s3.28,8.9,3.11,13.71" fill="#fff" stroke="#263135" stroke-linecap="round" stroke-linejoin="round" stroke-width="3"/><path d="M87.77,391.14c-.57-3.08-2-5.92-3-8.87a39.48,39.48,0,0,1-.47-25,25.08,25.08,0,0,1,3.63-7.46c1.29-1.73,2.86-3.21,4.29-4.81,4.31-4.8,7.36-10.57,10.34-16.28.31,4.7.61,9.4.53,14.11-.08,4.33-.6,9-3.45,12.24a17.57,17.57,0,0,0,8.51-5.42,2.32,2.32,0,0,1,.28,2,41.09,41.09,0,0,1-5.27,14c3,.11,5.93.14,8.9.11-1.33,3.57-4.07,6.42-7,8.85s-6.12,4.55-8.8,7.25A13,13,0,0,0,93.31,386c-1.12,2.71-.75,5.82-1.52,8.65" fill="#fff" stroke="#263135" stroke-linecap="round" stroke-linejoin="round" stroke-width="3"/><path d="M88.6,395c.53-4.14-27.72-40.07-45.14-30.28-3.35,1.65-5.78,4.73-7.71,7.93-4.45,7.37-7,16-12.64,22.46a26.41,26.41,0,0,0,20.13-11.27,20.23,20.23,0,0,1-2.52,13c4.23,1.14,8.84-.39,12.3-3.08s6-6.41,8.2-10.17a22.67,22.67,0,0,1-.93,11.46c4.13,0,6.73-4.42,10.41-6.29,3.07-1.55,6.83-1.2,10,.14a35.78,35.78,0,0,1,8.53,5.74" fill="#fff" stroke="#263135" stroke-linecap="round" stroke-linejoin="round" stroke-width="3"/><path d="M149.49,365.45c11.79-7.89,19.52-21.83,32.94-26.46,7.31-2.52,15.65-2,22.34-5.83a23.79,23.79,0,0,1-21.67,16.61,9.9,9.9,0,0,0,7.07,2.45c.65,0,1.5,0,1.73.58s-.36,1.15-.9,1.48c-4.8,3-10.77,3.07-16.42,3.09a15.46,15.46,0,0,0,6.82,5.83,73.85,73.85,0,0,1-14.17-.74,29.12,29.12,0,0,0-6.83-.58c-3.9.34-7.37,2.51-10.67,4.61" fill="#fff" stroke="#263135" stroke-linecap="round" stroke-linejoin="round" stroke-width="3"/><path d="M151,369.75c.5-7.35,4.22-14,7.26-20.74s5.47-14.32,3.3-21.37c-1.62-5.25-5.6-9.43-9.9-12.86s-9-6.33-13-10.14a18.67,18.67,0,0,0,5.64,22.6,12.47,12.47,0,0,1-8.72-1.2,20.61,20.61,0,0,0,7.86,12l-7.88.21c1.58,3.9,4.81,6.85,7.34,10.21a32.81,32.81,0,0,1,6.48,21.29" fill="#fff" stroke="#263135" stroke-linecap="round" stroke-linejoin="round" stroke-width="3"/><path d="M361.13,361.42,385,351.32a50.47,50.47,0,0,1,8.89-3.13c3.67-.81,7.73-.73,10.92,1.26,2.91,1.81,4.7,4.94,6.3,8a248.27,248.27,0,0,1,14,31.6c-2.74.39-5.34-1.28-7.45-3.07a43.36,43.36,0,0,1-9.17-10.76c-.5-.82-1.24-1.78-2.16-1.54-.66.17-1,.88-1.24,1.51a62.6,62.6,0,0,0-3.59,13.72,53.14,53.14,0,0,1-13-18.07c-2.08,2-3.14,4.75-4.72,7.13s-4.17,4.56-7,4.13c-.54-2.07-.16-4.26-.28-6.4a14,14,0,0,0-16.63-13" fill="#fff" stroke="#263135" stroke-linecap="round" stroke-linejoin="round" stroke-width="3"/><path d="M340,344.68a36.49,36.49,0,0,1-3.75-14.21c-.33-6.08.87-12.17.5-18.25a11.59,11.59,0,0,0-.73-3.79,10.3,10.3,0,0,0-4-4.38,26.29,26.29,0,0,0-14.65-3.8,69,69,0,0,0-15.15,2.31c-4.17,1-8.43,2.09-12,4.54-.24.16-.5.37-.51.66a1,1,0,0,0,.22.54,26.46,26.46,0,0,0,24.33,11.34c-1.73,5.89-7.42,9.51-12,13.58a1.65,1.65,0,0,0-.69,1.06,1.47,1.47,0,0,0,.27.79c1.9,3.22,6.06,4.56,9.78,4.09s7-2.45,10.14-4.56a16.86,16.86,0,0,1-3.46,9.86c-.64.83-1.27,2.2-.36,2.72a1.77,1.77,0,0,0,1.28,0c2.64-.75,5.12-2,7.78-2.69a19.59,19.59,0,0,1,14,1.64" fill="#fff" stroke="#263135" stroke-linecap="round" stroke-linejoin="round" stroke-width="3"/><path d="M321.77,62.56c2.11-2.9,9.21-14.9,12.3-16.73,3.82-2.26,8.16-3.53,12-5.81a8.66,8.66,0,0,0,2.19-1.75,7.42,7.42,0,0,0,1.47-4.09,19.11,19.11,0,0,0-2.47-10.73,49.88,49.88,0,0,0-6.58-9c-2-2.36-4.19-4.74-6.95-6.2a.53.53,0,0,0-.88.22A19.28,19.28,0,0,0,333.67,28c-4.38.87-8.63-1.59-12.81-3.19a1.21,1.21,0,0,0-.91-.09,1.18,1.18,0,0,0-.42.44c-1.44,2.31-.91,5.45.65,7.69a17.4,17.4,0,0,0,6.35,5A12.31,12.31,0,0,1,319,38.93c-.75-.14-1.85-.09-1.88.68a1.22,1.22,0,0,0,.44.82c1.36,1.46,3,2.64,4.34,4.12,2.34,2.59-2.36,16.57-2.39,20.06" fill="#fff" stroke="#263135" stroke-linecap="round" stroke-linejoin="round" stroke-width="3"/><path d="M360.78,192.59a13.37,13.37,0,0,0,1.49-6.19A76,76,0,0,0,361,167.18a8.9,8.9,0,0,1-.25-3.2c.38-2.2,2.39-3.68,4.24-4.92,8.48-5.69,17-11.26,25.95-16.27.47,4,1,6.17.37,10.17s-8.06,9.38-11.08,12.07c2,0,9.47.52,11.48.54.63,0,1.41.1,1.63.69s-.23,1.11-.63,1.53c-1.64,1.71-3.34,3.37-5.08,5a22.18,22.18,0,0,1-5.44,4,24.36,24.36,0,0,1-6.43,1.67c3.69,2.62,8.48,2.92,13,3.12a16.63,16.63,0,0,1-9.71,6.43c-2.69.6-5.5.52-8.19,1.16a15.77,15.77,0,0,0-8.8,5.76" fill="#fff" stroke="#263135" stroke-linecap="round" stroke-linejoin="round" stroke-width="3"/><path d="M337.33,210.82l-18.77-7.93a40.37,40.37,0,0,0-7-2.46c-2.88-.63-6.07-.57-8.58,1-2.28,1.43-3.68,3.88-4.94,6.26a195.38,195.38,0,0,0-11,24.8c2.15.3,4.19-1,5.85-2.41a34.1,34.1,0,0,0,7.2-8.45c.39-.64,1-1.39,1.7-1.2.51.13.78.68,1,1.18a49.51,49.51,0,0,1,2.81,10.77,41.53,41.53,0,0,0,10.21-14.18c1.63,1.54,2.47,3.72,3.71,5.6s3.27,3.57,5.48,3.23c.42-1.62.13-3.34.22-5a11,11,0,0,1,13.05-10.17" fill="#fff" stroke="#263135" stroke-linecap="round" stroke-linejoin="round" stroke-width="3"/><path d="M315,66.63c1.77.08,3.32-1.14,4.52-2.43,6.42-6.89,8.13-17.63,15.7-23.23,5.29-3.91,12.27-4.4,18.83-4.76l10.44-.56c-.62,4.79-5.26,7.94-9.69,9.83a53.71,53.71,0,0,1-11.49,3.44,11.59,11.59,0,0,0,10.07,3.33,22.73,22.73,0,0,1-16.64,6.68,15.22,15.22,0,0,0,5.63,3.25A5.39,5.39,0,0,1,338,64.31a26.66,26.66,0,0,1-5-.59,25.52,25.52,0,0,0-17.28,3.75" fill="#fff" stroke="#263135" stroke-linecap="round" stroke-linejoin="round" stroke-width="3"/><path d="M93.71,171.76a22.12,22.12,0,0,0,6.12.39c3.69-.46,6.89-2.76,9.57-5.33s5-5.5,8-7.72A22.29,22.29,0,0,1,127,155c4.79-.82,10.52.47,12.72,4.8,1.42,2.79,1,6.15.19,9.16a34.61,34.61,0,0,1-11.59,17.54l.31-4.5a10.74,10.74,0,0,0-.23-4,3.67,3.67,0,0,0-2.75-2.65c-2,4.15-4.67,8.77-9.2,9.68l-.3-6.46c-3.28,2.75-7.39,5.18-11.62,4.48-5-.83-8.28-5.68-10.1-10.41" fill="#fff" stroke="#263135" stroke-linecap="round" stroke-linejoin="round" stroke-width="3"/><path d="M64.3,174.24a30.37,30.37,0,0,1-7.64-9.55c-2.3-4.52-3.43-9.57-5.76-14.07A9.48,9.48,0,0,0,49.07,148a8.49,8.49,0,0,0-4.56-2,22,22,0,0,0-12.43,2,57.81,57.81,0,0,0-10.76,6.85c-2.84,2.16-5.71,4.44-7.58,7.48a.82.82,0,0,0-.16.68.86.86,0,0,0,.34.34,22,22,0,0,0,22.35.44c.66,5.07-2.45,9.74-4.58,14.39a1.31,1.31,0,0,0-.16,1,1.13,1.13,0,0,0,.46.51c2.53,1.82,6.16,1.44,8.82-.17s4.55-4.24,6.2-6.89a14.08,14.08,0,0,1,.68,8.67c-.21.85-.23,2.11.64,2.2a1.41,1.41,0,0,0,1-.44c1.76-1.45,3.23-3.24,5-4.66A16.3,16.3,0,0,1,65.51,175" fill="#fff" stroke="#263135" stroke-linecap="round" stroke-linejoin="round" stroke-width="3"/><path d="M81.51,143.58c-10.2,9.95-16.17,23.83-17.58,38s1.58,28.61,7.42,41.61a3.37,3.37,0,0,0,1.57,1.94,3.44,3.44,0,0,0,2.35-.22l27.62-9.52a2.65,2.65,0,0,0,1.48-.93c.48-.77,0-1.76-.36-2.56a80.78,80.78,0,0,1-3.84-64.23L82.81,142.9" fill="#8cc63f" stroke="#263135" stroke-linecap="round" stroke-linejoin="round" stroke-width="3"/><path d="M103.92,47.09c-2.39,9.12-8.21,21.21-11.75,30,12.26,11.18,29.37,15.69,42.07,26.37,8.19,6.89,14.29,16.15,23.09,22.26l11.78-25.37c2.45-5.28,4.73-12,.94-16.43-1.89-2.19-4.81-3.12-7.56-4a174.4,174.4,0,0,1-58.57-32.76" fill="#8cc63f" stroke="#263135" stroke-linecap="round" stroke-linejoin="round" stroke-width="3"/><path d="M292.4,40.29a232.38,232.38,0,0,1,17.73,84q12.09-6.12,24.15-12.29c2.5-1.28,5.35-3.07,5.44-5.88a8.12,8.12,0,0,0-1.08-3.67c-10.69-22.63-16-48.67-33.3-66.79a23.56,23.56,0,0,1-13,3.37" fill="#8cc63f" stroke="#263135" stroke-linecap="round" stroke-linejoin="round" stroke-width="3"/><path d="M361,299c-10.5,36.75-37.43,66.17-63.51,94.12a150.54,150.54,0,0,0,36.81,25c1.05.51,2.35,1,3.32.35a3.5,3.5,0,0,0,1.09-1.52l40.42-86.49c1.39-3,2.78-6.42,1.39-9.39-1-2.21-3.33-3.47-5.33-4.87-6.56-4.61-10.36-8.59-14.19-17.24" fill="#8cc63f" stroke="#263135" stroke-linecap="round" stroke-linejoin="round" stroke-width="3"/><path d="M314.66,117.4l-.26,0c-1-.12-2.09-1-2-3a3.31,3.31,0,0,1-.15-1,5.35,5.35,0,0,1,.78-2.71,2.37,2.37,0,0,1,1.89-1.41,2.08,2.08,0,0,1,1.62.59,2.5,2.5,0,0,1,1.11.62c.59.57,1.41,1.88.21,4.3a3.66,3.66,0,0,1-.95,1.17l-.17.24A2.61,2.61,0,0,1,314.66,117.4Z" fill="#618c1c"/><path d="M329.19,106.17A108.37,108.37,0,0,1,317.32,112c-.53.22-1.15.54-1.22,1.11" fill="none" stroke="#618c1c" stroke-linecap="round" stroke-linejoin="round" stroke-width="3"/><path d="M331.21,109.29A2.47,2.47,0,0,1,330,109a3.14,3.14,0,0,1-1.47-2.5,9.82,9.82,0,0,1,.81-5.34,2.9,2.9,0,0,1,1.52-1.5,2,2,0,0,1,1.54.09,2.27,2.27,0,0,1,.78.64,5.55,5.55,0,0,1,1,5,7.55,7.55,0,0,1-.7,2.84A2.83,2.83,0,0,1,331.21,109.29Z" fill="#618c1c"/><path d="M299.39,43.53c.3-.2,4.4-2.66,4.76-2.73a.92.92,0,0,1,1,.36" fill="none" stroke="#618c1c" stroke-linecap="round" stroke-linejoin="round" stroke-width="3"/><path d="M299,46.63a1.5,1.5,0,0,1-1.22-.63,1.93,1.93,0,0,1-1.38-1.24,2,2,0,0,1,.53-2.21,2,2,0,0,1,1.61-.5,2.26,2.26,0,0,1,1.6.9,2.8,2.8,0,0,1,.39,2.4,1.66,1.66,0,0,1-.12.31,1.57,1.57,0,0,1-.54.69A1.5,1.5,0,0,1,299,46.63Z" fill="#618c1c"/><path d="M299.69,45.33c8.16,20.86,12.41,42.85,14.55,65.15" fill="none" stroke="#618c1c" stroke-linecap="round" stroke-linejoin="round" stroke-width="3"/><path d="M304.56,42.31c.37-.3.87.15,1.12.55C316,59.18,322,77.78,328,96.16l1.62,5" fill="none" stroke="#618c1c" stroke-linecap="round" stroke-linejoin="round" stroke-width="3"/><path d="M312.3,80.81a4.11,4.11,0,0,1-1.94-.47c-.29-.16-3.35-4-3.3-6a8.62,8.62,0,0,1,1.45-4.59,7.51,7.51,0,0,1,1.73-1.86,6.44,6.44,0,0,1,3.06-2.23,5,5,0,0,1,5.16,1.22c.36.39,2,7.14,1.8,8.08-.49,2.05-2.14,3.74-4.9,5A7.46,7.46,0,0,1,312.3,80.81Z" fill="#618c1c"/><path d="M359.39,320.32a1.5,1.5,0,0,1-1.5-1.41,9.52,9.52,0,0,1,.06-1.85l-.08-.21a3.14,3.14,0,0,1,.59-3,2.89,2.89,0,0,1,.8-.64,9.09,9.09,0,0,1,1-1.45,1.52,1.52,0,0,1,1.23-.52,1.48,1.48,0,0,1,1.15.67l.12.18a1.5,1.5,0,0,1,.27.29,5.29,5.29,0,0,1,1,2.85,3.65,3.65,0,0,1-1.67,4,1.4,1.4,0,0,1-.65.19,4.11,4.11,0,0,1-2.28.88Z" fill="#618c1c"/><path d="M371.82,322.48c-2.89-1.53-8.74-4.67-11.64-6.18" fill="none" stroke="#618c1c" stroke-linecap="round" stroke-linejoin="round" stroke-width="3"/><path d="M371.49,330.36a1.5,1.5,0,0,1-1.27-.69,6.12,6.12,0,0,1-.52-1.06,2.62,2.62,0,0,1-.51-1,4,4,0,0,1,.25-2.31l.06-.17a5.65,5.65,0,0,1,.49-1.34c.05-.14.1-.29.16-.43a3.57,3.57,0,0,1,1.56-2,2.63,2.63,0,0,1,2.23-.12,3.35,3.35,0,0,1,1.9,1.95,5.83,5.83,0,0,1-.06,3.36,3.19,3.19,0,0,1-1.56,2.3l-.19.09a3.7,3.7,0,0,1-2.23,1.46A1.63,1.63,0,0,1,371.49,330.36Z" fill="#618c1c"/><path d="M334.05,405.54c7.69-9.82,9.49-23.23,16-34,2.54-4.22,5.77-8,8.42-12.13a102.26,102.26,0,0,0,6-11.36l10.4-22" fill="none" stroke="#618c1c" stroke-linecap="round" stroke-linejoin="round" stroke-width="3"/><path d="M334.29,412.74a4.84,4.84,0,0,1-1.9-.4,4.66,4.66,0,0,1-2.93-3.81,4.82,4.82,0,0,1,1.78-4,5.16,5.16,0,0,1,4.57-1.17,4.77,4.77,0,0,1,3.25,3,3.63,3.63,0,0,1-.51,3.46,3,3,0,0,1-.54.52,3.7,3.7,0,0,1-1.11,1.52A4.09,4.09,0,0,1,334.29,412.74Z" fill="#618c1c"/><path d="M312.25,395.11a94.48,94.48,0,0,0,19.29,10.77" fill="none" stroke="#618c1c" stroke-linecap="round" stroke-linejoin="round" stroke-width="3"/><path d="M309.28,397.06a4.47,4.47,0,0,1-3.19-1.27,4,4,0,0,1-1.07-2.13,4.12,4.12,0,0,1-.4-.33,1.45,1.45,0,0,1-.49-1.25,2.84,2.84,0,0,1,.44-1.31,1.41,1.41,0,0,1,.42-.66,1.67,1.67,0,0,1,.43-.28,4.88,4.88,0,0,1,1.62-1.64,4.6,4.6,0,0,1,4.7-.22,4.74,4.74,0,0,1,2.28,3.8,4.92,4.92,0,0,1-1.77,4.28A4.78,4.78,0,0,1,309.28,397.06Z" fill="#618c1c"/><path d="M361.28,316.64c-5.08,6.48-7.11,14.77-10.73,22.16-9.94,20.35-31.16,32.77-43.91,51.47" fill="none" stroke="#618c1c" stroke-linecap="round" stroke-linejoin="round" stroke-width="3"/><path d="M347.49,368.35a3.65,3.65,0,0,1-1.44-.3,5.32,5.32,0,0,1-2.52-2.7,16.35,16.35,0,0,1-1-2.67,14.51,14.51,0,0,1-2.34-10.54c.66-3.74,3.56-7.6,7.58-7.41a8,8,0,0,1,5.25,2.74,13.41,13.41,0,0,1,3.52,10.3,11.41,11.41,0,0,1,.21,4.62,6.7,6.7,0,0,1-3.42,5,5.9,5.9,0,0,1-3.85.39l-.34.17A3.94,3.94,0,0,1,347.49,368.35Zm.81-6.4a2.42,2.42,0,0,0,1.52.38,10.89,10.89,0,0,0,.29-1.8,3.78,3.78,0,0,1-1.47,1.28Zm4.1-6.67a14.31,14.31,0,0,1,.72,4.11,7.76,7.76,0,0,0,.35-1.42c-.1-.37-.23-.75-.37-1.13A12.73,12.73,0,0,0,352.4,355.28Zm-3.79-5.9a6.77,6.77,0,0,1,2.65.66c-.15-.18-.3-.35-.46-.52a5.19,5.19,0,0,0-3.2-1.79,2.56,2.56,0,0,0-.62,0,.6.6,0,0,1,.13.09A10.77,10.77,0,0,1,348.61,349.38Z" fill="#618c1c"/><path d="M100.69,78.29a2.15,2.15,0,0,1-1-.25,2.46,2.46,0,0,1-1.16-2.65,10.75,10.75,0,0,1,.8-3.09,1.47,1.47,0,0,1,.85-.81,3.12,3.12,0,0,1,2-1.07,2.49,2.49,0,0,1,2.17.83,3,3,0,0,1,.67,1.8,5.13,5.13,0,0,1-3.3,5A2.94,2.94,0,0,1,100.69,78.29Z" fill="#618c1c"/><path d="M106.71,61.72a2.29,2.29,0,0,1-1.42-.49c-.62-.49-1.23-1.47-.68-3.34a6.15,6.15,0,0,1,.48-1.19,8.14,8.14,0,0,1,.44-1.53,1.5,1.5,0,0,1,1.92-.9,1.6,1.6,0,0,1,.59.39,1.65,1.65,0,0,1,.46.32,6.4,6.4,0,0,1,.42.49,1.69,1.69,0,0,1,.23.36,4.72,4.72,0,0,1,.53,1.44l.37,1a1.51,1.51,0,0,1-.29,1.52l-.13.13a2.14,2.14,0,0,1-.82.76,3.17,3.17,0,0,1-1.53.94A2.91,2.91,0,0,1,106.71,61.72Z" fill="#618c1c"/><path d="M154.06,116a3,3,0,0,1-.72-.09,3.8,3.8,0,0,1-2.63-3.34,8.08,8.08,0,0,1,.49-3.26,3.23,3.23,0,0,1,2-2.4l.13,0a7.18,7.18,0,0,1,.87-1,1.4,1.4,0,0,1,1.12-.43,1.45,1.45,0,0,1,1.07.52,7.41,7.41,0,0,1,1.78,4.32,3.85,3.85,0,0,1-1,3l-.17.16a2.68,2.68,0,0,1-.9,1.81A3.07,3.07,0,0,1,154.06,116Z" fill="#618c1c"/><path d="M165,94.78a2.73,2.73,0,0,1-1.1-.24,3.28,3.28,0,0,1-1.67-1.65,3.55,3.55,0,0,1-1.7-1.66,3.68,3.68,0,0,1,0-3.46,3.83,3.83,0,0,1,3.22-1.87h0a4.25,4.25,0,0,1,3.84,2.8,5.7,5.7,0,0,1-.24,4.31,3.17,3.17,0,0,1-.79,1.15A2.42,2.42,0,0,1,165,94.78Z" fill="#618c1c"/><path d="M107.39,57.64l-5.52,14.65a4.15,4.15,0,0,0-.3,3.13A4.14,4.14,0,0,0,103.39,77l26.84,15.42c8.22,4.72,16.9,9.92,21.12,18.41.37.74,1.06,1.65,1.81,1.31a1.63,1.63,0,0,0,.57-.54,53.8,53.8,0,0,0,9.87-23" fill="none" stroke="#618c1c" stroke-linecap="round" stroke-linejoin="round" stroke-width="3"/><path d="M108.11,57.71c11.85,8.14,23.78,16.33,37,22.08,2.47,1.08,5,2.07,7.48,3.06l13.51,5.35" fill="none" stroke="#618c1c" stroke-linecap="round" stroke-linejoin="round" stroke-width="3"/><path d="M128.8,93.23a4,4,0,0,1-1.94-.49c-1.52-.83-2.35-2.52-2.46-5a22.59,22.59,0,0,1,1.17-8.32,9,9,0,0,1,2.24-3.84,4.82,4.82,0,0,1,5-1.1,1.54,1.54,0,0,1,.69.56,5.4,5.4,0,0,1,1.76.51,7,7,0,0,1,2.75,2.6,10.64,10.64,0,0,1,1.55,8.42,8.58,8.58,0,0,1-6.17,6.2,7.14,7.14,0,0,1-2.72.09A5.17,5.17,0,0,1,128.8,93.23Z" fill="#618c1c"/><path d="M315,187a139.57,139.57,0,0,1,37.46,64l31-27.34a5.08,5.08,0,0,0,2-2.93,4.93,4.93,0,0,0-.76-2.71A96.32,96.32,0,0,0,349.28,180c-2.13-1.29-4.45-2.54-6.94-2.54a15,15,0,0,0-4.95,1.16l-21,7.55" fill="#8cc63f" stroke="#263135" stroke-linecap="round" stroke-linejoin="round" stroke-width="3"/><path d="M125.6,373.63a417.09,417.09,0,0,0-68.17,33.49c-1.06.64-2.21,1.43-2.46,2.64s.53,2.41,1.26,3.43l9.1,12.6c2.41,3.33,5.14,6.89,9.13,7.88,3.59.89,7.31-.54,10.73-1.94,17.69-7.26,33.88-13,51.57-20.27a17,17,0,0,0,3.16-2.52c.94-1.13.41-2.83-.17-4.18l-13.44-31.57" fill="#8cc63f" stroke="#263135" stroke-linecap="round" stroke-linejoin="round" stroke-width="3"/><path d="M77.69,429.36a2.75,2.75,0,0,1-.57-.05A3.1,3.1,0,0,1,75,428a3.39,3.39,0,0,1-.51-2.14,5,5,0,0,1-.13-.77,3.18,3.18,0,0,1,.08-1.46,1.84,1.84,0,0,1,.09-.25,4.48,4.48,0,0,1,.28-.72,2.6,2.6,0,0,1,1.75-1.48,2.82,2.82,0,0,1,2.2.61,7,7,0,0,1,2.35,2.38,3.66,3.66,0,0,1,.33,2.55,2.1,2.1,0,0,1-.14,1.26,2.36,2.36,0,0,1-2.16,1.32,4.87,4.87,0,0,1-.54,0A3.44,3.44,0,0,1,77.69,429.36Z" fill="#618c1c"/><path d="M67.33,414.84l-.31,0a3.25,3.25,0,0,1-2.67-2.4,4.45,4.45,0,0,1-.19-5.23A3,3,0,0,1,65.74,406a2.63,2.63,0,0,1,1.87.14l.11,0a3,3,0,0,1,1.83.22,4.11,4.11,0,0,1,2.52,3.28,3.83,3.83,0,0,1,0,1l0,.07a2.74,2.74,0,0,1,0,1.69,2.7,2.7,0,0,1-1.67,1.54,5.12,5.12,0,0,1-1.19.32A3,3,0,0,1,67.33,414.84Z" fill="#618c1c"/><path d="M130,408.25a2.93,2.93,0,0,1-1.09-.21,3.21,3.21,0,0,1-1.66-1.68,3,3,0,0,1-1.09-2.52,5.47,5.47,0,0,1,.74-2.23,1.43,1.43,0,0,1,.41-.5l.09-.14a2.65,2.65,0,0,1,1.42-1.21,2.44,2.44,0,0,1,1-.1,2.14,2.14,0,0,1,.56-.13,2.09,2.09,0,0,1,1.93,1,3.7,3.7,0,0,1,1,2.13c0,.12,0,.23,0,.35a5.18,5.18,0,0,1,.1,2.23,3.81,3.81,0,0,1-1.9,2.59A3.09,3.09,0,0,1,130,408.25Z" fill="#618c1c"/><path d="M130.81,404.07c-3.3,2.34-7.33,3.36-11.16,4.69-13.48,4.69-25.33,13.77-39.28,16.79" fill="none" stroke="#618c1c" stroke-linecap="round" stroke-linejoin="round" stroke-width="3"/><path d="M79.38,424.77a81.43,81.43,0,0,1-11.19-12.28,1.22,1.22,0,0,1-.34-.9,1.19,1.19,0,0,1,.45-.62c10.12-8.88,23.56-12.74,35.55-18.85,6.2-3.16,12.19-7,19-8.51a1.38,1.38,0,0,1,.78,0,1.48,1.48,0,0,1,.75,1q3.28,9.54,6.3,19.17" fill="none" stroke="#618c1c" stroke-linecap="round" stroke-linejoin="round" stroke-width="3"/><path d="M96.58,416.4a5.73,5.73,0,0,1-2.36-.54c-3-1.38-4.64-4.36-5.43-6.61a11,11,0,0,1-.69-5.39,6.61,6.61,0,0,1,3.3-4.93,5.92,5.92,0,0,1,.9-.38,6.83,6.83,0,0,1,1-2A4.13,4.13,0,0,1,97,394.71c2.14.26,3.29,2.34,3.66,3a25.35,25.35,0,0,1,1.64,3.6,14.13,14.13,0,0,1,1.4,3.87c.08.38.17.78.23,1.2a10.76,10.76,0,0,1,.31,1.58,5.38,5.38,0,0,1-.43,3.16,2.34,2.34,0,0,1-.25.68,2.91,2.91,0,0,1-2.48,1.49l-.21.06-.44.1a4.12,4.12,0,0,1-1.07,1.85A4,4,0,0,1,96.58,416.4Zm-4.07-6.19a6.77,6.77,0,0,0,2.95,2.92,2,2,0,0,0,1.8.09,6.24,6.24,0,0,1-2.37-1.12,7.44,7.44,0,0,1-.67-.59,4.59,4.59,0,0,1-1.21-.79A4,4,0,0,1,92.51,410.21Zm-1-7.36a4.58,4.58,0,0,0-.5,1.46,6.93,6.93,0,0,0,.08,2.25c0-.22,0-.44,0-.66a7.68,7.68,0,0,1,.37-1.91v-.39C91.53,403.35,91.54,403.1,91.56,402.85Z" fill="#618c1c"/><path d="M122.14,337.2,99.9,371.91a4.92,4.92,0,0,0-1.05,2.67c0,1.63,1.6,2.75,3,3.61,9.7,5.94,19.62,12,30.71,14.49,14,3.19,30.11.93,41.48,9.73,1.05.82,2.45,1.75,3.57,1a3.17,3.17,0,0,0,.81-.9l20.71-30.21c-28,2.22-59.71-13-77-35.14" fill="#8cc63f" stroke="#263135" stroke-linecap="round" stroke-linejoin="round" stroke-width="3"/><path d="M111.84,379.29a2.5,2.5,0,0,1-1.29-.33,2.61,2.61,0,0,1-1-1.06,2.53,2.53,0,0,1-.12-.23,9,9,0,0,1-.9-2.08,3.47,3.47,0,0,1,0-3.41l.06-.23a2.47,2.47,0,0,1,1.31-1.65,2.55,2.55,0,0,1,.88-.58c1.39-.57,2.95.12,4.06,1.8a10.49,10.49,0,0,1,1.16,3.4,4.25,4.25,0,0,1-1,2.53c-.08.13-2,1.8-3,1.84Z" fill="#618c1c"/><path d="M123.49,358.69l-.34,0a3.63,3.63,0,0,1-2.69-1.48,12.23,12.23,0,0,1-1-5,4.71,4.71,0,0,1,.61-1.82,6.26,6.26,0,0,1,.78-2.22,2.37,2.37,0,0,1,1.19-1.05,2.06,2.06,0,0,1,1.35,0,1.4,1.4,0,0,1,.58,0,1.52,1.52,0,0,1,1,.61,45.91,45.91,0,0,1,2.13,5.68,4.38,4.38,0,0,1-1,4.29A3.6,3.6,0,0,1,123.49,358.69Z" fill="#618c1c"/><path d="M183.87,382.3h-.05a3.08,3.08,0,0,1-2-.78,2.28,2.28,0,0,1-1.48-1.18,2.57,2.57,0,0,1,.29-2.61,5.13,5.13,0,0,1,3.95-2.62,3.75,3.75,0,0,1,3,1.3,3.07,3.07,0,0,1,.71,2.66,4,4,0,0,1-2.06,2.51A4.61,4.61,0,0,1,183.87,382.3Z" fill="#618c1c"/><path d="M173.74,397.13a2.33,2.33,0,0,1-2-.93,2.7,2.7,0,0,1-.33-2.32,5.69,5.69,0,0,1,1.4-2.76,3.73,3.73,0,0,1,3.6-1.08,3.15,3.15,0,0,1,1.87,1.53,2.81,2.81,0,0,1,.21,2.19,3.11,3.11,0,0,1-.88,1.29,3.17,3.17,0,0,1-.75,1,5,5,0,0,1-2.07,1A4.36,4.36,0,0,1,173.74,397.13Z" fill="#618c1c"/><path d="M114,374.25l1.45,1.55c2.8,3,5.65,6,9.18,8.07,4.65,2.72,10.16,3.57,15.54,3.81s10.8-.07,16.16.58a45.72,45.72,0,0,1,16.07,5.06,1.5,1.5,0,0,0,1,.25,1.37,1.37,0,0,0,.77-.69l9.6-14.13c-5.79-2.43-12.27-2.36-18.47-3.31-12.52-1.93-24.12-8.1-33.91-16.14-3.27-2.69-6.64-6.27-6.21-10.48a48.89,48.89,0,0,0-12.92,25.53" fill="none" stroke="#618c1c" stroke-linecap="round" stroke-linejoin="round" stroke-width="3"/><path d="M146.79,388.53a4.78,4.78,0,0,1-1.87-.36,4.85,4.85,0,0,1-2-1.6,7.19,7.19,0,0,1-1.11-.36,5.32,5.32,0,0,1-3.16-3.75,5.52,5.52,0,0,1,.24-2.79,8.88,8.88,0,0,1,3.62-4.49,16,16,0,0,1,3.23-1.61,3.59,3.59,0,0,1,2.17-1,2.87,2.87,0,0,1,1.09.13,3.7,3.7,0,0,1,3.35,1.79,7.12,7.12,0,0,1,1.17.59,1.51,1.51,0,0,1,.49,2.07,1.59,1.59,0,0,1-.32.36,20.34,20.34,0,0,1,.79,3.52,6.84,6.84,0,0,1-.51,4.12c-1.16,2.2-3.65,2.89-5.42,3.22A9.5,9.5,0,0,1,146.79,388.53Zm-2.25-5.48a6.12,6.12,0,0,0,.22.69,7.56,7.56,0,0,0,.93-.12h0v-.13A4,4,0,0,1,144.54,383.05Z" fill="#618c1c"/><path d="M329,194.55a4.56,4.56,0,0,1-1.41-.22,4.64,4.64,0,0,1-1.53-.83,4.26,4.26,0,0,1-2.2-2.35,2.54,2.54,0,0,1,.4-2.66,2.12,2.12,0,0,1,.31-.28,2.25,2.25,0,0,1,1.53-.94,2.92,2.92,0,0,1,1.6.27,6.92,6.92,0,0,1,2.35,1.69,12.26,12.26,0,0,1,2.31,1.88,1.5,1.5,0,0,1,0,2.11A4.8,4.8,0,0,1,329,194.55Z" fill="#618c1c"/><path d="M342,187h0a4.37,4.37,0,0,1-2.43-.76,2.79,2.79,0,0,1-1.72-1.81,1.51,1.51,0,0,1,.11-1.09,3.44,3.44,0,0,1,.31-1.58,2.63,2.63,0,0,1,1.79-1.48,2.75,2.75,0,0,1,1.27.06,3.21,3.21,0,0,1,.88.41,3.11,3.11,0,0,1,3.12,2.86,3,3,0,0,1-1,2.62A3.52,3.52,0,0,1,342,187Z" fill="#618c1c"/><path d="M373.26,221.18a53.57,53.57,0,0,1-12.61,13.44c-.13.11-.3.22-.46.15s-.13-.38,0-.33" fill="none" stroke="#618c1c" stroke-linecap="round" stroke-linejoin="round" stroke-width="3"/><path d="M377.62,215.44a2.15,2.15,0,0,0-.85-.49c-.28-.72-.62-1.41-1-2.08s-1.12-2.15-2.83-2.16c-1.5,0-2.63,1.2-2.93,3.08a10.5,10.5,0,0,0-.14,1.94,9.39,9.39,0,0,0,0,4.71,3.49,3.49,0,0,0,2,2.51,2.8,2.8,0,0,0,1.08.2,3.65,3.65,0,0,0,.72-.07,4.11,4.11,0,0,0,1.8-.88,2.26,2.26,0,0,0,1-.44,2.68,2.68,0,0,0,.92-.64,4.47,4.47,0,0,0,1.06-3A3.54,3.54,0,0,0,377.62,215.44Z" fill="#618c1c"/><path d="M328.51,192.33a264.36,264.36,0,0,1,27.81,40.94" fill="none" stroke="#618c1c" stroke-linecap="round" stroke-linejoin="round" stroke-width="3"/><path d="M327.7,190.75a84.58,84.58,0,0,1,11.52-6.93,3.9,3.9,0,0,1,1.39-.48,3.66,3.66,0,0,1,1.65.32c7.07,2.61,12.57,8.18,17.82,13.58,4.92,5.07,10,10.47,11.76,17.32" fill="none" stroke="#618c1c" stroke-linecap="round" stroke-linejoin="round" stroke-width="3"/><path d="M349.84,210.09c-2.46,0-4.28-.69-5.38-2.07a5.27,5.27,0,0,1-.92-4.5,8,8,0,0,1,2-3.6,10.23,10.23,0,0,1,2.75-2.14c.1-.16.22-.32.33-.48a3.84,3.84,0,0,1,4-1.8,3.52,3.52,0,0,1,1.7,1.06,3.58,3.58,0,0,1,1.38.72,5,5,0,0,1,1.51,3.35,7.3,7.3,0,0,1-1.14,5.64,5.39,5.39,0,0,1-.74.77,4.62,4.62,0,0,1-.52,1c-.94,1.35-2.58,2-4.9,2Z" fill="#618c1c"/><path d="M357.5,237.73a3.37,3.37,0,0,1-2.1-.71,2.53,2.53,0,0,1-.65-.7,3.58,3.58,0,0,1-1.18-1.68,4.29,4.29,0,0,1,.41-3.28,5.28,5.28,0,0,1,2.93-2.75,5.72,5.72,0,0,1,2.8-.08A3.37,3.37,0,0,1,362,229.9a3.13,3.13,0,0,1,.38,2.15,3.8,3.8,0,0,1-.42,2.17,6,6,0,0,1-.43.74,7.61,7.61,0,0,1-.48.82,4.06,4.06,0,0,1-.78.93A4.22,4.22,0,0,1,357.5,237.73Z" fill="#618c1c"/><path d="M75.23,217.36a3.28,3.28,0,0,1-3-2.68,6.28,6.28,0,0,1,.36-3.18,2.37,2.37,0,0,1,.8-1.23,2,2,0,0,1,1-.37l0,0a1.5,1.5,0,0,1,2,.06c.17.16.39.37.63.62a2.8,2.8,0,0,1,.59.55,3.49,3.49,0,0,1,.67,1.75,4.51,4.51,0,0,1,.07.53,2.9,2.9,0,0,1-.09.83,3.36,3.36,0,0,1-2.69,3.12Z" fill="#618c1c"/><path d="M93.71,206.57a57.64,57.64,0,0,1-4.15-21.73c-.12-8.41,2.17-24.23,3.34-32.57" fill="none" stroke="#618c1c" stroke-linecap="round" stroke-linejoin="round" stroke-width="3"/><path d="M95.15,212.44a2.93,2.93,0,0,1-1.52-.44,3.35,3.35,0,0,1-1.52-2.22,4.51,4.51,0,0,1,1.17-3.66,3,3,0,0,1,1.39-1,2.87,2.87,0,0,1,3.38,2.09,4.24,4.24,0,0,1-.23,3.28,2.83,2.83,0,0,1-.48.69,2.5,2.5,0,0,1-1.41,1.12A2.64,2.64,0,0,1,95.15,212.44Z" fill="#618c1c"/><path d="M82.82,148.8c-4.76,7.77-13.11,25.53-13,34.64s2,18.1,4.3,26.91c.37,1.41.86,3,2.13,3.68,1.49.85,3.35.19,4.92-.49l14.73-6.33" fill="none" stroke="#618c1c" stroke-linecap="round" stroke-linejoin="round" stroke-width="3"/><path d="M78.91,191.89a8.57,8.57,0,0,1-6.84-3.24c-1.26-1.68-1.63-9.32-.14-10.56a5.39,5.39,0,0,1,4-.93,15.6,15.6,0,0,1,4.83,1.31,19.94,19.94,0,0,1,4.9,1.66,5.41,5.41,0,0,1,3,2.64,14.5,14.5,0,0,1-.15,5.91,3.31,3.31,0,0,1-1.87,1.66,14.65,14.65,0,0,1-5.13,1.18,9.59,9.59,0,0,1-1.49.3A8.27,8.27,0,0,1,78.91,191.89Z" fill="#618c1c"/><path d="M93.53,154.4a2.1,2.1,0,0,1-.7-.12,2.4,2.4,0,0,1-1.47-2.49A2.69,2.69,0,0,1,92,150a2.15,2.15,0,0,1,2.77-.37,1.37,1.37,0,0,1,.23.19l.23.12a2,2,0,0,1,.66,2.33,3.47,3.47,0,0,1-.69,1.31A2.28,2.28,0,0,1,93.53,154.4Zm-.41-2.29h0Z" fill="#618c1c"/><path d="M83.79,152.46a2,2,0,0,1-1.9-1.43,2.93,2.93,0,0,1-.06-1.42A2.2,2.2,0,0,1,82,149a2.86,2.86,0,0,1,1.08-2.15,2.83,2.83,0,0,1,2.91-.34,1.72,1.72,0,0,1,1,2.07,7.2,7.2,0,0,1-1.55,3,2.18,2.18,0,0,1-1.33.8A1.37,1.37,0,0,1,83.79,152.46Z" fill="#618c1c"/><path d="M85.48,149.46c2.33,0,4.35,1.54,6.56,2.26" fill="none" stroke="#618c1c" stroke-linecap="round" stroke-linejoin="round" stroke-width="3"/></svg>