<svg xmlns="http://www.w3.org/2000/svg" viewBox="0 0 430 570"><title>money-bg</title><g opacity="0.5"><path d="M254,268.91c-1.93-4.18-3.91-8.43-7-11.83s-7.56-5.88-12.15-5.48a6,6,0,0,0-2.27.59,7,7,0,0,0-1.75,1.47c-4.38,4.82-6.23,11.36-7.94,17.64l-3.15,11.55c5.54-1.58,10.31-5.1,15.61-7.34s12-3,16.4.69" fill="#fff" stroke="#263135" stroke-linecap="round" stroke-linejoin="round" stroke-width="3"/><path d="M254.84,275c-5.65-2.83-9.21-9.09-15.18-11.17a5.77,5.77,0,0,0-3.66-.25c-1.74.57-2.79,2.3-3.67,3.91-5.49,10-10.42,20.59-18.2,29a17.3,17.3,0,0,0,16.34-7.78,87.47,87.47,0,0,1,1.18,15c2.17-.67,3.51-2.78,4.54-4.8a59.09,59.09,0,0,0,5.67-17.11,19.83,19.83,0,0,1,5.31,14.5,33.4,33.4,0,0,0,8.52-20.37" fill="#fff" stroke="#263135" stroke-linecap="round" stroke-linejoin="round" stroke-width="3"/><path d="M252.42,512.54a11.25,11.25,0,0,0,1.24-5.16,63.37,63.37,0,0,0-1.06-16,7.1,7.1,0,0,1-.21-2.67c.32-1.83,2-3.06,3.53-4.1,7.07-4.74,14.22-9.39,21.64-13.57.4,3.36.86,5.15.31,8.48s-6.72,7.82-9.24,10.07c1.67,0,7.9.43,9.58.44.52,0,1.17.09,1.35.58s-.19.93-.52,1.28c-1.37,1.43-2.79,2.81-4.24,4.14a18.5,18.5,0,0,1-4.53,3.31,20.51,20.51,0,0,1-5.37,1.39c3.08,2.18,7.08,2.43,10.84,2.6a13.81,13.81,0,0,1-8.1,5.36c-2.24.5-4.58.44-6.82,1a13.14,13.14,0,0,0-7.34,4.8" fill="#fff" stroke="#263135" stroke-linecap="round" stroke-linejoin="round" stroke-width="3"/><path d="M232.86,527.74l-15.64-6.61a33.82,33.82,0,0,0-5.82-2,9.66,9.66,0,0,0-7.15.82c-1.9,1.19-3.07,3.24-4.12,5.22a163.11,163.11,0,0,0-9.19,20.68c1.79.26,3.49-.84,4.88-2a28.71,28.71,0,0,0,6-7c.32-.53.81-1.16,1.41-1,.43.11.65.58.81,1a41,41,0,0,1,2.35,9,34.77,34.77,0,0,0,8.51-11.82c1.36,1.28,2.06,3.1,3.09,4.66s2.73,3,4.58,2.7a20.75,20.75,0,0,0,.18-4.18,9.15,9.15,0,0,1,10.88-8.49" fill="#fff" stroke="#263135" stroke-linecap="round" stroke-linejoin="round" stroke-width="3"/><path d="M114.37,366.76a13.49,13.49,0,0,0,1.49-6.19,76,76,0,0,0-1.28-19.22,8.69,8.69,0,0,1-.25-3.2c.38-2.2,2.39-3.68,4.24-4.92,8.48-5.69,17.05-11.26,26-16.27.47,4,1,6.17.37,10.17s-8.06,9.38-11.09,12.07c2,0,9.48.52,11.49.54.63,0,1.4.1,1.63.69s-.23,1.11-.64,1.54c-1.64,1.7-3.33,3.36-5.08,5a22.12,22.12,0,0,1-5.43,4,24.44,24.44,0,0,1-6.44,1.67c3.69,2.62,8.49,2.92,13,3.12a16.56,16.56,0,0,1-9.72,6.43c-2.69.6-5.5.52-8.18,1.16a15.81,15.81,0,0,0-8.81,5.76" fill="#fff" stroke="#263135" stroke-linecap="round" stroke-linejoin="round" stroke-width="3"/><path d="M126.86,372.33l-11.41-16.88a40.05,40.05,0,0,0-4.51-5.86c-2.07-2.1-4.77-3.79-7.72-3.84-2.69-.05-5.21,1.24-7.56,2.55A196.09,196.09,0,0,0,72.9,363.09c1.64,1.42,4.06,1.44,6.22,1.17a34.39,34.39,0,0,0,10.64-3.16c.67-.33,1.58-.64,2.08-.09a1.71,1.71,0,0,1,.17,1.52A49.87,49.87,0,0,1,88.5,373.1a41.84,41.84,0,0,0,16.29-6.33c.53,2.18,0,4.46.06,6.71s.79,4.78,2.83,5.71c1.24-1.14,1.93-2.74,2.92-4.09a11,11,0,0,1,16.49-1.42" fill="#fff" stroke="#263135" stroke-linecap="round" stroke-linejoin="round" stroke-width="3"/><path d="M251.4,151.42c5.51-7.69,5.35-17.94,4.8-27.39a29.07,29.07,0,0,1,.33-8.54c.89-3.62,3.17-6.75,5.73-9.45A45.5,45.5,0,0,1,278.73,95a28.07,28.07,0,0,1-7.53,26.53,12.75,12.75,0,0,0,8.86-4.52A20,20,0,0,1,272,135.29a27.37,27.37,0,0,0,11,0c-.58,4.35-4.94,7.23-9.18,8.36s-8.79,1.12-12.88,2.73A17.5,17.5,0,0,0,251,157" fill="#fff" stroke="#263135" stroke-linecap="round" stroke-linejoin="round" stroke-width="3"/><path d="M229.66,166.63l-26.55,0a24,24,0,0,0-7.57.81c-7.06,2.37-10.31,11.18-8.66,18.44s6.93,13.13,12.51,18.06a18.75,18.75,0,0,0,.75-19.71,39.1,39.1,0,0,1,9.51,10.67,15.55,15.55,0,0,0,2.15-16,21.15,21.15,0,0,1,9.52,10.24c.73-4.61,1.52-9.38,4.07-13.29s7.37-6.74,11.87-5.51" fill="#fff" stroke="#263135" stroke-linecap="round" stroke-linejoin="round" stroke-width="3"/><path d="M163.09,81.63A69.64,69.64,0,0,0,163,65c-1-6.27-3.42-12.19-5.13-18.3S155.24,34,157.27,28C160,19.84,169,13,174.69,6.5c.32,2.18.6,4.37.82,6.56a26.66,26.66,0,0,1-.24,9.09c-.85,3.35-4.34,7.77-6.3,10.62,2.28-.36,6.81-.87,7.83-2.93.16,3.2-4.6,14.85-7,17,2.82.19,5.15-2,7.08-4.09a37.5,37.5,0,0,1-4.2,13.2c-2.5,4.63-6,8.8-7.44,13.85-1.18,4.18-.86,8.61-.52,12.94" fill="#fff" stroke="#263135" stroke-linecap="round" stroke-linejoin="round" stroke-width="3"/><path d="M186.07,44.71a134.48,134.48,0,0,1-45.87,57.37c-1.15.82-2.46,1.92-2.27,3.32a3.82,3.82,0,0,0,.84,1.68,162.58,162.58,0,0,0,18.5,21.16,4.09,4.09,0,0,0,2,1.29,3.82,3.82,0,0,0,2.24-.49c7.86-3.54,14-10.14,18.49-17.51S187.47,96,190.38,87.87c1.3-3.6,2.6-7.26,2.84-11.08.3-4.88-1.16-9.68-2.6-14.35-1.73-5.59-2.83-12.14-4.55-17.73" fill="#8cc63f" stroke="#263135" stroke-linecap="round" stroke-linejoin="round" stroke-width="3"/><path d="M146.52,109.41a4,4,0,0,1-1.77-.91,3.11,3.11,0,0,1-.4-4.3,2.79,2.79,0,0,1,1.34-.84,2.25,2.25,0,0,1,1.33-1c1.11-.3,3.62,1.77,4.08,2.72a3.27,3.27,0,0,1-.13,3.2,2.74,2.74,0,0,1-.93,1.37C149.53,110,146.74,109.64,146.52,109.41Z" fill="#618c1c"/><path d="M160.94,123.64a3.74,3.74,0,0,1-3.28-2.06,5.17,5.17,0,0,1,.05-4.3,2.53,2.53,0,0,1,1.2-1.34,3.87,3.87,0,0,1,2.3.11,1.53,1.53,0,0,1,1.22.41,5.41,5.41,0,0,1,1.74,3.11,3.61,3.61,0,0,1-1.92,3.79A3.12,3.12,0,0,1,160.94,123.64Z" fill="#618c1c"/><path d="M147.4,108.77c5.32,2.47,8.39,8.56,13.87,10.66" fill="none" stroke="#618c1c" stroke-linecap="round" stroke-linejoin="round" stroke-width="3"/><path d="M147.29,105.4l19.55-18.16a41.35,41.35,0,0,0,5.56-5.9c2.26-3.13,9.63-16.46,11.24-21,1.11.09,1.67-2.7,1.18-3.31a1.6,1.6,0,0,0-1.76,1.12" fill="none" stroke="#618c1c" stroke-linecap="round" stroke-linejoin="round" stroke-width="3"/><path d="M184.83,60.49C186,66.21,190.42,71.22,190,77a19.71,19.71,0,0,1-2.31,7.13,168.73,168.73,0,0,1-15.17,25.43c-2.61,3.62-5.42,7.18-9,9.81" fill="none" stroke="#618c1c" stroke-linecap="round" stroke-linejoin="round" stroke-width="3"/><path d="M175.52,103.9a4.81,4.81,0,0,1-2.54-.74,7.78,7.78,0,0,1-2.77-3.57,21.69,21.69,0,0,1-.82-2.21,14.52,14.52,0,0,1-1.26-9.47,4.66,4.66,0,0,1,.93-2.31,3.94,3.94,0,0,1,3.74-1.17c2.36.4,4.36,2.25,5.65,5.2a17.51,17.51,0,0,1,1.09,10.45C179.36,101,176.5,103.9,175.52,103.9Z" fill="#618c1c"/><path d="M210.07,148.9c9.48,9.3,17,20.34,24.53,31.31L257,213.06a5.08,5.08,0,0,0,2.07,2c1.68.68,3.47-.57,4.86-1.73l23.35-19.68c1.62-1.37,3.41-3.23,2.86-5.27a5.7,5.7,0,0,0-1.45-2.23c-16.09-17.74-49.81-54.91-50.87-55.23-2.21-.68-19.22,14.86-27.79,17.94" fill="#8cc63f" stroke="#263135" stroke-linecap="round" stroke-linejoin="round" stroke-width="3"/><path d="M220,154a2.38,2.38,0,0,1-.46,0,2.49,2.49,0,0,1-2-2.13,2.26,2.26,0,0,1,1.09-2.36,2.9,2.9,0,0,1,.94-1.57,1.55,1.55,0,0,1,1.11-.36,1.91,1.91,0,0,1,.47.12l.12-.07a2.38,2.38,0,0,1,3,.84,2.92,2.92,0,0,1,.24.37,2.81,2.81,0,0,1-2.16,4.65l-.09,0a1.53,1.53,0,0,1-1.16.29A2.62,2.62,0,0,1,220,154Z" fill="#618c1c"/><path d="M235.6,140.81c-3.08,2.18-9.29,6.48-12.59,8.3" fill="none" stroke="#618c1c" stroke-linecap="round" stroke-linejoin="round" stroke-width="3"/><path d="M237.1,143.71a3,3,0,0,1-2.33-1.16,4.16,4.16,0,0,1-.71-3c.18-1.76,1.36-3,2.81-2.95h0a1.49,1.49,0,0,1,1.56.24,1.6,1.6,0,0,1,.42.59,2.19,2.19,0,0,1,.23.21,2.7,2.7,0,0,1,.69,1.5,4.52,4.52,0,0,1,0,2.28,3.19,3.19,0,0,1-1.15,1.79A2.57,2.57,0,0,1,237.1,143.71Z" fill="#618c1c"/><path d="M280.81,192.32a15.7,15.7,0,0,1-3.52-1.33,3.34,3.34,0,0,1-.87-2.43,4.5,4.5,0,0,1,1.42-3,1.53,1.53,0,0,1,1.14-.39,4.52,4.52,0,0,1,3.59,6.26,1.53,1.53,0,0,1-.85.77A2.89,2.89,0,0,1,280.81,192.32Z" fill="#618c1c"/><path d="M262,204.07c5.22-4.13,12.52-9.33,16.38-14.1" fill="none" stroke="#618c1c" stroke-linecap="round" stroke-linejoin="round" stroke-width="3"/><path d="M259.29,208a4,4,0,0,1-1.19-.18,3.63,3.63,0,0,1-2.51-2.5,3.56,3.56,0,0,1,1.17-3.53,3.6,3.6,0,0,1,2.72-.94,1.51,1.51,0,0,1,1.6,0,4,4,0,0,1,1.83,3.07,3.88,3.88,0,0,1-1,3,1.5,1.5,0,0,1-1.44.89A4.08,4.08,0,0,1,259.29,208Z" fill="#618c1c"/><path d="M222.49,151.51a167.68,167.68,0,0,1,37.15,50.32" fill="none" stroke="#618c1c" stroke-linecap="round" stroke-linejoin="round" stroke-width="3"/><path d="M236.23,141.25c2.25.2,3.79,2.26,5.13,4.09,11.36,15.53,29,26.47,37.07,43.93" fill="none" stroke="#618c1c" stroke-linecap="round" stroke-linejoin="round" stroke-width="3"/><path d="M247.51,179.58a4.45,4.45,0,0,1-1.79-.37,5.26,5.26,0,0,1-2.43-2.34,8.5,8.5,0,0,1,0-7.66c.09-.2.2-.39.3-.58a8.24,8.24,0,0,1,5.41-7.29,6.2,6.2,0,0,1,1.8-.29l.33-.23c1.92-1.35,3.79-1.65,5.29-.84a4.76,4.76,0,0,1,2.16,2.85,10.35,10.35,0,0,1-1,9.08,8.94,8.94,0,0,1-1.7,1.92,18.57,18.57,0,0,1-3.1,3.24C252,177.76,249.89,179.58,247.51,179.58Z" fill="#618c1c"/><path d="M114.67,343.46a49.89,49.89,0,0,0-8.26,47.09c.47,1.32,1.13,2.77,2.45,3.25a5.15,5.15,0,0,0,2.41.07,89.79,89.79,0,0,1,22.1,0,50.28,50.28,0,0,1,17.14-31.51c-5.65-3.94-12.37-6-18.76-8.56s-12.8-5-16.6-10.77" fill="#8cc63f" stroke="#263135" stroke-linecap="round" stroke-linejoin="round" stroke-width="3"/><path d="M136,370.14h0c-.56,0-2.08-2.54-2-2.85a6,6,0,0,1,1.51-3.62,3.73,3.73,0,0,1,3.15-1.09,3.2,3.2,0,0,1,4.09.62c1.05,1.33.53,3,.31,3.76a3.19,3.19,0,0,1-1,1.64,2.34,2.34,0,0,1-2.2.36,3.09,3.09,0,0,1-1.11-.66,5.29,5.29,0,0,1-1.2,1.24A2.34,2.34,0,0,1,136,370.14Z" fill="#618c1c"/><path d="M118.09,356a34.9,34.9,0,0,0,7.32,2.76L139.59,363" fill="none" stroke="#618c1c" stroke-linecap="round" stroke-linejoin="round" stroke-width="3"/><path d="M116.67,363.45a2.44,2.44,0,0,1-.8-.13,3.3,3.3,0,0,1-1.81-1.94,11.27,11.27,0,0,1-.82-4.21,6.55,6.55,0,0,1,1.91-5.71,1.55,1.55,0,0,1,1.11-.41,1.5,1.5,0,0,1,1.06.52,6.85,6.85,0,0,1,.81,1.18,2.23,2.23,0,0,1,.26.27,4.87,4.87,0,0,1,1,2.42,9.32,9.32,0,0,1,.15,1.33,7.38,7.38,0,0,1,.13,3.9,3.92,3.92,0,0,1-1.76,2.47A2.54,2.54,0,0,1,116.67,363.45Z" fill="#618c1c"/><path d="M128.93,390.41a8.32,8.32,0,0,1-3.2-.75c-.24.11-5.17-.27-7.36-.34a1.49,1.49,0,0,1-1.12.69,3.53,3.53,0,0,1-.86,0,1.5,1.5,0,0,1-.9.33,1.6,1.6,0,0,1-1.44-1l-.66.07a1.48,1.48,0,0,1-1.58-1,9,9,0,0,0-.53-1.36,6.57,6.57,0,0,1-1.59-3.44,12.58,12.58,0,0,1,.33-5.91,1.52,1.52,0,0,1,1.62-1.05c.73.09,4.3,8.13,4.39,8.19a6.06,6.06,0,0,1,2.18-1,11,11,0,0,1,5.76.46,47.43,47.43,0,0,1,7.3,2.81,1.47,1.47,0,0,1,.84,1.3,1.5,1.5,0,0,1-.76,1.36A4.82,4.82,0,0,1,128.93,390.41Z" fill="#618c1c"/><path d="M115.51,357.68c-3.34,6.84-3.18,20-.17,28.55" fill="none" stroke="#618c1c" stroke-linecap="round" stroke-linejoin="round" stroke-width="3"/><path d="M127.63,386.87c.07-.43.14-.86.22-1.28a40.29,40.29,0,0,1,10.7-20.82" fill="none" stroke="#618c1c" stroke-linecap="round" stroke-linejoin="round" stroke-width="3"/><path d="M254.29,260.3l1.1-2.65-13.75,44.8c-.38,1.24-.74,2.67,0,3.76a4.37,4.37,0,0,0,1.72,1.33,134.31,134.31,0,0,0,24.27,10.07c2.39.73,5.1,1.37,7.29.16,2.67-1.48,3.33-4.94,3.8-7.95a137.26,137.26,0,0,1,8.35-30,2.23,2.23,0,0,0-.73-3.32c-9.63-7.5-20.27-13.51-29.9-21" fill="#8cc63f" stroke="#263135" stroke-linecap="round" stroke-linejoin="round" stroke-width="3"/><path d="M249.69,306.24l-.58,0a3.47,3.47,0,0,1-2.27-1.16l-.1-.09a2.83,2.83,0,0,1,1.44-4.86l.17,0a3.81,3.81,0,0,1,1.05-.63,3.47,3.47,0,0,1,2.12-.19,3.1,3.1,0,0,1,2.08,1.8,3.51,3.51,0,0,1-.11,3.1A4.29,4.29,0,0,1,249.69,306.24Z" fill="#618c1c"/><path d="M268.85,313.59a3.54,3.54,0,0,1-2.52-1,2.59,2.59,0,0,1-.7-2.51,2.7,2.7,0,0,1,1.65-1.67,5.18,5.18,0,0,1,1.16-.35,4,4,0,0,1,1.4-.3,1.45,1.45,0,0,1,1.21.55l.23.12a2,2,0,0,1,1.47,1,2.16,2.16,0,0,1-.51,2.57,5.11,5.11,0,0,1-2.54,1.52A4.09,4.09,0,0,1,268.85,313.59Z" fill="#618c1c"/><path d="M259.27,262.82c-.6,2.95-4.62,15-5.22,18s-1.19,5.84-2.05,8.68-1.95,5.49-2.76,8.29a5.62,5.62,0,0,0-.29,2.66c.41,2,2.61,3,4.53,3.73l16.17,5.94a2,2,0,0,0,1.21.17,1.76,1.76,0,0,0,.79-.64c1.77-2.28,2.05-5.33,2.45-8.18.58-4.21,6.06-20.19,7.39-24.23" fill="none" stroke="#618c1c" stroke-linecap="round" stroke-linejoin="round" stroke-width="3"/><path d="M269.05,287.68a13.22,13.22,0,0,1-2.34-.23,18.48,18.48,0,0,1-7.28-3.1,5.89,5.89,0,0,1-2.63-3.64,3.8,3.8,0,0,1-.24-2.69,4.7,4.7,0,0,1,3.06-2.89,13.77,13.77,0,0,1,12.48,1.22c2.1,1.36,4.14,3.85,3.56,6.73a5.78,5.78,0,0,1-3.86,4.16A8.3,8.3,0,0,1,269.05,287.68Z" fill="#618c1c"/><path d="M214.29,511.88A113.67,113.67,0,0,1,244.82,564l25.29-22.28a4.08,4.08,0,0,0,1.65-2.39,4,4,0,0,0-.62-2.2,78.51,78.51,0,0,0-28.93-31,11.32,11.32,0,0,0-5.66-2.07,12.16,12.16,0,0,0-4,.95l-17.12,6.15" fill="#8cc63f" stroke="#263135" stroke-linecap="round" stroke-linejoin="round" stroke-width="3"/><path d="M225.68,518.29a4,4,0,0,1-1.24-.19,3.88,3.88,0,0,1-1.31-.71,3.75,3.75,0,0,1-1.9-2,2.34,2.34,0,0,1,.38-2.45,1.39,1.39,0,0,1,.25-.23,2.12,2.12,0,0,1,1.41-.85,2.62,2.62,0,0,1,1.46.24,5.68,5.68,0,0,1,2,1.42,9.14,9.14,0,0,1,1.9,1.55,1.49,1.49,0,0,1,0,2.11A4.13,4.13,0,0,1,225.68,518.29Z" fill="#618c1c"/><path d="M236.26,512.15h0a3.88,3.88,0,0,1-2.1-.65,2.49,2.49,0,0,1-1.53-1.65,1.48,1.48,0,0,1,.07-1,3,3,0,0,1,.29-1.35,2.43,2.43,0,0,1,1.65-1.36,2.38,2.38,0,0,1,1.15.05,3.09,3.09,0,0,1,.74.33,2.8,2.8,0,0,1,2.73,2.58,2.69,2.69,0,0,1-.91,2.37A3.08,3.08,0,0,1,236.26,512.15Z" fill="#618c1c"/><path d="M262.5,537.45c.26.37.06.9.26,1.31s1.12.5,1.53.07a2.57,2.57,0,0,0,.53-1.69c0-.6-.2-1.42-.79-1.36a1,1,0,0,0-.62.44,3.27,3.27,0,0,0-.51,2.61.68.68,0,0,0,.31.48c.28.13.58-.13.73-.39a2.17,2.17,0,0,0-.13-2.32c-.09-.13-.23-.25-.38-.21a.36.36,0,0,0-.2.2,2.18,2.18,0,0,0-.23,1.52" fill="none" stroke="#618c1c" stroke-linecap="round" stroke-linejoin="round" stroke-width="3"/><path d="M261.23,540.5a43.6,43.6,0,0,1-9.75,10.17.4.4,0,0,1-.38.12c-.13,0-.1-.31,0-.27" fill="none" stroke="#618c1c" stroke-linecap="round" stroke-linejoin="round" stroke-width="3"/><path d="M261.53,541.6a2.76,2.76,0,0,1-1-.18,3.12,3.12,0,0,1-1.76-2.23,7.78,7.78,0,0,1,0-4,9.38,9.38,0,0,1,.11-1.59c.26-1.65,1.33-2.75,2.65-2.75h0a3,3,0,0,1,2.56,1.92,9.32,9.32,0,0,1,1.33,4.33,4.42,4.42,0,0,1-3.25,4.39A3.36,3.36,0,0,1,261.53,541.6Z" fill="#618c1c"/><path d="M225.28,516.2A215.17,215.17,0,0,1,248,549.57" fill="none" stroke="#618c1c" stroke-linecap="round" stroke-linejoin="round" stroke-width="3"/><path d="M224.63,514.92a68.66,68.66,0,0,1,9.38-5.65,3.09,3.09,0,0,1,1.14-.39,3,3,0,0,1,1.34.26c5.76,2.13,10.24,6.67,14.52,11.07,4,4.13,8.18,8.53,9.58,14.11" fill="none" stroke="#618c1c" stroke-linecap="round" stroke-linejoin="round" stroke-width="3"/><path d="M242.67,531a5.56,5.56,0,0,1-4.6-1.79,4.57,4.57,0,0,1-.81-3.91A6.92,6.92,0,0,1,239,522.2a9,9,0,0,1,2.26-1.77,3.53,3.53,0,0,1,.24-.34,3.38,3.38,0,0,1,3.51-1.57,3.12,3.12,0,0,1,1.46.89,3,3,0,0,1,1.16.62,4.34,4.34,0,0,1,1.32,2.9,6.23,6.23,0,0,1-1,4.81,5.76,5.76,0,0,1-.59.62,4.62,4.62,0,0,1-.43.82c-.82,1.17-2.23,1.77-4.22,1.78Z" fill="#618c1c"/><path d="M248.9,553.48a3,3,0,0,1-1.87-.64,2.45,2.45,0,0,1-.57-.59,3.27,3.27,0,0,1-1-1.48,3.79,3.79,0,0,1,.35-2.88,4.58,4.58,0,0,1,2.56-2.38,4.88,4.88,0,0,1,2.41-.08,3,3,0,0,1,2.08,1.25,2.84,2.84,0,0,1,.35,1.89,3.39,3.39,0,0,1-.37,1.89,5.15,5.15,0,0,1-.36.61,4.86,4.86,0,0,1-.4.7,3.75,3.75,0,0,1-.68.81,3.86,3.86,0,0,1-2.43.9Z" fill="#618c1c"/><path d="M165.59,77.5a83.71,83.71,0,0,1-13-23.52,16,16,0,0,0-2.24-4.72,11.05,11.05,0,0,0-6.65-3.48c-9.59-1.86-19.16,2.64-27.9,7a45.24,45.24,0,0,0,21.28,3.09,73.48,73.48,0,0,1-12.28,8.9,25.43,25.43,0,0,0,20.36,2.31,37.57,37.57,0,0,0-7.06,6.68,17.88,17.88,0,0,0,10.2,1c2-.39,3.92-1.12,5.92-1,3.85.15,6.91,3.14,9.55,5.94" fill="#fff" stroke="#263135" stroke-linecap="round" stroke-linejoin="round" stroke-width="3"/></g></svg>