<svg xmlns="http://www.w3.org/2000/svg" xmlns:xlink="http://www.w3.org/1999/xlink" viewBox="0 0 430 285"><defs><clipPath id="a"><rect x="48.34" y="119.53" width="91.69" height="97.66" rx="4" fill="none"/></clipPath><linearGradient id="b" x1="265.07" y1="207.46" x2="404.23" y2="177.88" gradientUnits="userSpaceOnUse"><stop offset="0" stop-color="#12acef"/><stop offset="1" stop-color="#fcee21"/></linearGradient><linearGradient id="c" x1="267.91" y1="150.15" x2="282.76" y2="146.99" xlink:href="#b"/></defs><title>popups-fg</title><rect x="43.17" y="123.54" width="91.69" height="100.67" rx="4" fill="#263135" opacity="0.45" stroke-linecap="round" stroke-linejoin="round" stroke-width="3" stroke="#263135"/><rect x="48.34" y="118.04" width="91.69" height="100.67" rx="4" stroke-width="3" stroke="#263135" stroke-linecap="round" stroke-linejoin="round" fill="#fbb03b"/><g clip-path="url(#a)"><path d="M67,124.77a5.56,5.56,0,0,1-.43,1.74,4.23,4.23,0,0,1-1,1.38,4.31,4.31,0,0,1-1.51.92,6.07,6.07,0,0,1-2.09.33,5.76,5.76,0,0,1-2.35-.45,4.73,4.73,0,0,1-1.7-1.25,5.47,5.47,0,0,1-1-2,8.7,8.7,0,0,1-.34-2.53,7.93,7.93,0,0,1,.38-2.57A5.41,5.41,0,0,1,58,118.44a4.71,4.71,0,0,1,1.71-1.24,5.69,5.69,0,0,1,2.28-.43,6.08,6.08,0,0,1,2,.28,3.94,3.94,0,0,1,1.4.81,4.11,4.11,0,0,1,.92,1.27,6.72,6.72,0,0,1,.51,1.66l-2.44.32a3.36,3.36,0,0,0-.7-1.63,2.07,2.07,0,0,0-1.64-.6,2.48,2.48,0,0,0-2.16,1.06,5.27,5.27,0,0,0-.73,3,5,5,0,0,0,.78,3A2.52,2.52,0,0,0,62,127a2.18,2.18,0,0,0,1.67-.59,2.94,2.94,0,0,0,.67-1.67Z" fill="#fff69f"/><path d="M68.67,117.07h2.46v9.66H76.7l-.26,2.11H68.67Z" fill="#fff69f"/><path d="M78.3,117.07h2.46v11.77H78.3Z" fill="#fff69f"/><path d="M93.22,124.77a5.56,5.56,0,0,1-.43,1.74,4.23,4.23,0,0,1-1,1.38,4.31,4.31,0,0,1-1.51.92,6.07,6.07,0,0,1-2.09.33,5.76,5.76,0,0,1-2.35-.45,4.73,4.73,0,0,1-1.7-1.25,5.47,5.47,0,0,1-1-2,8.7,8.7,0,0,1-.34-2.53,7.93,7.93,0,0,1,.38-2.57,5.54,5.54,0,0,1,1.08-1.94A4.83,4.83,0,0,1,86,117.2a5.67,5.67,0,0,1,2.27-.43,6.1,6.1,0,0,1,2,.28,3.77,3.77,0,0,1,2.31,2.08,6.33,6.33,0,0,1,.52,1.66l-2.44.32a3.28,3.28,0,0,0-.71-1.63,2,2,0,0,0-1.64-.6,2.47,2.47,0,0,0-2.15,1.06,5.27,5.27,0,0,0-.73,3,5,5,0,0,0,.78,3,2.49,2.49,0,0,0,2.1,1.06,2.18,2.18,0,0,0,1.68-.59,3,3,0,0,0,.67-1.67Z" fill="#fff69f"/><path d="M94.92,117.07h2.47v4.71l4.34-4.71h2.69l-3.91,4.42,4.34,7.35h-2.74l-3.31-5.75-1.41,1.43v4.32H94.92Z" fill="#fff69f"/><path d="M109.73,117.07h3l2.93,8.79,3-8.79h2.87v11.77h-2.26V121l-2.69,7.85h-1.91l-2.7-7.83v7.83h-2.21Z" fill="#fff69f"/><path d="M123.91,117.07h8v2.09h-5.58v2.57h5.25v2.11h-5.25v2.91h5.92l-.24,2.09h-8.13Z" fill="#fff69f"/><path d="M67,142.77a5.56,5.56,0,0,1-.43,1.74,4.23,4.23,0,0,1-1,1.38,4.31,4.31,0,0,1-1.51.92,6.07,6.07,0,0,1-2.09.33,5.76,5.76,0,0,1-2.35-.45,4.73,4.73,0,0,1-1.7-1.25,5.47,5.47,0,0,1-1-2,8.7,8.7,0,0,1-.34-2.53,7.93,7.93,0,0,1,.38-2.57A5.41,5.41,0,0,1,58,136.44a4.71,4.71,0,0,1,1.71-1.24,5.69,5.69,0,0,1,2.28-.43,6.08,6.08,0,0,1,2,.28,3.94,3.94,0,0,1,1.4.81,4.11,4.11,0,0,1,.92,1.27,6.72,6.72,0,0,1,.51,1.66l-2.44.32a3.36,3.36,0,0,0-.7-1.63,2.07,2.07,0,0,0-1.64-.6,2.48,2.48,0,0,0-2.16,1.06,5.27,5.27,0,0,0-.73,3,5,5,0,0,0,.78,3A2.52,2.52,0,0,0,62,145a2.18,2.18,0,0,0,1.67-.59,2.94,2.94,0,0,0,.67-1.67Z" fill="#fff69f"/><path d="M68.67,135.07h2.46v9.66H76.7l-.26,2.11H68.67Z" fill="#fff69f"/><path d="M78.3,135.07h2.46v11.77H78.3Z" fill="#fff69f"/><path d="M93.22,142.77a5.56,5.56,0,0,1-.43,1.74,4.23,4.23,0,0,1-1,1.38,4.31,4.31,0,0,1-1.51.92,6.07,6.07,0,0,1-2.09.33,5.76,5.76,0,0,1-2.35-.45,4.73,4.73,0,0,1-1.7-1.25,5.47,5.47,0,0,1-1-2,8.7,8.7,0,0,1-.34-2.53,7.93,7.93,0,0,1,.38-2.57,5.54,5.54,0,0,1,1.08-1.94A4.83,4.83,0,0,1,86,135.2a5.67,5.67,0,0,1,2.27-.43,6.1,6.1,0,0,1,2,.28,3.77,3.77,0,0,1,2.31,2.08,6.33,6.33,0,0,1,.52,1.66l-2.44.32a3.28,3.28,0,0,0-.71-1.63,2,2,0,0,0-1.64-.6,2.47,2.47,0,0,0-2.15,1.06,5.27,5.27,0,0,0-.73,3,5,5,0,0,0,.78,3,2.49,2.49,0,0,0,2.1,1.06,2.18,2.18,0,0,0,1.68-.59,3,3,0,0,0,.67-1.67Z" fill="#fff69f"/><path d="M94.92,135.07h2.47v4.71l4.34-4.71h2.69l-3.91,4.42,4.34,7.35h-2.74l-3.31-5.75-1.41,1.43v4.32H94.92Z" fill="#fff69f"/><path d="M109.73,135.07h3l2.93,8.79,3-8.79h2.87v11.77h-2.26V139l-2.69,7.85h-1.91l-2.7-7.83v7.83h-2.21Z" fill="#fff69f"/><path d="M123.91,135.07h8v2.09h-5.58v2.57h5.25v2.11h-5.25v2.91h5.92l-.24,2.09h-8.13Z" fill="#fff69f"/><path d="M67,160.77a5.56,5.56,0,0,1-.43,1.74,4.23,4.23,0,0,1-1,1.38,4.31,4.31,0,0,1-1.51.92,6.07,6.07,0,0,1-2.09.33,5.76,5.76,0,0,1-2.35-.45,4.73,4.73,0,0,1-1.7-1.25,5.47,5.47,0,0,1-1-2,8.7,8.7,0,0,1-.34-2.53,7.93,7.93,0,0,1,.38-2.57A5.41,5.41,0,0,1,58,154.44a4.71,4.71,0,0,1,1.71-1.24,5.69,5.69,0,0,1,2.28-.43,6.08,6.08,0,0,1,2,.28,3.94,3.94,0,0,1,1.4.81,4.11,4.11,0,0,1,.92,1.27,6.72,6.72,0,0,1,.51,1.66l-2.44.32a3.36,3.36,0,0,0-.7-1.63,2.07,2.07,0,0,0-1.64-.6,2.48,2.48,0,0,0-2.16,1.06,5.27,5.27,0,0,0-.73,3,5,5,0,0,0,.78,3A2.52,2.52,0,0,0,62,163a2.18,2.18,0,0,0,1.67-.59,2.94,2.94,0,0,0,.67-1.67Z" fill="#fff69f"/><path d="M68.67,153.07h2.46v9.66H76.7l-.26,2.11H68.67Z" fill="#fff69f"/><path d="M78.3,153.07h2.46v11.77H78.3Z" fill="#fff69f"/><path d="M93.22,160.77a5.56,5.56,0,0,1-.43,1.74,4.23,4.23,0,0,1-1,1.38,4.31,4.31,0,0,1-1.51.92,6.07,6.07,0,0,1-2.09.33,5.76,5.76,0,0,1-2.35-.45,4.73,4.73,0,0,1-1.7-1.25,5.47,5.47,0,0,1-1-2,8.7,8.7,0,0,1-.34-2.53,7.93,7.93,0,0,1,.38-2.57,5.54,5.54,0,0,1,1.08-1.94A4.83,4.83,0,0,1,86,153.2a5.67,5.67,0,0,1,2.27-.43,6.1,6.1,0,0,1,2,.28,3.77,3.77,0,0,1,2.31,2.08,6.33,6.33,0,0,1,.52,1.66l-2.44.32a3.28,3.28,0,0,0-.71-1.63,2,2,0,0,0-1.64-.6,2.47,2.47,0,0,0-2.15,1.06,5.27,5.27,0,0,0-.73,3,5,5,0,0,0,.78,3,2.49,2.49,0,0,0,2.1,1.06,2.18,2.18,0,0,0,1.68-.59,3,3,0,0,0,.67-1.67Z" fill="#fff69f"/><path d="M94.92,153.07h2.47v4.71l4.34-4.71h2.69l-3.91,4.42,4.34,7.35h-2.74l-3.31-5.75-1.41,1.43v4.32H94.92Z" fill="#fff69f"/><path d="M109.73,153.07h3l2.93,8.79,3-8.79h2.87v11.77h-2.26V157l-2.69,7.85h-1.91l-2.7-7.83v7.83h-2.21Z" fill="#fff69f"/><path d="M123.91,153.07h8v2.09h-5.58v2.57h5.25v2.11h-5.25v2.91h5.92l-.24,2.09h-8.13Z" fill="#fff69f"/><path d="M67,178.77a5.56,5.56,0,0,1-.43,1.74,4.23,4.23,0,0,1-1,1.38,4.31,4.31,0,0,1-1.51.92,6.07,6.07,0,0,1-2.09.33,5.76,5.76,0,0,1-2.35-.45,4.73,4.73,0,0,1-1.7-1.25,5.47,5.47,0,0,1-1-2,8.7,8.7,0,0,1-.34-2.53,7.93,7.93,0,0,1,.38-2.57A5.41,5.41,0,0,1,58,172.44a4.71,4.71,0,0,1,1.71-1.24,5.69,5.69,0,0,1,2.28-.43,6.08,6.08,0,0,1,2,.28,3.94,3.94,0,0,1,1.4.81,4.11,4.11,0,0,1,.92,1.27,6.72,6.72,0,0,1,.51,1.66l-2.44.32a3.36,3.36,0,0,0-.7-1.63,2.07,2.07,0,0,0-1.64-.6,2.48,2.48,0,0,0-2.16,1.06,5.27,5.27,0,0,0-.73,3,5,5,0,0,0,.78,3A2.52,2.52,0,0,0,62,181a2.18,2.18,0,0,0,1.67-.59,2.94,2.94,0,0,0,.67-1.67Z" fill="#fff69f"/><path d="M68.67,171.07h2.46v9.66H76.7l-.26,2.11H68.67Z" fill="#fff69f"/><path d="M78.3,171.07h2.46v11.77H78.3Z" fill="#fff69f"/><path d="M93.22,178.77a5.56,5.56,0,0,1-.43,1.74,4.23,4.23,0,0,1-1,1.38,4.31,4.31,0,0,1-1.51.92,6.07,6.07,0,0,1-2.09.33,5.76,5.76,0,0,1-2.35-.45,4.73,4.73,0,0,1-1.7-1.25,5.47,5.47,0,0,1-1-2,8.7,8.7,0,0,1-.34-2.53,7.93,7.93,0,0,1,.38-2.57,5.54,5.54,0,0,1,1.08-1.94A4.83,4.83,0,0,1,86,171.2a5.67,5.67,0,0,1,2.27-.43,6.1,6.1,0,0,1,2,.28,3.77,3.77,0,0,1,2.31,2.08,6.33,6.33,0,0,1,.52,1.66l-2.44.32a3.28,3.28,0,0,0-.71-1.63,2,2,0,0,0-1.64-.6,2.47,2.47,0,0,0-2.15,1.06,5.27,5.27,0,0,0-.73,3,5,5,0,0,0,.78,3,2.49,2.49,0,0,0,2.1,1.06,2.18,2.18,0,0,0,1.68-.59,3,3,0,0,0,.67-1.67Z" fill="#fff69f"/><path d="M94.92,171.07h2.47v4.71l4.34-4.71h2.69l-3.91,4.42,4.34,7.35h-2.74l-3.31-5.75-1.41,1.43v4.32H94.92Z" fill="#fff69f"/><path d="M109.73,171.07h3l2.93,8.79,3-8.79h2.87v11.77h-2.26V175l-2.69,7.85h-1.91l-2.7-7.83v7.83h-2.21Z" fill="#fff69f"/><path d="M123.91,171.07h8v2.09h-5.58v2.57h5.25v2.11h-5.25v2.91h5.92l-.24,2.09h-8.13Z" fill="#fff69f"/><path d="M67,196.77a5.56,5.56,0,0,1-.43,1.74,4.23,4.23,0,0,1-1,1.38,4.31,4.31,0,0,1-1.51.92,6.07,6.07,0,0,1-2.09.33,5.76,5.76,0,0,1-2.35-.45,4.73,4.73,0,0,1-1.7-1.25,5.47,5.47,0,0,1-1-2,8.7,8.7,0,0,1-.34-2.53,7.93,7.93,0,0,1,.38-2.57A5.41,5.41,0,0,1,58,190.44a4.71,4.71,0,0,1,1.71-1.24,5.69,5.69,0,0,1,2.28-.43,6.08,6.08,0,0,1,2,.28,3.94,3.94,0,0,1,1.4.81,4.11,4.11,0,0,1,.92,1.27,6.72,6.72,0,0,1,.51,1.66l-2.44.32a3.36,3.36,0,0,0-.7-1.63,2.07,2.07,0,0,0-1.64-.6,2.48,2.48,0,0,0-2.16,1.06,5.27,5.27,0,0,0-.73,3,5,5,0,0,0,.78,3A2.5,2.5,0,0,0,62,199a2.18,2.18,0,0,0,1.67-.59,2.94,2.94,0,0,0,.67-1.67Z" fill="#fff69f"/><path d="M68.67,189.07h2.46v9.66H76.7l-.26,2.11H68.67Z" fill="#fff69f"/><path d="M78.3,189.07h2.46v11.77H78.3Z" fill="#fff69f"/><path d="M93.22,196.77a5.56,5.56,0,0,1-.43,1.74,4.23,4.23,0,0,1-1,1.38,4.31,4.31,0,0,1-1.51.92,6.07,6.07,0,0,1-2.09.33,5.76,5.76,0,0,1-2.35-.45,4.73,4.73,0,0,1-1.7-1.25,5.47,5.47,0,0,1-1-2,8.7,8.7,0,0,1-.34-2.53,7.93,7.93,0,0,1,.38-2.57,5.54,5.54,0,0,1,1.08-1.94A4.83,4.83,0,0,1,86,189.2a5.67,5.67,0,0,1,2.27-.43,6.1,6.1,0,0,1,2,.28,3.77,3.77,0,0,1,2.31,2.08,6.33,6.33,0,0,1,.52,1.66l-2.44.32a3.28,3.28,0,0,0-.71-1.63,2,2,0,0,0-1.64-.6,2.47,2.47,0,0,0-2.15,1.06,5.27,5.27,0,0,0-.73,3,5,5,0,0,0,.78,3,2.47,2.47,0,0,0,2.1,1.06,2.18,2.18,0,0,0,1.68-.59,3,3,0,0,0,.67-1.67Z" fill="#fff69f"/><path d="M94.92,189.07h2.47v4.71l4.34-4.71h2.69l-3.91,4.42,4.34,7.35h-2.74l-3.31-5.75-1.41,1.43v4.32H94.92Z" fill="#fff69f"/><path d="M109.73,189.07h3l2.93,8.79,3-8.79h2.87v11.77h-2.26V193l-2.69,7.85h-1.91l-2.7-7.83v7.83h-2.21Z" fill="#fff69f"/><path d="M123.91,189.07h8v2.09h-5.58v2.57h5.25v2.11h-5.25v2.91h5.92l-.24,2.09h-8.13Z" fill="#fff69f"/><path d="M67,214.77a5.56,5.56,0,0,1-.43,1.74,4.23,4.23,0,0,1-1,1.38,4.31,4.31,0,0,1-1.51.92,6.07,6.07,0,0,1-2.09.33,5.76,5.76,0,0,1-2.35-.45,4.73,4.73,0,0,1-1.7-1.25,5.47,5.47,0,0,1-1-2,8.7,8.7,0,0,1-.34-2.53,7.93,7.93,0,0,1,.38-2.57A5.41,5.41,0,0,1,58,208.44a4.71,4.71,0,0,1,1.71-1.24,5.69,5.69,0,0,1,2.28-.43,6.08,6.08,0,0,1,2,.28,3.94,3.94,0,0,1,1.4.81,4.11,4.11,0,0,1,.92,1.27,6.72,6.72,0,0,1,.51,1.66l-2.44.32a3.36,3.36,0,0,0-.7-1.63,2.07,2.07,0,0,0-1.64-.6,2.48,2.48,0,0,0-2.16,1.06,5.27,5.27,0,0,0-.73,3,5,5,0,0,0,.78,3A2.5,2.5,0,0,0,62,217a2.18,2.18,0,0,0,1.67-.59,2.94,2.94,0,0,0,.67-1.67Z" fill="#fff69f"/><path d="M68.67,207.07h2.46v9.66H76.7l-.26,2.11H68.67Z" fill="#fff69f"/><path d="M78.3,207.07h2.46v11.77H78.3Z" fill="#fff69f"/><path d="M93.22,214.77a5.56,5.56,0,0,1-.43,1.74,4.23,4.23,0,0,1-1,1.38,4.31,4.31,0,0,1-1.51.92,6.07,6.07,0,0,1-2.09.33,5.76,5.76,0,0,1-2.35-.45,4.73,4.73,0,0,1-1.7-1.25,5.47,5.47,0,0,1-1-2,8.7,8.7,0,0,1-.34-2.53,7.93,7.93,0,0,1,.38-2.57,5.54,5.54,0,0,1,1.08-1.94A4.83,4.83,0,0,1,86,207.2a5.67,5.67,0,0,1,2.27-.43,6.1,6.1,0,0,1,2,.28,3.77,3.77,0,0,1,2.31,2.08,6.33,6.33,0,0,1,.52,1.66l-2.44.32a3.28,3.28,0,0,0-.71-1.63,2,2,0,0,0-1.64-.6,2.47,2.47,0,0,0-2.15,1.06,5.27,5.27,0,0,0-.73,3,5,5,0,0,0,.78,3,2.47,2.47,0,0,0,2.1,1.06,2.18,2.18,0,0,0,1.68-.59,3,3,0,0,0,.67-1.67Z" fill="#fff69f"/><path d="M94.92,207.07h2.47v4.71l4.34-4.71h2.69l-3.91,4.42,4.34,7.35h-2.74l-3.31-5.75-1.41,1.43v4.32H94.92Z" fill="#fff69f"/><path d="M109.73,207.07h3l2.93,8.79,3-8.79h2.87v11.77h-2.26V211l-2.69,7.85h-1.91l-2.7-7.83v7.83h-2.21Z" fill="#fff69f"/><path d="M123.91,207.07h8v2.09h-5.58v2.57h5.25v2.11h-5.25v2.91h5.92l-.24,2.09h-8.13Z" fill="#fff69f"/></g><rect x="233.1" y="15.6" width="154.99" height="60.3" rx="4" fill="#263135" opacity="0.45" stroke-linecap="round" stroke-linejoin="round" stroke-width="3" stroke="#263135"/><rect x="238.28" y="10.09" width="154.99" height="60.3" rx="4" stroke-width="3" stroke="#263135" stroke-linecap="round" stroke-linejoin="round" fill="#8cc63f"/><path d="M253.12,21.82H257a7,7,0,0,1,1.95.23,3.1,3.1,0,0,1,1.22.61,2.12,2.12,0,0,1,.63.92,3.78,3.78,0,0,1,.17,1.14,2.65,2.65,0,0,1-.27,1.18,2.21,2.21,0,0,1-1,1,3.87,3.87,0,0,1,.79.53,2.39,2.39,0,0,1,.48.59,2.69,2.69,0,0,1,.24.65,3.7,3.7,0,0,1,.07.66,3.8,3.8,0,0,1-.21,1.27,2.46,2.46,0,0,1-.67,1,3.43,3.43,0,0,1-1.24.69,6.05,6.05,0,0,1-1.89.25h-4.11Zm4.11,4.25a1.68,1.68,0,0,0,1.21-.33,1.3,1.3,0,0,0,.34-.95,1.05,1.05,0,0,0-.43-.94,2.88,2.88,0,0,0-1.45-.27h-1.62v2.49Zm-.08,4.71a3.43,3.43,0,0,0,.93-.11,1.44,1.44,0,0,0,.59-.31,1.07,1.07,0,0,0,.32-.47,2.25,2.25,0,0,0,.08-.61,1.39,1.39,0,0,0-.37-1.05,1.9,1.9,0,0,0-1.32-.36h-2.1v2.91Z" fill="#ee33a7"/><path d="M262.76,21.82H265V28.2a3.44,3.44,0,0,0,.48,2,2.27,2.27,0,0,0,3.2,0,3.44,3.44,0,0,0,.47-2V21.82h2.24V28.2a6.39,6.39,0,0,1-.3,2.08,3.93,3.93,0,0,1-.85,1.44,3.54,3.54,0,0,1-1.36.82,6,6,0,0,1-1.81.26,5.66,5.66,0,0,1-1.82-.27,3.42,3.42,0,0,1-1.36-.83,3.63,3.63,0,0,1-.84-1.45,6.87,6.87,0,0,1-.29-2.1Z" fill="#ee33a7"/><path d="M276.13,28.17l-3.7-6.35h2.48l2.32,4.34,2.38-4.34H282l-3.62,6.35v4.36h-2.23Z" fill="#ee33a7"/><path d="M286.57,21.82h2.68l2.67,8,2.75-8h2.61V32.53h-2.06V25.39l-2.44,7.14H291l-2.46-7.12v7.12h-2Z" fill="#ee33a7"/><path d="M304.24,32.8a5.61,5.61,0,0,1-2.15-.39,4.33,4.33,0,0,1-1.6-1.12,5,5,0,0,1-1-1.77,7.78,7.78,0,0,1,0-4.68,4.84,4.84,0,0,1,1-1.77,4.39,4.39,0,0,1,1.61-1.13,6,6,0,0,1,4.27,0,4.27,4.27,0,0,1,1.6,1.13,5,5,0,0,1,1,1.77,7.38,7.38,0,0,1,.34,2.34,7.69,7.69,0,0,1-.33,2.34,5.08,5.08,0,0,1-1,1.77,4.33,4.33,0,0,1-1.6,1.12A5.62,5.62,0,0,1,304.24,32.8Zm0-1.92a2.41,2.41,0,0,0,2.1-1,4.64,4.64,0,0,0,.69-2.74,4.68,4.68,0,0,0-.69-2.74,2.76,2.76,0,0,0-4.2,0,4.68,4.68,0,0,0-.69,2.74,4.64,4.64,0,0,0,.69,2.74A2.41,2.41,0,0,0,304.22,30.88Z" fill="#ee33a7"/><path d="M311.17,21.82H315a6.39,6.39,0,0,1,2.08.29,3.31,3.31,0,0,1,1.28.77,2.6,2.6,0,0,1,.65,1.05,3.75,3.75,0,0,1,.18,1.13,3.67,3.67,0,0,1-.38,1.74A3,3,0,0,1,317.51,28l2.18,4.54h-2.42l-1.8-4h-2.1v4h-2.2Zm3.94,4.83a3,3,0,0,0,.87-.11,1.32,1.32,0,0,0,.55-.31,1.05,1.05,0,0,0,.28-.49,2.48,2.48,0,0,0,.07-.63,1.67,1.67,0,0,0-.09-.55,1.15,1.15,0,0,0-.3-.46,1.43,1.43,0,0,0-.6-.32,3.36,3.36,0,0,0-1-.11h-1.55v3Z" fill="#ee33a7"/><path d="M321,21.82h7.31v1.91H323.2v2.34H328V28H323.2v2.64h5.38l-.22,1.9H321Z" fill="#ee33a7"/><path d="M335,29a1.92,1.92,0,0,0,.64,1.44,2.58,2.58,0,0,0,1.65.45,2.86,2.86,0,0,0,.89-.12,1.66,1.66,0,0,0,.58-.29,1.19,1.19,0,0,0,.33-.45,1.63,1.63,0,0,0,.09-.55,1.2,1.2,0,0,0-.31-.79,2,2,0,0,0-1.16-.53l-1.39-.26a8.31,8.31,0,0,1-1.46-.39,3.17,3.17,0,0,1-1.05-.62,2.43,2.43,0,0,1-.66-.94,3.51,3.51,0,0,1-.22-1.32,2.8,2.8,0,0,1,.31-1.35,2.73,2.73,0,0,1,.85-1,3.94,3.94,0,0,1,1.31-.59,6.33,6.33,0,0,1,1.68-.21,6,6,0,0,1,1.95.27,3.62,3.62,0,0,1,1.26.71,2.92,2.92,0,0,1,.72,1,5.07,5.07,0,0,1,.3,1.22l-2.11.27a2.08,2.08,0,0,0-.64-1.28,2.2,2.2,0,0,0-1.43-.39,4,4,0,0,0-.94.1,2.18,2.18,0,0,0-.59.25.92.92,0,0,0-.32.37,1.12,1.12,0,0,0-.09.44,1.16,1.16,0,0,0,.34.9,2.55,2.55,0,0,0,1.15.46l1.47.29a5,5,0,0,1,2.55,1.12,2.91,2.91,0,0,1,.81,2.22,3.24,3.24,0,0,1-.26,1.3,2.91,2.91,0,0,1-.78,1,3.75,3.75,0,0,1-1.3.7,6.25,6.25,0,0,1-1.83.24,5.18,5.18,0,0,1-3.35-.94A3.62,3.62,0,0,1,332.69,29Z" fill="#ee33a7"/><path d="M345.32,23.76H342.1V21.82h8.7v1.94h-3.23v8.77h-2.25Z" fill="#ee33a7"/><path d="M352,21.82h2.24V28.2a3.44,3.44,0,0,0,.48,2,2.27,2.27,0,0,0,3.2,0,3.44,3.44,0,0,0,.48-2V21.82h2.23V28.2a6.39,6.39,0,0,1-.3,2.08,3.93,3.93,0,0,1-.85,1.44,3.47,3.47,0,0,1-1.36.82,6,6,0,0,1-1.81.26,5.66,5.66,0,0,1-1.82-.27,3.42,3.42,0,0,1-1.36-.83,3.63,3.63,0,0,1-.84-1.45,6.87,6.87,0,0,1-.29-2.1Z" fill="#ee33a7"/><path d="M362.59,21.82h7v1.92h-4.8v2.52h4.52v1.92h-4.52v4.35h-2.23Z" fill="#ee33a7"/><path d="M371.35,21.82h7v1.92h-4.8v2.52h4.52v1.92h-4.52v4.35h-2.23Z" fill="#ee33a7"/><rect x="238.28" y="10.09" width="154.99" height="61.26" rx="4" fill="none"/><rect x="271.2" y="41.38" width="90.11" height="17.66" rx="8" fill="#202b0e"/><path d="M302.12,51.4a2.36,2.36,0,0,1-.21.84,1.89,1.89,0,0,1-.47.67,2.1,2.1,0,0,1-.74.45,2.82,2.82,0,0,1-1,.16,2.73,2.73,0,0,1-1.14-.22,2.15,2.15,0,0,1-.82-.61,2.57,2.57,0,0,1-.5-.94,4.3,4.3,0,0,1-.17-1.23,4.06,4.06,0,0,1,.18-1.25,2.77,2.77,0,0,1,.53-.94,2.31,2.31,0,0,1,.84-.6,2.73,2.73,0,0,1,1.1-.21,3,3,0,0,1,1,.13,2.07,2.07,0,0,1,.68.4,2,2,0,0,1,.44.61,3.2,3.2,0,0,1,.25.81l-1.19.15a1.51,1.51,0,0,0-.34-.79,1,1,0,0,0-.79-.29,1.19,1.19,0,0,0-1,.52,2.6,2.6,0,0,0-.35,1.46,2.44,2.44,0,0,0,.38,1.46,1.2,1.2,0,0,0,1,.51,1,1,0,0,0,.81-.28,1.43,1.43,0,0,0,.32-.81Z" fill="#fff"/><path d="M302.87,47.66H304v5.71h-1.12Z" fill="#fff"/><path d="M305,47.66h1.15v1H305Zm0,1.54h1.12v4.17H305Z" fill="#fff"/><path d="M310.87,51.86a1.85,1.85,0,0,1-.52,1.2,1.87,1.87,0,0,1-1.35.44,2.36,2.36,0,0,1-.92-.16,1.49,1.49,0,0,1-.62-.45,1.77,1.77,0,0,1-.37-.69,3.18,3.18,0,0,1-.12-.91,2.83,2.83,0,0,1,.14-.9,2.07,2.07,0,0,1,.41-.71,1.85,1.85,0,0,1,.64-.45,2.23,2.23,0,0,1,.88-.16,2.31,2.31,0,0,1,.74.11,1.49,1.49,0,0,1,.54.3,1.39,1.39,0,0,1,.33.46,1.83,1.83,0,0,1,.16.59l-1.12.15a1.11,1.11,0,0,0-.19-.52A.58.58,0,0,0,309,50a.77.77,0,0,0-.42.1.87.87,0,0,0-.27.3,1.59,1.59,0,0,0-.14.42,3.74,3.74,0,0,0,0,.49,4,4,0,0,0,0,.5,1.45,1.45,0,0,0,.14.43.73.73,0,0,0,.26.29.83.83,0,0,0,.43.11.7.7,0,0,0,.52-.2.87.87,0,0,0,.21-.55Z" fill="#fff"/><path d="M311.67,47.66h1.09v3l1.61-1.45h1.3l-1.52,1.44,1.64,2.73h-1.21l-1.23-2.11-.59.53v1.58h-1.09Z" fill="#fff"/><path d="M318.07,47.66h1.12v2.07a1.58,1.58,0,0,1,.57-.5,1.52,1.52,0,0,1,.69-.16,1.37,1.37,0,0,1,1.06.37,1.69,1.69,0,0,1,.34,1.17v2.76h-1.12v-2.6a.77.77,0,0,0-.17-.6.6.6,0,0,0-.44-.16,1.08,1.08,0,0,0-.38.06,1,1,0,0,0-.29.18,1.31,1.31,0,0,0-.19.27.8.8,0,0,0-.07.34v2.51h-1.12Z" fill="#fff"/><path d="M326.63,52.07a1.63,1.63,0,0,1-.57,1.07,2.06,2.06,0,0,1-1.31.36,2,2,0,0,1-1.57-.57,2.36,2.36,0,0,1-.52-1.64,2.77,2.77,0,0,1,.15-.94,2.17,2.17,0,0,1,.43-.7,1.76,1.76,0,0,1,.66-.43,2.34,2.34,0,0,1,.85-.15,1.8,1.8,0,0,1,1.44.55,2.16,2.16,0,0,1,.49,1.49v.45h-2.9a1.27,1.27,0,0,0,.26.79.89.89,0,0,0,.72.28.7.7,0,0,0,.78-.56Zm-1-1.25a.93.93,0,0,0-.22-.67.83.83,0,0,0-.66-.24,1.13,1.13,0,0,0-.39.07,1,1,0,0,0-.28.2.79.79,0,0,0-.18.29,1,1,0,0,0-.07.35Z" fill="#fff"/><path d="M327.52,49.2h1.08v.58a1.4,1.4,0,0,1,.51-.49,1.25,1.25,0,0,1,.62-.16H330l.18,0-.14,1a2,2,0,0,0-.47,0,1.34,1.34,0,0,0-.35,0,.73.73,0,0,0-.3.16.86.86,0,0,0-.22.29,1,1,0,0,0-.06.33v2.41h-1.12Z" fill="#fff"/><path d="M334.49,52.07a1.62,1.62,0,0,1-.56,1.07,2.08,2.08,0,0,1-1.32.36,2,2,0,0,1-1.56-.57,2.36,2.36,0,0,1-.53-1.64,2.54,2.54,0,0,1,.16-.94,2.14,2.14,0,0,1,.42-.7,1.93,1.93,0,0,1,.66-.43,2.34,2.34,0,0,1,.85-.15,1.83,1.83,0,0,1,1.45.55,2.21,2.21,0,0,1,.48,1.49v.45h-2.9a1.27,1.27,0,0,0,.26.79.89.89,0,0,0,.72.28.7.7,0,0,0,.78-.56Zm-1-1.25a1,1,0,0,0-.21-.67.83.83,0,0,0-.66-.24,1.13,1.13,0,0,0-.39.07.88.88,0,0,0-.29.2,1.19,1.19,0,0,0-.18.29,1.28,1.28,0,0,0-.07.35Z" fill="#fff"/><rect x="242.2" y="148.95" width="155.54" height="131.77" rx="4" fill="#263135" opacity="0.25" stroke-linecap="round" stroke-linejoin="round" stroke-width="3" stroke="#263135"/><rect x="256.32" y="130.98" width="155.54" height="131.77" rx="4" stroke-width="3" stroke="#263135" stroke-linecap="round" stroke-linejoin="round" fill="#fff"/><rect x="267.74" y="165.28" width="133.81" height="54.76" fill="url(#b)"/><circle cx="275.33" cy="148.57" r="7.59" fill="url(#c)"/><circle cx="399.78" cy="148.57" r="1.59" fill="#263135"/><circle cx="394.47" cy="148.57" r="1.59" fill="#263135"/><circle cx="389.23" cy="148.57" r="1.59" fill="#263135"/><path d="M288.25,150.21h-.88v-.6h1l.3-1.83h-1v-.6h1.07l.26-1.61h.72l-.28,1.61h1.47l.26-1.61h.72l-.26,1.61h.85v.6h-.95l-.3,1.83h.91v.6h-1l-.26,1.63h-.72l.27-1.63H289l-.26,1.63H288Zm2.29-.6.3-1.83h-1.46l-.3,1.83Z" fill="#202b0e"/><path d="M296.28,151.18a2.51,2.51,0,0,1-.66.54,2,2,0,0,1-1,.23,2.29,2.29,0,0,1-.66-.09,1.51,1.51,0,0,1-.52-.27,1.28,1.28,0,0,1-.34-.45,1.54,1.54,0,0,1-.12-.63,1.36,1.36,0,0,1,.21-.79,1.45,1.45,0,0,1,.56-.48,2.64,2.64,0,0,1,.78-.25,6.53,6.53,0,0,1,.9-.09l.82,0v-.19a1.22,1.22,0,0,0-.26-.87,1.11,1.11,0,0,0-.84-.27,1.43,1.43,0,0,0-.84.19.83.83,0,0,0-.35.52l-.73-.08a1.36,1.36,0,0,1,.61-1,2.56,2.56,0,0,1,1.34-.3,2.77,2.77,0,0,1,.87.12,1.59,1.59,0,0,1,.58.36,1.44,1.44,0,0,1,.32.57,3.07,3.07,0,0,1,.09.77v3.11h-.77Zm0-1.74-.77,0a4.14,4.14,0,0,0-.81.09,1.71,1.71,0,0,0-.52.2.7.7,0,0,0-.26.31,1,1,0,0,0-.08.43.77.77,0,0,0,.21.57,1,1,0,0,0,.72.22,1.62,1.62,0,0,0,1.11-.35,1.25,1.25,0,0,0,.4-1Z" fill="#202b0e"/><path d="M301.75,151.15a2.33,2.33,0,0,1-.68.62,1.92,1.92,0,0,1-.92.21,2,2,0,0,1-.91-.19,1.72,1.72,0,0,1-.63-.53,2.27,2.27,0,0,1-.37-.8,4,4,0,0,1-.12-1,3.91,3.91,0,0,1,.14-1.07,2.39,2.39,0,0,1,.42-.81,2,2,0,0,1,.67-.51,2.28,2.28,0,0,1,.89-.17,2.15,2.15,0,0,1,.77.15,1.75,1.75,0,0,1,.72.58v-2.4h.8v6.6h-.78Zm0-1.85a2.36,2.36,0,0,0-.13-.89,1.26,1.26,0,0,0-.41-.54,1.13,1.13,0,0,0-.41-.23,1.64,1.64,0,0,0-.46-.07,1.46,1.46,0,0,0-.55.11,1,1,0,0,0-.44.32,1.56,1.56,0,0,0-.3.59,3,3,0,0,0-.1.86,3.22,3.22,0,0,0,.11.89,1.54,1.54,0,0,0,.31.57,1.24,1.24,0,0,0,.42.31,1.37,1.37,0,0,0,.49.09,1.43,1.43,0,0,0,.48-.07,1.22,1.22,0,0,0,.42-.22,1.33,1.33,0,0,0,.42-.55,2,2,0,0,0,.15-.84Z" fill="#202b0e"/><path d="M269.19,235.13a1,1,0,0,0,.42.7,1.85,1.85,0,0,0,.92.2,1.39,1.39,0,0,0,.87-.21.67.67,0,0,0,.25-.55,1.09,1.09,0,0,0,0-.26.53.53,0,0,0-.13-.23.78.78,0,0,0-.26-.17,1.73,1.73,0,0,0-.43-.12l-.61-.09a3.9,3.9,0,0,1-.71-.17A1.49,1.49,0,0,1,269,234a1,1,0,0,1-.32-.4,1.35,1.35,0,0,1-.11-.57,1.18,1.18,0,0,1,.15-.59,1.29,1.29,0,0,1,.4-.44,1.74,1.74,0,0,1,.6-.27,2.57,2.57,0,0,1,.75-.1,3,3,0,0,1,.86.1,1.6,1.6,0,0,1,.57.28,1.21,1.21,0,0,1,.34.41,2.23,2.23,0,0,1,.19.51l-.73.12a1.52,1.52,0,0,0-.15-.34.64.64,0,0,0-.22-.24.88.88,0,0,0-.34-.15,1.76,1.76,0,0,0-.49,0,2.23,2.23,0,0,0-.56.06,1,1,0,0,0-.35.16.51.51,0,0,0-.19.23.58.58,0,0,0-.06.26.68.68,0,0,0,0,.26.41.41,0,0,0,.14.21,1.41,1.41,0,0,0,.28.15,2.46,2.46,0,0,0,.45.11l.69.11a2.32,2.32,0,0,1,1.21.48,1.49,1.49,0,0,1,.24,1.56,1.25,1.25,0,0,1-.36.44,1.69,1.69,0,0,1-.6.3,3,3,0,0,1-.84.1,3.48,3.48,0,0,1-.81-.08,2.17,2.17,0,0,1-.66-.26,1.41,1.41,0,0,1-.46-.48,1.6,1.6,0,0,1-.21-.72Z" fill="#202b0e"/><path d="M273.5,231.75h.79v.68a2.12,2.12,0,0,1,.69-.62,1.92,1.92,0,0,1,.92-.21,2,2,0,0,1,.89.18,1.81,1.81,0,0,1,.64.52,2.23,2.23,0,0,1,.38.79,4,4,0,0,1,.13,1,3.55,3.55,0,0,1-.15,1.07,2.24,2.24,0,0,1-.43.81,1.87,1.87,0,0,1-.67.51,2.07,2.07,0,0,1-.88.18,2,2,0,0,1-.8-.16,1.74,1.74,0,0,1-.71-.58v2.39h-.8Zm.79,2.52a2.6,2.6,0,0,0,.11.79,1.54,1.54,0,0,0,.29.54,1,1,0,0,0,.45.31,1.47,1.47,0,0,0,.56.1,1.63,1.63,0,0,0,.55-.1,1.16,1.16,0,0,0,.44-.33A1.71,1.71,0,0,0,277,235a3.15,3.15,0,0,0,.11-.88,2.79,2.79,0,0,0-.12-.88,1.69,1.69,0,0,0-.3-.57,1,1,0,0,0-.42-.3,1.37,1.37,0,0,0-.49-.09,1.57,1.57,0,0,0-.58.1,1.36,1.36,0,0,0-.47.32,1.47,1.47,0,0,0-.31.52,2.35,2.35,0,0,0-.11.74Z" fill="#202b0e"/><path d="M281.16,236.67a2.66,2.66,0,0,1-1-.17,2.16,2.16,0,0,1-.72-.5,2.09,2.09,0,0,1-.45-.8,3.42,3.42,0,0,1,0-2.1,2.16,2.16,0,0,1,.47-.81,2.09,2.09,0,0,1,.73-.51,2.49,2.49,0,0,1,1-.18,2.61,2.61,0,0,1,1,.17,2.09,2.09,0,0,1,.73.51,2.12,2.12,0,0,1,.45.79,3.11,3.11,0,0,1,.16,1,3.25,3.25,0,0,1-.16,1.07,2.33,2.33,0,0,1-.46.8,2,2,0,0,1-.74.51A2.5,2.5,0,0,1,281.16,236.67Zm0-.66a1.54,1.54,0,0,0,.67-.14,1.2,1.2,0,0,0,.45-.39,1.78,1.78,0,0,0,.27-.59,3.71,3.71,0,0,0,.08-.77,3.52,3.52,0,0,0-.08-.75,1.72,1.72,0,0,0-.27-.58,1.3,1.3,0,0,0-.45-.39,1.54,1.54,0,0,0-.67-.13,1.47,1.47,0,0,0-.66.13,1.3,1.3,0,0,0-.45.39,1.72,1.72,0,0,0-.27.58,3.65,3.65,0,0,0,0,1.52,2,2,0,0,0,.26.59,1.16,1.16,0,0,0,.46.39A1.46,1.46,0,0,0,281.17,236Z" fill="#202b0e"/><path d="M284.57,231.75h.8v.73a2.12,2.12,0,0,1,.77-.68,2.18,2.18,0,0,1,.9-.2,1.56,1.56,0,0,1,1.21.44,1.93,1.93,0,0,1,.39,1.31v3.18h-.8v-3a1.45,1.45,0,0,0-.24-.94,1,1,0,0,0-.74-.27,1.47,1.47,0,0,0-.54.1,1.36,1.36,0,0,0-.47.29,1.51,1.51,0,0,0-.35.43,1.26,1.26,0,0,0-.12.59v2.83h-.81Z" fill="#202b0e"/><path d="M290.36,235.13a.91.91,0,0,0,.42.7,1.82,1.82,0,0,0,.92.2,1.35,1.35,0,0,0,.86-.21.68.68,0,0,0,.26-.55,1.09,1.09,0,0,0,0-.26.65.65,0,0,0-.13-.23.9.9,0,0,0-.26-.17,1.73,1.73,0,0,0-.43-.12l-.61-.09a3.9,3.9,0,0,1-.71-.17,1.49,1.49,0,0,1-.52-.26,1,1,0,0,1-.32-.4,1.35,1.35,0,0,1-.11-.57,1.18,1.18,0,0,1,.15-.59,1.26,1.26,0,0,1,.39-.44,1.83,1.83,0,0,1,.6-.27,2.68,2.68,0,0,1,.76-.1,3,3,0,0,1,.86.1,1.69,1.69,0,0,1,.57.28,1.21,1.21,0,0,1,.34.41,2.82,2.82,0,0,1,.19.51l-.73.12a2.16,2.16,0,0,0-.15-.34.73.73,0,0,0-.22-.24,1,1,0,0,0-.34-.15,1.76,1.76,0,0,0-.49,0,2.18,2.18,0,0,0-.56.06.88.88,0,0,0-.35.16.51.51,0,0,0-.19.23.58.58,0,0,0-.06.26.68.68,0,0,0,0,.26.41.41,0,0,0,.14.21,1.3,1.3,0,0,0,.27.15,2.84,2.84,0,0,0,.46.11l.69.11a2.32,2.32,0,0,1,1.21.48,1.49,1.49,0,0,1,.24,1.56,1.25,1.25,0,0,1-.36.44,1.69,1.69,0,0,1-.6.3,3,3,0,0,1-.84.1,3.48,3.48,0,0,1-.81-.08,2.17,2.17,0,0,1-.66-.26,1.32,1.32,0,0,1-.46-.48,1.6,1.6,0,0,1-.21-.72Z" fill="#202b0e"/><path d="M296.67,236.67a2.7,2.7,0,0,1-1-.17,2.16,2.16,0,0,1-.72-.5,2.09,2.09,0,0,1-.45-.8,3.42,3.42,0,0,1,0-2.1,2.3,2.3,0,0,1,.47-.81,2.09,2.09,0,0,1,.73-.51,2.49,2.49,0,0,1,1-.18,2.61,2.61,0,0,1,1,.17,2.09,2.09,0,0,1,.73.51,2.12,2.12,0,0,1,.45.79,3.11,3.11,0,0,1,.16,1,3.25,3.25,0,0,1-.16,1.07,2.33,2.33,0,0,1-.46.8,2,2,0,0,1-.74.51A2.5,2.5,0,0,1,296.67,236.67Zm0-.66a1.54,1.54,0,0,0,.67-.14,1.23,1.23,0,0,0,.46-.39,1.76,1.76,0,0,0,.26-.59,3.71,3.71,0,0,0,.08-.77,3.52,3.52,0,0,0-.08-.75,1.71,1.71,0,0,0-.26-.58,1.33,1.33,0,0,0-.46-.39,1.54,1.54,0,0,0-.67-.13,1.47,1.47,0,0,0-.66.13,1.3,1.3,0,0,0-.45.39,1.72,1.72,0,0,0-.27.58,3.65,3.65,0,0,0,0,1.52,2,2,0,0,0,.26.59,1.16,1.16,0,0,0,.46.39A1.46,1.46,0,0,0,296.68,236Z" fill="#202b0e"/><path d="M300.08,231.75h.8v.74a1.92,1.92,0,0,1,.63-.61,1.4,1.4,0,0,1,.76-.22,2.52,2.52,0,0,1,.43,0l-.1.75-.19,0-.2,0a1.42,1.42,0,0,0-.45.08,1.14,1.14,0,0,0-.44.27,1.38,1.38,0,0,0-.32.4,1.3,1.3,0,0,0-.11.54v2.84h-.81Z" fill="#202b0e"/><path d="M307.32,235.19a1.73,1.73,0,0,1-.61,1.09,2.26,2.26,0,0,1-1.42.39,2.13,2.13,0,0,1-1.68-.66,2.72,2.72,0,0,1-.58-1.84,3.39,3.39,0,0,1,.17-1.1,2.17,2.17,0,0,1,.47-.8,1.87,1.87,0,0,1,.71-.5,2.46,2.46,0,0,1,.91-.17,2.48,2.48,0,0,1,.95.17,1.78,1.78,0,0,1,.65.49,2,2,0,0,1,.38.73,3.5,3.5,0,0,1,.13.94v.41h-3.55a2.41,2.41,0,0,0,.09.67,1.78,1.78,0,0,0,.28.53,1.33,1.33,0,0,0,.45.36,1.49,1.49,0,0,0,.62.13,1.4,1.4,0,0,0,.88-.23,1.13,1.13,0,0,0,.37-.61Zm-.73-1.46a2.45,2.45,0,0,0-.07-.62,1.38,1.38,0,0,0-.23-.47,1.06,1.06,0,0,0-.41-.31,1.57,1.57,0,0,0-.6-.11,1.29,1.29,0,0,0-1,.39,1.94,1.94,0,0,0-.42,1.12Z" fill="#202b0e"/><path d="M311.93,235.84a2.1,2.1,0,0,1-.68.62,1.89,1.89,0,0,1-.92.21,2,2,0,0,1-.91-.19,1.9,1.9,0,0,1-.63-.53,2.27,2.27,0,0,1-.37-.8,4,4,0,0,1-.12-1,3.59,3.59,0,0,1,.15-1.07,2.49,2.49,0,0,1,.42-.81,1.84,1.84,0,0,1,.66-.51,2.33,2.33,0,0,1,.9-.17,2.06,2.06,0,0,1,.76.15,1.75,1.75,0,0,1,.72.58v-2.4h.81v6.6h-.79Zm0-1.85a2.61,2.61,0,0,0-.12-.89,1.39,1.39,0,0,0-.83-.77,1.58,1.58,0,0,0-.45-.06,1.42,1.42,0,0,0-.55.1,1.07,1.07,0,0,0-.45.32,1.81,1.81,0,0,0-.29.59,3,3,0,0,0-.11.86,2.86,2.86,0,0,0,.12.89,1.53,1.53,0,0,0,.3.57,1.15,1.15,0,0,0,.43.31,1.36,1.36,0,0,0,.48.09,1.43,1.43,0,0,0,.48-.07,1.17,1.17,0,0,0,.43-.22,1.52,1.52,0,0,0,.42-.55,2,2,0,0,0,.14-.84Z" fill="#202b0e"/><path d="M320.17,234.91a2.09,2.09,0,0,1-.63,1.29,2,2,0,0,1-1.43.47,2.63,2.63,0,0,1-1-.17,1.89,1.89,0,0,1-.7-.51,2.15,2.15,0,0,1-.43-.79,3.76,3.76,0,0,1-.14-1,3.11,3.11,0,0,1,.16-1,2.13,2.13,0,0,1,.45-.81,2.22,2.22,0,0,1,.72-.52,2.49,2.49,0,0,1,1-.18,1.91,1.91,0,0,1,1.33.42,2,2,0,0,1,.61,1.16l-.81.15a2.43,2.43,0,0,0-.12-.43,1.33,1.33,0,0,0-.22-.34,1.17,1.17,0,0,0-.34-.22,1.33,1.33,0,0,0-.47-.07,1.3,1.3,0,0,0-.65.14,1.13,1.13,0,0,0-.44.4,1.75,1.75,0,0,0-.25.59,3.37,3.37,0,0,0,0,1.46,1.46,1.46,0,0,0,.24.6,1.18,1.18,0,0,0,.43.4,1.34,1.34,0,0,0,.66.15,1.14,1.14,0,0,0,.86-.3,1.46,1.46,0,0,0,.37-.8Z" fill="#202b0e"/><path d="M323.25,236.67a2.63,2.63,0,0,1-1-.17,2,2,0,0,1-.72-.5,2.24,2.24,0,0,1-.46-.8,3.41,3.41,0,0,1-.15-1,3.13,3.13,0,0,1,.16-1.05,2.3,2.3,0,0,1,.47-.81,2.13,2.13,0,0,1,.74-.51,2.45,2.45,0,0,1,1-.18,2.69,2.69,0,0,1,1,.17,2.05,2.05,0,0,1,.72.51,2.14,2.14,0,0,1,.46.79,3.11,3.11,0,0,1,.16,1,3.54,3.54,0,0,1-.16,1.07,2.35,2.35,0,0,1-.47.8,2,2,0,0,1-.73.51A2.5,2.5,0,0,1,323.25,236.67Zm0-.66a1.46,1.46,0,0,0,.66-.14,1.16,1.16,0,0,0,.46-.39,1.59,1.59,0,0,0,.26-.59,3.13,3.13,0,0,0,.09-.77,3,3,0,0,0-.09-.75,1.54,1.54,0,0,0-.26-.58,1.25,1.25,0,0,0-.46-.39,1.74,1.74,0,0,0-1.32,0,1.25,1.25,0,0,0-.46.39,1.71,1.71,0,0,0-.26.58,3.65,3.65,0,0,0,0,1.52,1.76,1.76,0,0,0,.26.59,1.2,1.2,0,0,0,.45.39A1.54,1.54,0,0,0,323.26,236Z" fill="#202b0e"/><path d="M326.66,231.75h.79v.73a2.23,2.23,0,0,1,.78-.68,2.12,2.12,0,0,1,.9-.2,1.53,1.53,0,0,1,1.2.44,1.93,1.93,0,0,1,.4,1.31v3.18h-.81v-3a1.45,1.45,0,0,0-.24-.94,1,1,0,0,0-.74-.27,1.42,1.42,0,0,0-.53.1,1.32,1.32,0,0,0-.48.29,1.7,1.7,0,0,0-.35.43,1.26,1.26,0,0,0-.12.59v2.83h-.8Z" fill="#202b0e"/><path d="M332.2,232.39h-.73v-.64h.73v-1.31H333v1.31h1.27v.64H333v2.8a.89.89,0,0,0,.16.56.55.55,0,0,0,.48.21,1.83,1.83,0,0,0,.35,0,1.15,1.15,0,0,0,.28-.07l.14.62a3.26,3.26,0,0,1-.4.11,3.52,3.52,0,0,1-.51,0,1.56,1.56,0,0,1-.66-.12,1.1,1.1,0,0,1-.4-.34,1.45,1.45,0,0,1-.19-.53,3.48,3.48,0,0,1-.06-.67Z" fill="#202b0e"/><path d="M339.13,235.19a1.74,1.74,0,0,1-.62,1.09,2.24,2.24,0,0,1-1.42.39,2.12,2.12,0,0,1-1.67-.66,2.67,2.67,0,0,1-.58-1.84,3.14,3.14,0,0,1,.17-1.1,2.16,2.16,0,0,1,.46-.8,1.91,1.91,0,0,1,.72-.5,2.44,2.44,0,0,1,.9-.17,2.53,2.53,0,0,1,1,.17,1.78,1.78,0,0,1,.65.49,2.2,2.2,0,0,1,.38.73,3.51,3.51,0,0,1,.12.94v.41h-3.55a2.09,2.09,0,0,0,.1.67,1.58,1.58,0,0,0,.28.53,1.33,1.33,0,0,0,.45.36,1.44,1.44,0,0,0,.61.13,1.38,1.38,0,0,0,.88-.23,1.14,1.14,0,0,0,.38-.61Zm-.73-1.46a2.45,2.45,0,0,0-.08-.62,1.22,1.22,0,0,0-.23-.47,1,1,0,0,0-.4-.31,1.58,1.58,0,0,0-.61-.11,1.28,1.28,0,0,0-1,.39,1.82,1.82,0,0,0-.42,1.12Z" fill="#202b0e"/><path d="M340.26,231.75h.8v.73a2.07,2.07,0,0,1,.78-.68,2.1,2.1,0,0,1,.89-.2,1.54,1.54,0,0,1,1.21.44,1.93,1.93,0,0,1,.39,1.31v3.18h-.8v-3a1.45,1.45,0,0,0-.24-.94,1,1,0,0,0-.74-.27,1.39,1.39,0,0,0-.53.1,1.32,1.32,0,0,0-.48.29,1.7,1.7,0,0,0-.35.43,1.26,1.26,0,0,0-.12.59v2.83h-.81Z" fill="#202b0e"/><path d="M345.81,232.39h-.74v-.64h.74v-1.31h.81v1.31h1.26v.64h-1.26v2.8a1,1,0,0,0,.15.56.57.57,0,0,0,.48.21,1.86,1.86,0,0,0,.36,0,1.28,1.28,0,0,0,.28-.07l.14.62-.4.11a3.8,3.8,0,0,1-.52,0,1.48,1.48,0,0,1-.65-.12,1,1,0,0,1-.4-.34,1.46,1.46,0,0,1-.2-.53,4.57,4.57,0,0,1-.05-.67Z" fill="#202b0e"/><path d="M350.78,237.54a1.65,1.65,0,0,0,.52.1.66.66,0,0,0,.46-.16,1.58,1.58,0,0,0,.32-.57l.19-.5-2-4.66h.93l1.51,3.75,1.37-3.75H355L352.86,237a5.09,5.09,0,0,1-.26.57,2.19,2.19,0,0,1-.28.42,1.12,1.12,0,0,1-.38.26,1.36,1.36,0,0,1-.53.09,2.18,2.18,0,0,1-.78-.13Z" fill="#202b0e"/><path d="M357.59,236.67a2.7,2.7,0,0,1-1-.17,2.16,2.16,0,0,1-.72-.5,2.22,2.22,0,0,1-.45-.8,3.4,3.4,0,0,1-.16-1,3.12,3.12,0,0,1,.17-1.05,2.3,2.3,0,0,1,.47-.81,2,2,0,0,1,.74-.51,2.4,2.4,0,0,1,.95-.18,2.61,2.61,0,0,1,1,.17,2,2,0,0,1,.73.51,2.29,2.29,0,0,1,.46.79,3.39,3.39,0,0,1,.15,1,3.25,3.25,0,0,1-.16,1.07,2.33,2.33,0,0,1-.46.8,2.09,2.09,0,0,1-.73.51A2.55,2.55,0,0,1,357.59,236.67Zm0-.66a1.51,1.51,0,0,0,.67-.14,1.23,1.23,0,0,0,.46-.39,1.59,1.59,0,0,0,.26-.59,3.14,3.14,0,0,0,.08-.77,3,3,0,0,0-.08-.75,1.54,1.54,0,0,0-.26-.58,1.33,1.33,0,0,0-.46-.39,1.77,1.77,0,0,0-1.33,0,1.3,1.3,0,0,0-.45.39,1.54,1.54,0,0,0-.26.58,3.25,3.25,0,0,0,0,1.52,1.59,1.59,0,0,0,.26.59,1.07,1.07,0,0,0,.45.39A1.49,1.49,0,0,0,357.6,236Z" fill="#202b0e"/><path d="M361,231.75h.8v3a1.51,1.51,0,0,0,.22.94.83.83,0,0,0,.71.28,1.43,1.43,0,0,0,1-.39,1.54,1.54,0,0,0,.35-.43,1.22,1.22,0,0,0,.12-.58v-2.83h.8v4.78h-.79v-.74a2.46,2.46,0,0,1-.76.67,1.87,1.87,0,0,1-.88.21,1.44,1.44,0,0,1-1.18-.44,2,2,0,0,1-.36-1.31Z" fill="#202b0e"/><path d="M371.73,235.84a2.33,2.33,0,0,1-.68.62,1.92,1.92,0,0,1-.92.21,2,2,0,0,1-.91-.19,1.72,1.72,0,0,1-.63-.53,2.27,2.27,0,0,1-.37-.8,4.15,4.15,0,0,1,0-2.06,2.49,2.49,0,0,1,.42-.81,2,2,0,0,1,.67-.51,2.28,2.28,0,0,1,.89-.17,2.15,2.15,0,0,1,.77.15,1.75,1.75,0,0,1,.72.58v-2.4h.8v6.6h-.78Zm0-1.85a2.36,2.36,0,0,0-.13-.89,1.26,1.26,0,0,0-.41-.54,1.13,1.13,0,0,0-.41-.23,1.65,1.65,0,0,0-.46-.06,1.45,1.45,0,0,0-.55.1,1,1,0,0,0-.44.32,1.64,1.64,0,0,0-.3.59,3,3,0,0,0-.1.86,3.22,3.22,0,0,0,.11.89,1.54,1.54,0,0,0,.31.57,1.12,1.12,0,0,0,.42.31,1.37,1.37,0,0,0,.49.09,1.43,1.43,0,0,0,.48-.07,1.22,1.22,0,0,0,.42-.22,1.33,1.33,0,0,0,.42-.55,2,2,0,0,0,.15-.84Z" fill="#202b0e"/><path d="M375.91,236.67a2.63,2.63,0,0,1-1-.17,2.11,2.11,0,0,1-.73-.5,2.38,2.38,0,0,1-.45-.8,3.4,3.4,0,0,1-.16-1,3.12,3.12,0,0,1,.17-1.05,2.3,2.3,0,0,1,.47-.81,2.13,2.13,0,0,1,.74-.51,2.4,2.4,0,0,1,.95-.18,2.7,2.7,0,0,1,1,.17,2.05,2.05,0,0,1,.72.51,2.29,2.29,0,0,1,.46.79,3.39,3.39,0,0,1,.16,1,3.25,3.25,0,0,1-.17,1.07,2.18,2.18,0,0,1-.46.8,2,2,0,0,1-.73.51A2.54,2.54,0,0,1,375.91,236.67Zm0-.66a1.49,1.49,0,0,0,.66-.14,1.16,1.16,0,0,0,.46-.39,1.59,1.59,0,0,0,.26-.59,3.13,3.13,0,0,0,.09-.77,3,3,0,0,0-.09-.75,1.54,1.54,0,0,0-.26-.58,1.25,1.25,0,0,0-.46-.39,1.5,1.5,0,0,0-.66-.13,1.47,1.47,0,0,0-.66.13,1.25,1.25,0,0,0-.46.39,1.54,1.54,0,0,0-.26.58,3.65,3.65,0,0,0,0,1.52,1.59,1.59,0,0,0,.26.59,1.13,1.13,0,0,0,.45.39A1.51,1.51,0,0,0,375.92,236Z" fill="#202b0e"/><path d="M379.32,231.75h.79v.73a2.23,2.23,0,0,1,.78-.68,2.12,2.12,0,0,1,.9-.2,1.53,1.53,0,0,1,1.2.44,1.93,1.93,0,0,1,.39,1.31v3.18h-.8v-3a1.45,1.45,0,0,0-.24-.94,1,1,0,0,0-.74-.27,1.42,1.42,0,0,0-.53.1,1.32,1.32,0,0,0-.48.29,1.7,1.7,0,0,0-.35.43,1.26,1.26,0,0,0-.12.59v2.83h-.8Z" fill="#202b0e"/><path d="M384.43,229.93h.85l-.48,2h-.65Z" fill="#202b0e"/><path d="M386.6,232.39h-.74v-.64h.74v-1.31h.81v1.31h1.26v.64h-1.26v2.8a1,1,0,0,0,.15.56.57.57,0,0,0,.48.21,1.86,1.86,0,0,0,.36,0,1.28,1.28,0,0,0,.28-.07l.14.62-.4.11a3.77,3.77,0,0,1-.51,0,1.53,1.53,0,0,1-.66-.12,1,1,0,0,1-.4-.34,1.46,1.46,0,0,1-.2-.53,4.57,4.57,0,0,1,0-.67Z" fill="#202b0e"/><path d="M268.13,244.46H269l1,3.81,1.1-3.79h.81l1.07,3.79.95-3.81h.86l-1.4,4.78h-.85l-1.07-3.81-1.08,3.81h-.84Z" fill="#202b0e"/><path d="M278.43,248.58a2.51,2.51,0,0,1-.66.54,2,2,0,0,1-1,.23,2.29,2.29,0,0,1-.66-.09,1.51,1.51,0,0,1-.52-.27,1.28,1.28,0,0,1-.34-.45,1.54,1.54,0,0,1-.12-.63,1.36,1.36,0,0,1,.21-.79,1.54,1.54,0,0,1,.56-.48,2.64,2.64,0,0,1,.78-.25,6.54,6.54,0,0,1,.89-.09l.83,0v-.19a1.22,1.22,0,0,0-.26-.87,1.13,1.13,0,0,0-.84-.27,1.41,1.41,0,0,0-.84.19.89.89,0,0,0-.36.52l-.73-.08a1.4,1.4,0,0,1,.62-1,2.54,2.54,0,0,1,1.33-.3,2.79,2.79,0,0,1,.88.12,1.68,1.68,0,0,1,.58.36,1.51,1.51,0,0,1,.32.57,3.07,3.07,0,0,1,.09.77v3.11h-.77Zm0-1.74-.77,0a4.14,4.14,0,0,0-.81.09,1.71,1.71,0,0,0-.52.2.7.7,0,0,0-.26.31,1,1,0,0,0-.08.43.77.77,0,0,0,.21.57,1,1,0,0,0,.72.22,1.66,1.66,0,0,0,1.11-.35,1.25,1.25,0,0,0,.4-1Z" fill="#202b0e"/><path d="M280.42,244.46h.8v.73a2.12,2.12,0,0,1,.77-.68,2.18,2.18,0,0,1,.9-.2,1.57,1.57,0,0,1,1.21.44,1.93,1.93,0,0,1,.39,1.31v3.18h-.81v-3a1.45,1.45,0,0,0-.24-.94.93.93,0,0,0-.74-.27,1.46,1.46,0,0,0-.53.1,1.36,1.36,0,0,0-.47.29,1.51,1.51,0,0,0-.35.43,1.26,1.26,0,0,0-.12.59v2.83h-.81Z" fill="#202b0e"/><path d="M286,245.1h-.74v-.64H286v-1.31h.8v1.31H288v.64h-1.27v2.8a.89.89,0,0,0,.16.56.55.55,0,0,0,.48.21,2,2,0,0,0,.36,0,1.28,1.28,0,0,0,.28-.07l.14.62a4,4,0,0,1-.41.11,3.52,3.52,0,0,1-.51,0,1.56,1.56,0,0,1-.66-.12,1.07,1.07,0,0,1-.39-.34,1.3,1.3,0,0,1-.2-.53,3.58,3.58,0,0,1,0-.67Z" fill="#202b0e"/><path d="M293.94,248.58a2.51,2.51,0,0,1-.66.54,2,2,0,0,1-1,.23,2.29,2.29,0,0,1-.66-.09,1.51,1.51,0,0,1-.52-.27,1.28,1.28,0,0,1-.34-.45,1.54,1.54,0,0,1-.12-.63,1.36,1.36,0,0,1,.21-.79,1.54,1.54,0,0,1,.56-.48,2.64,2.64,0,0,1,.78-.25,6.54,6.54,0,0,1,.89-.09l.83,0v-.19a1.22,1.22,0,0,0-.26-.87,1.13,1.13,0,0,0-.84-.27,1.41,1.41,0,0,0-.84.19.89.89,0,0,0-.36.52l-.73-.08a1.4,1.4,0,0,1,.62-1,2.54,2.54,0,0,1,1.33-.3,2.79,2.79,0,0,1,.88.12,1.68,1.68,0,0,1,.58.36,1.37,1.37,0,0,1,.31.57,2.66,2.66,0,0,1,.1.77v3.11h-.77Zm0-1.74-.77,0a4.14,4.14,0,0,0-.81.09,1.71,1.71,0,0,0-.52.2.7.7,0,0,0-.26.31,1,1,0,0,0-.08.43.77.77,0,0,0,.21.57,1,1,0,0,0,.72.22,1.66,1.66,0,0,0,1.11-.35,1.25,1.25,0,0,0,.4-1Z" fill="#202b0e"/><path d="M295.93,244.46h.8v.73a2.12,2.12,0,0,1,.77-.68,2.18,2.18,0,0,1,.9-.2,1.57,1.57,0,0,1,1.21.44,1.93,1.93,0,0,1,.39,1.31v3.18h-.81v-3a1.45,1.45,0,0,0-.24-.94.93.93,0,0,0-.74-.27,1.46,1.46,0,0,0-.53.1,1.36,1.36,0,0,0-.47.29,1.51,1.51,0,0,0-.35.43,1.26,1.26,0,0,0-.12.59v2.83h-.81Z" fill="#202b0e"/><path d="M304.68,248.55a2.24,2.24,0,0,1-.69.62,1.88,1.88,0,0,1-.91.21,2,2,0,0,1-.91-.19,1.84,1.84,0,0,1-.64-.53,2.46,2.46,0,0,1-.37-.8,4,4,0,0,1-.12-1,3.59,3.59,0,0,1,.15-1.07,2.49,2.49,0,0,1,.42-.81,1.87,1.87,0,0,1,.67-.51,2.28,2.28,0,0,1,.89-.17,2.15,2.15,0,0,1,.77.15,1.81,1.81,0,0,1,.72.58v-2.4h.8v6.6h-.78Zm0-1.85a2.58,2.58,0,0,0-.13-.89,1.26,1.26,0,0,0-.41-.54,1.21,1.21,0,0,0-.41-.23,1.65,1.65,0,0,0-.46-.06,1.42,1.42,0,0,0-.55.1,1,1,0,0,0-.44.32,1.64,1.64,0,0,0-.3.59,3,3,0,0,0-.11.86,2.86,2.86,0,0,0,.12.89,1.69,1.69,0,0,0,.3.57,1.15,1.15,0,0,0,.43.31,1.37,1.37,0,0,0,.49.09,1.51,1.51,0,0,0,.48-.07,1.22,1.22,0,0,0,.42-.22,1.33,1.33,0,0,0,.42-.55,2,2,0,0,0,.15-.84Z" fill="#202b0e"/><path d="M312.25,248.55a2.24,2.24,0,0,1-.69.62,1.88,1.88,0,0,1-.91.21,2,2,0,0,1-.91-.19,1.84,1.84,0,0,1-.64-.53,2.46,2.46,0,0,1-.37-.8,4,4,0,0,1-.12-1,3.59,3.59,0,0,1,.15-1.07,2.49,2.49,0,0,1,.42-.81,1.87,1.87,0,0,1,.67-.51,2.28,2.28,0,0,1,.89-.17,2.15,2.15,0,0,1,.77.15,1.75,1.75,0,0,1,.72.58v-2.4h.8v6.6h-.78Zm0-1.85a2.58,2.58,0,0,0-.13-.89,1.26,1.26,0,0,0-.41-.54,1.21,1.21,0,0,0-.41-.23,1.65,1.65,0,0,0-.46-.06,1.42,1.42,0,0,0-.55.1,1,1,0,0,0-.44.32,1.64,1.64,0,0,0-.3.59,3,3,0,0,0-.11.86,2.86,2.86,0,0,0,.12.89,1.69,1.69,0,0,0,.3.57,1.15,1.15,0,0,0,.43.31,1.37,1.37,0,0,0,.49.09,1.51,1.51,0,0,0,.48-.07,1.22,1.22,0,0,0,.42-.22,1.33,1.33,0,0,0,.42-.55,2,2,0,0,0,.15-.84Z" fill="#202b0e"/><path d="M314.27,242.64h.86v.93h-.86Zm0,1.82h.8v4.78h-.8Z" fill="#202b0e"/><path d="M319.83,248.55a2.1,2.1,0,0,1-.68.62,1.88,1.88,0,0,1-.91.21,2,2,0,0,1-.92-.19,1.9,1.9,0,0,1-.63-.53,2.46,2.46,0,0,1-.37-.8,4,4,0,0,1-.12-1,3.59,3.59,0,0,1,.15-1.07,2.49,2.49,0,0,1,.42-.81,1.79,1.79,0,0,1,.67-.51,2.28,2.28,0,0,1,.89-.17,2.15,2.15,0,0,1,.77.15,1.88,1.88,0,0,1,.72.58v-2.4h.8v6.6h-.79Zm0-1.85a2.61,2.61,0,0,0-.12-.89,1.26,1.26,0,0,0-.41-.54,1.32,1.32,0,0,0-.41-.23,1.65,1.65,0,0,0-.46-.06,1.42,1.42,0,0,0-.55.1,1.07,1.07,0,0,0-.45.32,1.81,1.81,0,0,0-.29.59,3,3,0,0,0-.11.86,2.86,2.86,0,0,0,.12.89,1.69,1.69,0,0,0,.3.57,1.15,1.15,0,0,0,.43.31,1.36,1.36,0,0,0,.48.09,1.53,1.53,0,0,0,.49-.07,1.22,1.22,0,0,0,.42-.22,1.42,1.42,0,0,0,.42-.55,2,2,0,0,0,.14-.84Z" fill="#202b0e"/><path d="M321.87,244.46h.79v.73a2.23,2.23,0,0,1,.78-.68,2.12,2.12,0,0,1,.9-.2,1.53,1.53,0,0,1,1.2.44,1.93,1.93,0,0,1,.4,1.31v3.18h-.81v-3a1.45,1.45,0,0,0-.24-.94,1,1,0,0,0-.74-.27,1.42,1.42,0,0,0-.53.1,1.32,1.32,0,0,0-.48.29,1.7,1.7,0,0,0-.35.43,1.26,1.26,0,0,0-.12.59v2.83h-.8Z" fill="#202b0e"/><path d="M327,242.64h.85l-.48,2h-.65Z" fill="#202b0e"/><path d="M329.15,245.1h-.74v-.64h.74v-1.31H330v1.31h1.26v.64H330v2.8a1,1,0,0,0,.15.56.57.57,0,0,0,.48.21,1.86,1.86,0,0,0,.36,0,1.15,1.15,0,0,0,.28-.07l.14.62-.4.11a3.77,3.77,0,0,1-.51,0,1.53,1.53,0,0,1-.66-.12,1,1,0,0,1-.4-.34,1.46,1.46,0,0,1-.2-.53,4.68,4.68,0,0,1-.05-.67Z" fill="#202b0e"/><path d="M337.12,248.58a2.23,2.23,0,0,1-.66.54,2,2,0,0,1-1,.23,2.29,2.29,0,0,1-.66-.09,1.38,1.38,0,0,1-.51-.27,1.17,1.17,0,0,1-.34-.45,1.54,1.54,0,0,1-.12-.63,1.36,1.36,0,0,1,.21-.79,1.51,1.51,0,0,1,.55-.48,2.64,2.64,0,0,1,.78-.25,6.53,6.53,0,0,1,.9-.09l.82,0v-.19a1.18,1.18,0,0,0-.26-.87,1.11,1.11,0,0,0-.84-.27,1.45,1.45,0,0,0-.84.19.83.83,0,0,0-.35.52l-.73-.08a1.34,1.34,0,0,1,.62-1,2.52,2.52,0,0,1,1.33-.3,2.73,2.73,0,0,1,.87.12,1.59,1.59,0,0,1,.58.36,1.39,1.39,0,0,1,.32.57,3.06,3.06,0,0,1,.1.77v3.11h-.78Zm0-1.74-.77,0a4.33,4.33,0,0,0-.81.09,1.64,1.64,0,0,0-.51.2.67.67,0,0,0-.27.31,1.14,1.14,0,0,0-.08.43.74.74,0,0,0,.22.57.94.94,0,0,0,.71.22,1.62,1.62,0,0,0,1.11-.35,1.22,1.22,0,0,0,.4-1Z" fill="#202b0e"/><path d="M339.63,247.84a1,1,0,0,0,.42.7,1.87,1.87,0,0,0,.92.2,1.39,1.39,0,0,0,.87-.21.67.67,0,0,0,.25-.55,1.09,1.09,0,0,0,0-.26.51.51,0,0,0-.12-.23,1.06,1.06,0,0,0-.26-.17,1.83,1.83,0,0,0-.44-.12l-.61-.09a3.9,3.9,0,0,1-.71-.17,1.59,1.59,0,0,1-.52-.26,1,1,0,0,1-.32-.4,1.35,1.35,0,0,1-.1-.57,1.28,1.28,0,0,1,.14-.59,1.4,1.4,0,0,1,.4-.44,1.83,1.83,0,0,1,.6-.27,2.57,2.57,0,0,1,.75-.1,3.06,3.06,0,0,1,.87.1,1.69,1.69,0,0,1,.57.28,1.33,1.33,0,0,1,.34.41,2.21,2.21,0,0,1,.18.51l-.73.12a1.52,1.52,0,0,0-.15-.34.64.64,0,0,0-.22-.24.82.82,0,0,0-.34-.15,1.72,1.72,0,0,0-.49-.05,2.09,2.09,0,0,0-.55.06,1,1,0,0,0-.36.16.64.64,0,0,0-.19.22.66.66,0,0,0-.06.27,1,1,0,0,0,0,.26.49.49,0,0,0,.14.21,1.41,1.41,0,0,0,.28.15,2.69,2.69,0,0,0,.45.11l.69.11a2.28,2.28,0,0,1,1.21.48,1.32,1.32,0,0,1,.37,1,1.18,1.18,0,0,1-.13.56,1.25,1.25,0,0,1-.36.44,1.69,1.69,0,0,1-.6.3,3,3,0,0,1-.84.1,3.48,3.48,0,0,1-.81-.08,2.17,2.17,0,0,1-.66-.26,1.41,1.41,0,0,1-.46-.48,1.6,1.6,0,0,1-.2-.72Z" fill="#202b0e"/><path d="M343.94,242.64h.8v3.84l2.23-2h1l-1.71,1.6,1.9,3.18h-.92l-1.58-2.71-.89.8v1.91h-.8Z" fill="#202b0e"/><path d="M351.12,245.1h-.74v-.64h.74V244a1.62,1.62,0,0,1,.12-.66,1.29,1.29,0,0,1,.31-.46,1.37,1.37,0,0,1,.47-.27,1.69,1.69,0,0,1,.56-.09,2.6,2.6,0,0,1,.4,0,2.12,2.12,0,0,1,.41.08l-.13.63-.28-.06h-.27a.86.86,0,0,0-.55.17.73.73,0,0,0-.23.62v.44h1.21v.64h-1.21v4.14h-.81Z" fill="#202b0e"/><path d="M355.88,249.38a2.7,2.7,0,0,1-1-.17,2.16,2.16,0,0,1-.72-.5,2.22,2.22,0,0,1-.45-.8,3.42,3.42,0,0,1,0-2.1,2.3,2.3,0,0,1,.47-.81,2,2,0,0,1,.74-.51,2.4,2.4,0,0,1,1-.18,2.61,2.61,0,0,1,1,.17,2,2,0,0,1,.73.51,2.29,2.29,0,0,1,.46.79,3.39,3.39,0,0,1,.15,1,3.25,3.25,0,0,1-.16,1.07,2.33,2.33,0,0,1-.46.8,2,2,0,0,1-.74.51A2.5,2.5,0,0,1,355.88,249.38Zm0-.66a1.54,1.54,0,0,0,.67-.14,1.23,1.23,0,0,0,.46-.39,1.76,1.76,0,0,0,.26-.59,3.14,3.14,0,0,0,.08-.77,3,3,0,0,0-.08-.75,1.71,1.71,0,0,0-.26-.58,1.33,1.33,0,0,0-.46-.39,1.54,1.54,0,0,0-.67-.13,1.47,1.47,0,0,0-.66.13,1.3,1.3,0,0,0-.45.39,1.54,1.54,0,0,0-.26.58,3.25,3.25,0,0,0,0,1.52,1.75,1.75,0,0,0,.25.59,1.16,1.16,0,0,0,.46.39A1.46,1.46,0,0,0,355.89,248.72Z" fill="#202b0e"/><path d="M359.3,244.46h.79v.74a1.92,1.92,0,0,1,.63-.61,1.41,1.41,0,0,1,.77-.22,2.5,2.5,0,0,1,.42,0l-.1.75-.19,0-.2,0a1.42,1.42,0,0,0-.45.08,1.14,1.14,0,0,0-.44.27,1.38,1.38,0,0,0-.32.4,1.3,1.3,0,0,0-.11.54v2.84h-.8Z" fill="#202b0e"/><path d="M362.68,248.16h.89v1.08h-.89Zm0-5.52h.83l0,4.7h-.77Z" fill="#202b0e"/></svg>