<svg xmlns="http://www.w3.org/2000/svg" viewBox="0 0 430 212"><title>popups-bg</title><g opacity="0.5"><rect x="24.39" y="21.31" width="282.7" height="182.6" rx="4" fill="#263135" opacity="0.2" stroke-linecap="round" stroke-linejoin="round" stroke-width="3" stroke="#263135"/><rect x="31.57" y="12.81" width="282.7" height="183.56" rx="4" fill="none"/><rect x="31.57" y="12.81" width="282.7" height="182.6" rx="4" stroke-width="3" stroke="#263135" stroke-linecap="round" stroke-linejoin="round" fill="#939393"/><rect x="39.22" y="179.31" width="2.27" height="8.13" fill="#fff" opacity="0.45"/><rect x="43.34" y="179.31" width="2.27" height="8.13" fill="#fff" opacity="0.45"/><rect x="50.86" y="182.08" width="251.85" height="2.68" fill="#fff" opacity="0.45"/><rect x="63.69" y="180.21" width="3.49" height="6.74" fill="#fff"/><path d="M53,28.88h3.46L63,46.3h-3.9l-1.39-4h-6.1l-1.39,4H46.43Zm3.76,10.39L54.6,33l-2.1,6.25Z" fill="#fff"/><path d="M63.93,28.88h3.63V39.25a5.6,5.6,0,0,0,.78,3.29A3,3,0,0,0,71,43.62a3,3,0,0,0,2.6-1.08,5.61,5.61,0,0,0,.77-3.29V28.88H78V39.25a10.28,10.28,0,0,1-.49,3.39A6.06,6.06,0,0,1,76.08,45a5.35,5.35,0,0,1-2.21,1.34,9.27,9.27,0,0,1-2.94.43,9.37,9.37,0,0,1-3-.44A5.44,5.44,0,0,1,65.76,45a5.78,5.78,0,0,1-1.37-2.36,11.17,11.17,0,0,1-.46-3.41Z" fill="#fff"/><path d="M85.13,32H79.89V28.88H94V32H88.79V46.3H85.13Z" fill="#fff"/><path d="M103.34,46.74a9.12,9.12,0,0,1-3.49-.63,7.17,7.17,0,0,1-2.61-1.83,8.17,8.17,0,0,1-1.65-2.88,13,13,0,0,1,0-7.62,8.19,8.19,0,0,1,1.66-2.88,7.13,7.13,0,0,1,2.62-1.83,9.93,9.93,0,0,1,7,0,7,7,0,0,1,2.6,1.83,8.11,8.11,0,0,1,1.62,2.88,11.83,11.83,0,0,1,.56,3.81,12.21,12.21,0,0,1-.55,3.81,7.94,7.94,0,0,1-1.61,2.88,7,7,0,0,1-2.6,1.83A9.16,9.16,0,0,1,103.34,46.74Zm0-3.12a3.91,3.91,0,0,0,3.41-1.57,7.55,7.55,0,0,0,1.12-4.46,7.54,7.54,0,0,0-1.12-4.45,4.48,4.48,0,0,0-6.83,0,7.54,7.54,0,0,0-1.12,4.45,7.55,7.55,0,0,0,1.12,4.46A3.92,3.92,0,0,0,103.32,43.62Z" fill="#fff"/><path d="M120.06,28.88h6.22a10.33,10.33,0,0,1,3.31.45,5.56,5.56,0,0,1,2.07,1.19,4.18,4.18,0,0,1,1.08,1.74,7,7,0,0,1,.3,2.06,7.88,7.88,0,0,1-.3,2.19,4.5,4.5,0,0,1-1.08,1.85,5.25,5.25,0,0,1-2,1.25,9.55,9.55,0,0,1-3.23.47h-2.74V46.3h-3.58Zm6.2,8.17a5.39,5.39,0,0,0,1.57-.19,2.6,2.6,0,0,0,1-.54,1.8,1.8,0,0,0,.5-.84,4.23,4.23,0,0,0,.13-1.09,3.8,3.8,0,0,0-.14-1.07,1.66,1.66,0,0,0-.52-.78,2.44,2.44,0,0,0-1-.49,5.86,5.86,0,0,0-1.58-.17h-2.59v5.17Z" fill="#fff"/><path d="M135.67,28.88h3.64v14.3h8.25l-.39,3.12h-11.5Z" fill="#fff"/><path d="M155.42,28.88h3.46l6.54,17.42h-3.9l-1.39-4H154l-1.39,4h-3.76Zm3.76,10.39L157.05,33,155,39.27Z" fill="#fff"/><path d="M169,39.2l-6-10.32H167l3.76,7.05,3.88-7h3.86L172.65,39.2v7.1H169Z" fill="#fff"/><path d="M180.55,28.88h3.64V46.3h-3.64Z" fill="#fff"/><path d="M187.75,28.88H191L198.2,40.3V28.88h3.54V46.3h-3.25L191.29,35V46.3h-3.54Z" fill="#fff"/><path d="M213.33,36.76H220v7.37a9.54,9.54,0,0,1-3.2,1.93,11.12,11.12,0,0,1-3.83.68,9.26,9.26,0,0,1-3.63-.66,6.93,6.93,0,0,1-2.57-1.85,7.9,7.9,0,0,1-1.54-2.9,12.91,12.91,0,0,1-.51-3.74,12.12,12.12,0,0,1,.56-3.81,8.39,8.39,0,0,1,1.6-2.88,6.73,6.73,0,0,1,2.53-1.83,8.38,8.38,0,0,1,3.31-.63,9.17,9.17,0,0,1,2.9.41A6.28,6.28,0,0,1,217.69,30,5.84,5.84,0,0,1,219,31.71a8.14,8.14,0,0,1,.72,2.1l-3.61.46a6.94,6.94,0,0,0-.36-1.16,2.35,2.35,0,0,0-.6-.85,2.47,2.47,0,0,0-1-.54,5.08,5.08,0,0,0-1.47-.18,3.54,3.54,0,0,0-3.17,1.58,8.07,8.07,0,0,0-1,4.47,8.06,8.06,0,0,0,1.06,4.48A3.87,3.87,0,0,0,213,43.64a7.83,7.83,0,0,0,2-.23,6.48,6.48,0,0,0,1.62-.72V39.78h-3.32Z" fill="#fff"/><path d="M226.92,28.88H231L235.2,41.2l4.34-12.32h3.9L236.9,46.3h-3.44Z" fill="#fff"/><path d="M245.47,28.88h3.64V46.3h-3.64Z" fill="#fff"/><path d="M252.67,28.88h6.52a8.56,8.56,0,0,1,6.23,2.17c1.49,1.45,2.23,3.59,2.23,6.44A10.57,10.57,0,0,1,267,41.3a7.37,7.37,0,0,1-1.79,2.76,7.55,7.55,0,0,1-2.86,1.68,12.12,12.12,0,0,1-3.81.56h-5.9Zm6,14.32a6.4,6.4,0,0,0,2.41-.4,4.07,4.07,0,0,0,1.63-1.16,4.81,4.81,0,0,0,.91-1.79,8.46,8.46,0,0,0,.3-2.34,9.63,9.63,0,0,0-.26-2.3,4.65,4.65,0,0,0-.82-1.75,3.71,3.71,0,0,0-1.45-1.09,5.41,5.41,0,0,0-2.18-.4h-2.88V43.2Z" fill="#fff"/><path d="M270.65,28.88h11.89V32h-8.25v3.81h7.76v3.13h-7.76V43.2h8.76l-.36,3.1h-12Z" fill="#fff"/><path d="M293.16,46.74a9.09,9.09,0,0,1-3.49-.63,7.17,7.17,0,0,1-2.61-1.83,8.17,8.17,0,0,1-1.65-2.88,12.8,12.8,0,0,1,0-7.62,8,8,0,0,1,1.66-2.88,7.13,7.13,0,0,1,2.62-1.83,9.93,9.93,0,0,1,7,0,6.86,6.86,0,0,1,2.59,1.83,8.28,8.28,0,0,1,1.63,2.88,13.36,13.36,0,0,1,0,7.62,8.09,8.09,0,0,1-1.61,2.88,7.21,7.21,0,0,1-2.6,1.83A9.19,9.19,0,0,1,293.16,46.74Zm0-3.12a3.92,3.92,0,0,0,3.42-1.57,7.55,7.55,0,0,0,1.12-4.46,7.54,7.54,0,0,0-1.12-4.45,4.48,4.48,0,0,0-6.83,0,7.54,7.54,0,0,0-1.13,4.45,7.55,7.55,0,0,0,1.13,4.46A3.89,3.89,0,0,0,293.13,43.62Z" fill="#fff"/><path d="M53,58.16h3.46L63,75.59h-3.9l-1.39-4h-6.1l-1.39,4H46.43Zm3.76,10.4L54.6,62.31l-2.1,6.25Z" fill="#fff"/><path d="M63.93,58.16h3.63V68.53a5.66,5.66,0,0,0,.78,3.3A3,3,0,0,0,71,72.9a3,3,0,0,0,2.6-1.07,5.66,5.66,0,0,0,.77-3.3V58.16H78V68.53a10.39,10.39,0,0,1-.49,3.4,6.06,6.06,0,0,1-1.39,2.33,5.46,5.46,0,0,1-2.21,1.34,9.57,9.57,0,0,1-2.94.43,9.37,9.37,0,0,1-3-.44,5.57,5.57,0,0,1-2.2-1.36,5.74,5.74,0,0,1-1.37-2.35,11.19,11.19,0,0,1-.46-3.42Z" fill="#fff"/><path d="M85.13,61.31H79.89V58.16H94v3.15H88.79V75.59H85.13Z" fill="#fff"/><path d="M103.34,76a9.12,9.12,0,0,1-3.49-.64,6.94,6.94,0,0,1-2.61-1.83,8.17,8.17,0,0,1-1.65-2.88,13,13,0,0,1,0-7.61,8,8,0,0,1,1.66-2.88,7.13,7.13,0,0,1,2.62-1.83,9.78,9.78,0,0,1,7,0,7,7,0,0,1,2.6,1.83,7.94,7.94,0,0,1,1.62,2.88,11.81,11.81,0,0,1,.56,3.8,12.12,12.12,0,0,1-.55,3.81,7.94,7.94,0,0,1-1.61,2.88,6.82,6.82,0,0,1-2.6,1.83A9.15,9.15,0,0,1,103.34,76Zm0-3.13a3.93,3.93,0,0,0,3.41-1.56,7.57,7.57,0,0,0,1.12-4.47,7.56,7.56,0,0,0-1.12-4.45,4.5,4.5,0,0,0-6.83,0,7.56,7.56,0,0,0-1.12,4.45,7.57,7.57,0,0,0,1.12,4.47A3.94,3.94,0,0,0,103.32,72.9Z" fill="#fff"/><path d="M120.06,58.16h6.22a10.33,10.33,0,0,1,3.31.45,5.44,5.44,0,0,1,2.07,1.2,4.09,4.09,0,0,1,1.08,1.73,7.08,7.08,0,0,1,.3,2.06,8,8,0,0,1-.3,2.2,4.47,4.47,0,0,1-1.08,1.84,5.26,5.26,0,0,1-2,1.26,9.57,9.57,0,0,1-3.23.46h-2.74v6.23h-3.58Zm6.2,8.18a5.35,5.35,0,0,0,1.57-.2,2.6,2.6,0,0,0,1-.54,1.71,1.71,0,0,0,.5-.84,4.1,4.1,0,0,0,.13-1.08,3.88,3.88,0,0,0-.14-1.08,1.66,1.66,0,0,0-.52-.78,2.57,2.57,0,0,0-1-.49,6.3,6.3,0,0,0-1.58-.17h-2.59v5.18Z" fill="#fff"/><path d="M135.67,58.16h3.64v14.3h8.25l-.39,3.13h-11.5Z" fill="#fff"/><path d="M155.42,58.16h3.46l6.54,17.43h-3.9l-1.39-4H154l-1.39,4h-3.76Zm3.76,10.4-2.13-6.25L155,68.56Z" fill="#fff"/><path d="M169,68.48l-6-10.32H167l3.76,7,3.88-7h3.86l-5.88,10.32v7.11H169Z" fill="#fff"/><path d="M180.55,58.16h3.64V75.59h-3.64Z" fill="#fff"/><path d="M187.75,58.16H191l7.18,11.42V58.16h3.54V75.59h-3.25l-7.2-11.33V75.59h-3.54Z" fill="#fff"/><path d="M213.33,66H220v7.37a9.38,9.38,0,0,1-3.2,1.93A10.9,10.9,0,0,1,213,76a9.26,9.26,0,0,1-3.63-.66,6.84,6.84,0,0,1-2.57-1.86,7.85,7.85,0,0,1-1.54-2.89,13,13,0,0,1-.51-3.75,12.1,12.1,0,0,1,.56-3.8,8.21,8.21,0,0,1,1.6-2.88,6.73,6.73,0,0,1,2.53-1.83,8.21,8.21,0,0,1,3.31-.64,8.88,8.88,0,0,1,2.9.42,6.26,6.26,0,0,1,2.05,1.14A5.84,5.84,0,0,1,219,61a8.14,8.14,0,0,1,.72,2.1l-3.61.46a7.11,7.11,0,0,0-.36-1.15,2.38,2.38,0,0,0-.6-.86,2.59,2.59,0,0,0-1-.53,4.73,4.73,0,0,0-1.47-.19,3.55,3.55,0,0,0-3.17,1.59,8,8,0,0,0-1,4.46,8,8,0,0,0,1.06,4.48A3.87,3.87,0,0,0,213,72.93a7.38,7.38,0,0,0,2-.24,5.83,5.83,0,0,0,1.62-.72v-2.9h-3.32Z" fill="#fff"/><path d="M226.92,58.16H231l4.23,12.33,4.34-12.33h3.9L236.9,75.59h-3.44Z" fill="#fff"/><path d="M245.47,58.16h3.64V75.59h-3.64Z" fill="#fff"/><path d="M252.67,58.16h6.52a8.6,8.6,0,0,1,6.23,2.17q2.24,2.18,2.23,6.45a10.55,10.55,0,0,1-.62,3.8A7.18,7.18,0,0,1,262.38,75a11.83,11.83,0,0,1-3.81.57h-5.9Zm6,14.33a6.39,6.39,0,0,0,2.41-.41,4,4,0,0,0,1.63-1.15,4.94,4.94,0,0,0,.91-1.8,8.38,8.38,0,0,0,.3-2.33,9.78,9.78,0,0,0-.26-2.31,4.53,4.53,0,0,0-.82-1.74,3.73,3.73,0,0,0-1.45-1.1,5.41,5.41,0,0,0-2.18-.39h-2.88V72.49Z" fill="#fff"/><path d="M270.65,58.16h11.89v3.1h-8.25v3.81h7.76v3.12h-7.76v4.3h8.76l-.36,3.1h-12Z" fill="#fff"/><path d="M293.16,76a9.09,9.09,0,0,1-3.49-.64,6.94,6.94,0,0,1-2.61-1.83,8.17,8.17,0,0,1-1.65-2.88,12.77,12.77,0,0,1,0-7.61,7.87,7.87,0,0,1,1.66-2.88,7.13,7.13,0,0,1,2.62-1.83,9.78,9.78,0,0,1,7,0,6.86,6.86,0,0,1,2.59,1.83,8.11,8.11,0,0,1,1.63,2.88,13.32,13.32,0,0,1,0,7.61,8.09,8.09,0,0,1-1.61,2.88,7,7,0,0,1-2.6,1.83A9.19,9.19,0,0,1,293.16,76Zm0-3.13a3.94,3.94,0,0,0,3.42-1.56,7.57,7.57,0,0,0,1.12-4.47,7.56,7.56,0,0,0-1.12-4.45,4.5,4.5,0,0,0-6.83,0,7.56,7.56,0,0,0-1.13,4.45,7.57,7.57,0,0,0,1.13,4.47A3.91,3.91,0,0,0,293.13,72.9Z" fill="#fff"/><path d="M53,87.45h3.46L63,104.87h-3.9l-1.39-4h-6.1l-1.39,4H46.43Zm3.76,10.39L54.6,91.6l-2.1,6.24Z" fill="#fff"/><path d="M63.93,87.45h3.63V97.82a5.6,5.6,0,0,0,.78,3.29A3,3,0,0,0,71,102.19a3,3,0,0,0,2.6-1.08,5.61,5.61,0,0,0,.77-3.29V87.45H78V97.82a10.28,10.28,0,0,1-.49,3.39,6.06,6.06,0,0,1-1.39,2.33,5.35,5.35,0,0,1-2.21,1.34,9.27,9.27,0,0,1-2.94.43,9.37,9.37,0,0,1-3-.44,5.44,5.44,0,0,1-2.2-1.35,5.78,5.78,0,0,1-1.37-2.36,11.17,11.17,0,0,1-.46-3.41Z" fill="#fff"/><path d="M85.13,90.59H79.89V87.45H94v3.14H88.79v14.28H85.13Z" fill="#fff"/><path d="M103.34,105.31a9.12,9.12,0,0,1-3.49-.63,7.17,7.17,0,0,1-2.61-1.83A8.17,8.17,0,0,1,95.59,100a13,13,0,0,1,0-7.62,8.19,8.19,0,0,1,1.66-2.88,7.38,7.38,0,0,1,2.62-1.83,9.93,9.93,0,0,1,7,0,7.21,7.21,0,0,1,2.6,1.83,8.11,8.11,0,0,1,1.62,2.88,11.83,11.83,0,0,1,.56,3.81,12.21,12.21,0,0,1-.55,3.81,7.94,7.94,0,0,1-1.61,2.88,7,7,0,0,1-2.6,1.83A9.16,9.16,0,0,1,103.34,105.31Zm0-3.12a3.93,3.93,0,0,0,3.41-1.56,9.44,9.44,0,0,0,0-8.92,4.48,4.48,0,0,0-6.83,0,9.44,9.44,0,0,0,0,8.92A3.94,3.94,0,0,0,103.32,102.19Z" fill="#fff"/><path d="M120.06,87.45h6.22a10.33,10.33,0,0,1,3.31.45,5.56,5.56,0,0,1,2.07,1.19,4.18,4.18,0,0,1,1.08,1.74,7,7,0,0,1,.3,2.06,8,8,0,0,1-.3,2.2,4.47,4.47,0,0,1-1.08,1.84,5.13,5.13,0,0,1-2,1.25,9.55,9.55,0,0,1-3.23.47h-2.74v6.22h-3.58Zm6.2,8.17a5.39,5.39,0,0,0,1.57-.19,2.6,2.6,0,0,0,1-.54,1.8,1.8,0,0,0,.5-.84,4.18,4.18,0,0,0,.13-1.09,3.85,3.85,0,0,0-.14-1.07,1.66,1.66,0,0,0-.52-.78,2.44,2.44,0,0,0-1-.49,6.3,6.3,0,0,0-1.58-.17h-2.59v5.17Z" fill="#fff"/><path d="M135.67,87.45h3.64v14.3h8.25l-.39,3.12h-11.5Z" fill="#fff"/><path d="M155.42,87.45h3.46l6.54,17.42h-3.9l-1.39-4H154l-1.39,4h-3.76Zm3.76,10.39-2.13-6.24L155,97.84Z" fill="#fff"/><path d="M169,97.77l-6-10.32H167l3.76,7,3.88-7h3.86l-5.88,10.32v7.1H169Z" fill="#fff"/><path d="M180.55,87.45h3.64v17.42h-3.64Z" fill="#fff"/><path d="M187.75,87.45H191l7.18,11.42V87.45h3.54v17.42h-3.25l-7.2-11.32v11.32h-3.54Z" fill="#fff"/><path d="M213.33,95.33H220v7.37a9.54,9.54,0,0,1-3.2,1.93,11.12,11.12,0,0,1-3.83.68,9.26,9.26,0,0,1-3.63-.66,6.93,6.93,0,0,1-2.57-1.85,7.93,7.93,0,0,1-1.54-2.89,13,13,0,0,1-.51-3.75,12.12,12.12,0,0,1,.56-3.81,8.39,8.39,0,0,1,1.6-2.88,7,7,0,0,1,2.53-1.83,8.38,8.38,0,0,1,3.31-.63,9.17,9.17,0,0,1,2.9.41,6.28,6.28,0,0,1,2.05,1.15A5.84,5.84,0,0,1,219,90.28a8.14,8.14,0,0,1,.72,2.1l-3.61.46a6.94,6.94,0,0,0-.36-1.16,2.35,2.35,0,0,0-.6-.85,2.47,2.47,0,0,0-1-.54,5.08,5.08,0,0,0-1.47-.18,3.56,3.56,0,0,0-3.17,1.58,10,10,0,0,0,0,9,3.87,3.87,0,0,0,3.46,1.57,7.83,7.83,0,0,0,2-.23,5.83,5.83,0,0,0,1.62-.72v-2.9h-3.32Z" fill="#fff"/><path d="M226.92,87.45H231l4.23,12.32,4.34-12.32h3.9l-6.54,17.42h-3.44Z" fill="#fff"/><path d="M245.47,87.45h3.64v17.42h-3.64Z" fill="#fff"/><path d="M252.67,87.45h6.52a8.56,8.56,0,0,1,6.23,2.17q2.24,2.17,2.23,6.44a10.57,10.57,0,0,1-.62,3.81,7.18,7.18,0,0,1-4.65,4.44,12.12,12.12,0,0,1-3.81.56h-5.9Zm6,14.32a6.4,6.4,0,0,0,2.41-.4,4,4,0,0,0,1.63-1.16,4.81,4.81,0,0,0,.91-1.79,8.43,8.43,0,0,0,.3-2.33,9.66,9.66,0,0,0-.26-2.31,4.65,4.65,0,0,0-.82-1.75,3.71,3.71,0,0,0-1.45-1.09,5.41,5.41,0,0,0-2.18-.39h-2.88v11.22Z" fill="#fff"/><path d="M270.65,87.45h11.89v3.1h-8.25v3.8h7.76v3.13h-7.76v4.29h8.76l-.36,3.1h-12Z" fill="#fff"/><path d="M293.16,105.31a9.09,9.09,0,0,1-3.49-.63,7.17,7.17,0,0,1-2.61-1.83,8.17,8.17,0,0,1-1.65-2.88,12.8,12.8,0,0,1,0-7.62,8,8,0,0,1,1.66-2.88,7.38,7.38,0,0,1,2.62-1.83,9.93,9.93,0,0,1,7,0,7.09,7.09,0,0,1,2.59,1.83,8.28,8.28,0,0,1,1.63,2.88,13.36,13.36,0,0,1,0,7.62,8.09,8.09,0,0,1-1.61,2.88,7.21,7.21,0,0,1-2.6,1.83A9.19,9.19,0,0,1,293.16,105.31Zm0-3.12a3.94,3.94,0,0,0,3.42-1.56,9.44,9.44,0,0,0,0-8.92,4.48,4.48,0,0,0-6.83,0,9.37,9.37,0,0,0,0,8.92A3.91,3.91,0,0,0,293.13,102.19Z" fill="#fff"/><path d="M53,116.73h3.46L63,134.16h-3.9l-1.39-4h-6.1l-1.39,4H46.43Zm3.76,10.4-2.13-6.25-2.1,6.25Z" fill="#fff"/><path d="M63.93,116.73h3.63V127.1a5.63,5.63,0,0,0,.78,3.3A3,3,0,0,0,71,131.47a3,3,0,0,0,2.6-1.07,5.64,5.64,0,0,0,.77-3.3V116.73H78V127.1a10.39,10.39,0,0,1-.49,3.4,6.06,6.06,0,0,1-1.39,2.33,5.35,5.35,0,0,1-2.21,1.34,9.57,9.57,0,0,1-2.94.43,9.37,9.37,0,0,1-3-.44,5.57,5.57,0,0,1-2.2-1.36,5.74,5.74,0,0,1-1.37-2.35,11.19,11.19,0,0,1-.46-3.42Z" fill="#fff"/><path d="M85.13,119.88H79.89v-3.15H94v3.15H88.79v14.28H85.13Z" fill="#fff"/><path d="M103.34,134.6a8.94,8.94,0,0,1-3.49-.64,6.94,6.94,0,0,1-2.61-1.83,8.17,8.17,0,0,1-1.65-2.88,13,13,0,0,1,0-7.61,8,8,0,0,1,1.66-2.88,7.13,7.13,0,0,1,2.62-1.83,9.78,9.78,0,0,1,7,0,7,7,0,0,1,2.6,1.83,7.94,7.94,0,0,1,1.62,2.88,11.81,11.81,0,0,1,.56,3.8,12.12,12.12,0,0,1-.55,3.81,7.94,7.94,0,0,1-1.61,2.88,6.82,6.82,0,0,1-2.6,1.83A9,9,0,0,1,103.34,134.6Zm0-3.13a3.93,3.93,0,0,0,3.41-1.56,9.44,9.44,0,0,0,0-8.92,4.5,4.5,0,0,0-6.83,0,9.44,9.44,0,0,0,0,8.92A3.94,3.94,0,0,0,103.32,131.47Z" fill="#fff"/><path d="M120.06,116.73h6.22a10.33,10.33,0,0,1,3.31.45,5.57,5.57,0,0,1,2.07,1.2,4.15,4.15,0,0,1,1.08,1.73,7.1,7.1,0,0,1,.3,2.07,7.93,7.93,0,0,1-.3,2.19,4.47,4.47,0,0,1-1.08,1.84,5.26,5.26,0,0,1-2,1.26,9.57,9.57,0,0,1-3.23.46h-2.74v6.23h-3.58Zm6.2,8.18a5.35,5.35,0,0,0,1.57-.2,2.73,2.73,0,0,0,1-.53,1.79,1.79,0,0,0,.5-.85,4.1,4.1,0,0,0,.13-1.08,3.88,3.88,0,0,0-.14-1.08,1.71,1.71,0,0,0-.52-.78,2.57,2.57,0,0,0-1-.49,6.3,6.3,0,0,0-1.58-.17h-2.59v5.18Z" fill="#fff"/><path d="M135.67,116.73h3.64V131h8.25l-.39,3.13h-11.5Z" fill="#fff"/><path d="M155.42,116.73h3.46l6.54,17.43h-3.9l-1.39-4H154l-1.39,4h-3.76Zm3.76,10.4-2.13-6.25-2.1,6.25Z" fill="#fff"/><path d="M169,127.06l-6-10.33H167l3.76,7.06,3.88-7.06h3.86l-5.88,10.33v7.1H169Z" fill="#fff"/><path d="M180.55,116.73h3.64v17.43h-3.64Z" fill="#fff"/><path d="M187.75,116.73H191l7.18,11.42V116.73h3.54v17.43h-3.25l-7.2-11.33v11.33h-3.54Z" fill="#fff"/><path d="M213.33,124.62H220V132a9.52,9.52,0,0,1-3.2,1.92,10.9,10.9,0,0,1-3.83.69,9.26,9.26,0,0,1-3.63-.66,6.84,6.84,0,0,1-2.57-1.86,7.85,7.85,0,0,1-1.54-2.89,13,13,0,0,1-.51-3.75,12.1,12.1,0,0,1,.56-3.8,8.21,8.21,0,0,1,1.6-2.88,6.73,6.73,0,0,1,2.53-1.83,8.38,8.38,0,0,1,3.31-.64,8.88,8.88,0,0,1,2.9.42,6.26,6.26,0,0,1,2.05,1.14,5.84,5.84,0,0,1,1.34,1.71,8.14,8.14,0,0,1,.72,2.1l-3.61.47a6.94,6.94,0,0,0-.36-1.16,2.38,2.38,0,0,0-.6-.86,2.59,2.59,0,0,0-1-.53,4.73,4.73,0,0,0-1.47-.19,3.55,3.55,0,0,0-3.17,1.59,10,10,0,0,0,0,8.94A3.87,3.87,0,0,0,213,131.5a7.38,7.38,0,0,0,2-.24,6.1,6.1,0,0,0,1.62-.71v-2.91h-3.32Z" fill="#fff"/><path d="M226.92,116.73H231l4.23,12.33,4.34-12.33h3.9l-6.54,17.43h-3.44Z" fill="#fff"/><path d="M245.47,116.73h3.64v17.43h-3.64Z" fill="#fff"/><path d="M252.67,116.73h6.52a8.6,8.6,0,0,1,6.23,2.17q2.24,2.17,2.23,6.45a10.51,10.51,0,0,1-.62,3.8,7.37,7.37,0,0,1-1.79,2.76,7.57,7.57,0,0,1-2.86,1.69,12.12,12.12,0,0,1-3.81.56h-5.9Zm6,14.33a6.6,6.6,0,0,0,2.41-.4,4.07,4.07,0,0,0,1.63-1.16,4.94,4.94,0,0,0,.91-1.8,8.38,8.38,0,0,0,.3-2.33,9.63,9.63,0,0,0-.26-2.3,4.51,4.51,0,0,0-.82-1.75,3.73,3.73,0,0,0-1.45-1.1,5.41,5.41,0,0,0-2.18-.39h-2.88v11.23Z" fill="#fff"/><path d="M270.65,116.73h11.89v3.1h-8.25v3.81h7.76v3.12h-7.76v4.3h8.76l-.36,3.1h-12Z" fill="#fff"/><path d="M293.16,134.6a8.9,8.9,0,0,1-3.49-.64,6.94,6.94,0,0,1-2.61-1.83,8.17,8.17,0,0,1-1.65-2.88,12.77,12.77,0,0,1,0-7.61,7.87,7.87,0,0,1,1.66-2.88,7.13,7.13,0,0,1,2.62-1.83,9.78,9.78,0,0,1,7,0,6.86,6.86,0,0,1,2.59,1.83,8.11,8.11,0,0,1,1.63,2.88,13.32,13.32,0,0,1,0,7.61,8.09,8.09,0,0,1-1.61,2.88,7,7,0,0,1-2.6,1.83A9,9,0,0,1,293.16,134.6Zm0-3.13a3.94,3.94,0,0,0,3.42-1.56,9.44,9.44,0,0,0,0-8.92,4.5,4.5,0,0,0-6.83,0,9.37,9.37,0,0,0,0,8.92A3.91,3.91,0,0,0,293.13,131.47Z" fill="#fff"/><path d="M53,146h3.46L63,163.44h-3.9l-1.39-4h-6.1l-1.39,4H46.43Zm3.76,10.39-2.13-6.24-2.1,6.24Z" fill="#fff"/><path d="M63.93,146h3.63v10.37a5.6,5.6,0,0,0,.78,3.29A3,3,0,0,0,71,160.76a3,3,0,0,0,2.6-1.08,5.61,5.61,0,0,0,.77-3.29V146H78v10.37a10.28,10.28,0,0,1-.49,3.39,6,6,0,0,1-1.39,2.33,5.35,5.35,0,0,1-2.21,1.34,9.27,9.27,0,0,1-2.94.43,9.09,9.09,0,0,1-3-.44,5.44,5.44,0,0,1-2.2-1.35,5.78,5.78,0,0,1-1.37-2.36,11.17,11.17,0,0,1-.46-3.41Z" fill="#fff"/><path d="M85.13,149.17H79.89V146H94v3.15H88.79v14.27H85.13Z" fill="#fff"/><path d="M103.34,163.88a9.12,9.12,0,0,1-3.49-.63,7.17,7.17,0,0,1-2.61-1.83,8.17,8.17,0,0,1-1.65-2.88,13,13,0,0,1,0-7.62A8.19,8.19,0,0,1,97.25,148a7.38,7.38,0,0,1,2.62-1.83,9.93,9.93,0,0,1,7,0,7.21,7.21,0,0,1,2.6,1.83,8.11,8.11,0,0,1,1.62,2.88,11.88,11.88,0,0,1,.56,3.81,12.17,12.17,0,0,1-.55,3.81,7.94,7.94,0,0,1-1.61,2.88,7,7,0,0,1-2.6,1.83A9.16,9.16,0,0,1,103.34,163.88Zm0-3.12a3.93,3.93,0,0,0,3.41-1.56,9.44,9.44,0,0,0,0-8.92,4.48,4.48,0,0,0-6.83,0,9.44,9.44,0,0,0,0,8.92A3.94,3.94,0,0,0,103.32,160.76Z" fill="#fff"/><path d="M120.06,146h6.22a10.33,10.33,0,0,1,3.31.45,5.44,5.44,0,0,1,2.07,1.2,4.09,4.09,0,0,1,1.08,1.73,7,7,0,0,1,.3,2.06,8,8,0,0,1-.3,2.2,4.47,4.47,0,0,1-1.08,1.84,5.26,5.26,0,0,1-2,1.26,9.83,9.83,0,0,1-3.23.46h-2.74v6.22h-3.58Zm6.2,8.17a5.39,5.39,0,0,0,1.57-.19,2.6,2.6,0,0,0,1-.54,1.8,1.8,0,0,0,.5-.84,4.18,4.18,0,0,0,.13-1.09,3.85,3.85,0,0,0-.14-1.07,1.66,1.66,0,0,0-.52-.78,2.44,2.44,0,0,0-1-.49,6.3,6.3,0,0,0-1.58-.17h-2.59v5.17Z" fill="#fff"/><path d="M135.67,146h3.64v14.3h8.25l-.39,3.12h-11.5Z" fill="#fff"/><path d="M155.42,146h3.46l6.54,17.42h-3.9l-1.39-4H154l-1.39,4h-3.76Zm3.76,10.39-2.13-6.24-2.1,6.24Z" fill="#fff"/><path d="M169,156.34,163,146H167l3.76,7,3.88-7h3.86l-5.88,10.32v7.1H169Z" fill="#fff"/><path d="M180.55,146h3.64v17.42h-3.64Z" fill="#fff"/><path d="M187.75,146H191l7.18,11.42V146h3.54v17.42h-3.25l-7.2-11.32v11.32h-3.54Z" fill="#fff"/><path d="M213.33,153.9H220v7.37a9.54,9.54,0,0,1-3.2,1.93,11.12,11.12,0,0,1-3.83.68,9.26,9.26,0,0,1-3.63-.66,6.82,6.82,0,0,1-2.57-1.85,7.93,7.93,0,0,1-1.54-2.89,13,13,0,0,1-.51-3.75,12.16,12.16,0,0,1,.56-3.81,8.39,8.39,0,0,1,1.6-2.88,7,7,0,0,1,2.53-1.83,8.38,8.38,0,0,1,3.31-.63,9.17,9.17,0,0,1,2.9.41,6.28,6.28,0,0,1,2.05,1.15,5.84,5.84,0,0,1,1.34,1.71,8.14,8.14,0,0,1,.72,2.1l-3.61.46a7.24,7.24,0,0,0-.36-1.16,2.35,2.35,0,0,0-.6-.85,2.47,2.47,0,0,0-1-.54,5.08,5.08,0,0,0-1.47-.18,3.56,3.56,0,0,0-3.17,1.58,10,10,0,0,0,0,9,3.87,3.87,0,0,0,3.46,1.57,7.4,7.4,0,0,0,2-.23,5.83,5.83,0,0,0,1.62-.72v-2.9h-3.32Z" fill="#fff"/><path d="M226.92,146H231l4.23,12.32L239.54,146h3.9l-6.54,17.42h-3.44Z" fill="#fff"/><path d="M245.47,146h3.64v17.42h-3.64Z" fill="#fff"/><path d="M252.67,146h6.52a8.56,8.56,0,0,1,6.23,2.17q2.24,2.17,2.23,6.44a10.57,10.57,0,0,1-.62,3.81,7.18,7.18,0,0,1-4.65,4.44,11.83,11.83,0,0,1-3.81.56h-5.9Zm6,14.32a6.4,6.4,0,0,0,2.41-.4,4,4,0,0,0,1.63-1.16,4.81,4.81,0,0,0,.91-1.79,8.38,8.38,0,0,0,.3-2.33,9.66,9.66,0,0,0-.26-2.31,4.53,4.53,0,0,0-.82-1.74,3.64,3.64,0,0,0-1.45-1.1,5.41,5.41,0,0,0-2.18-.39h-2.88v11.22Z" fill="#fff"/><path d="M270.65,146h11.89v3.1h-8.25v3.8h7.76v3.13h-7.76v4.29h8.76l-.36,3.1h-12Z" fill="#fff"/><path d="M293.16,163.88a9.09,9.09,0,0,1-3.49-.63,7.17,7.17,0,0,1-2.61-1.83,8.17,8.17,0,0,1-1.65-2.88,12.8,12.8,0,0,1,0-7.62,8,8,0,0,1,1.66-2.88,7.38,7.38,0,0,1,2.62-1.83,9.93,9.93,0,0,1,7,0,7.09,7.09,0,0,1,2.59,1.83,8.28,8.28,0,0,1,1.63,2.88,13.36,13.36,0,0,1,0,7.62,8.09,8.09,0,0,1-1.61,2.88,7.21,7.21,0,0,1-2.6,1.83A9.19,9.19,0,0,1,293.16,163.88Zm0-3.12a3.94,3.94,0,0,0,3.42-1.56,9.44,9.44,0,0,0,0-8.92,4.48,4.48,0,0,0-6.83,0,9.37,9.37,0,0,0,0,8.92A3.91,3.91,0,0,0,293.13,160.76Z" fill="#fff"/></g></svg>